<?xml version="1.0" encoding="UTF-8" standalone="no"?>
<!-- Created with Inkscape (http://www.inkscape.org/) -->

<svg
   xmlns:osb="http://www.openswatchbook.org/uri/2009/osb"
   xmlns:dc="http://purl.org/dc/elements/1.1/"
   xmlns:cc="http://creativecommons.org/ns#"
   xmlns:rdf="http://www.w3.org/1999/02/22-rdf-syntax-ns#"
   xmlns:svg="http://www.w3.org/2000/svg"
   xmlns="http://www.w3.org/2000/svg"
   xmlns:xlink="http://www.w3.org/1999/xlink"
   xmlns:sodipodi="http://sodipodi.sourceforge.net/DTD/sodipodi-0.dtd"
   xmlns:inkscape="http://www.inkscape.org/namespaces/inkscape"
   width="1052.3622"
   height="744.09448"
   id="svg2"
   version="1.1"
   inkscape:version="0.48.5 r10040"
   sodipodi:docname="lovinglearningpreschoollogo.svg"
   inkscape:export-filename="E:\Dropbox\Shares\lovinglearningpreschoolwebsite\lovinglearningpreschool\logo\logo.png"
   inkscape:export-xdpi="90"
   inkscape:export-ydpi="90">
  <defs
     id="defs4">
    <linearGradient
       id="linearGradient5211"
       osb:paint="gradient">
      <stop
         style="stop-color:#000000;stop-opacity:1;"
         offset="0"
         id="stop5213" />
      <stop
         style="stop-color:#000000;stop-opacity:0;"
         offset="1"
         id="stop5215" />
    </linearGradient>
    <linearGradient
       id="linearGradient3771"
       osb:paint="solid">
      <stop
         style="stop-color:#000000;stop-opacity:1;"
         offset="0"
         id="stop3773" />
    </linearGradient>
    <linearGradient
       inkscape:collect="always"
       xlink:href="#linearGradient5211"
       id="linearGradient5223"
       x1="195.1109"
       y1="422.3783"
       x2="493.8764"
       y2="422.3783"
       gradientUnits="userSpaceOnUse" />
  </defs>
  <sodipodi:namedview
     id="base"
     pagecolor="#ffffff"
     bordercolor="#666666"
     borderopacity="1.0"
     inkscape:pageopacity="0.0"
     inkscape:pageshadow="2"
     inkscape:zoom="0.84098617"
     inkscape:cx="237.79691"
     inkscape:cy="251.0158"
     inkscape:document-units="px"
     inkscape:current-layer="g2996"
     showgrid="false"
     inkscape:window-width="667"
     inkscape:window-height="700"
     inkscape:window-x="683"
     inkscape:window-y="0"
     inkscape:window-maximized="0" />
  <metadata
     id="metadata7">
    <rdf:RDF>
      <cc:Work
         rdf:about="">
        <dc:format>image/svg+xml</dc:format>
        <dc:type
           rdf:resource="http://purl.org/dc/dcmitype/StillImage" />
        <dc:title></dc:title>
      </cc:Work>
    </rdf:RDF>
  </metadata>
  <g
     inkscape:label="Layer 1"
     inkscape:groupmode="layer"
     id="layer1"
     transform="translate(0,-308.2677)">
    <g
       id="g2996"
       transform="translate(79.999996,482.85715)">
      <g
         id="g3780"
         transform="matrix(0.51773825,0,0,0.47219227,-69.404604,292.03785)"
         inkscape:export-xdpi="90"
         inkscape:export-ydpi="90">
        <path
           sodipodi:nodetypes="scsssssscssssccccsssssssscscccsssccssccssssssssssccsc"
           inkscape:connector-curvature="0"
           id="path3004"
           d="m 223.14613,538.82318 c -8.8,-1.54701 -16.70929,-2.60226 -17.57621,-2.34501 -0.86691,0.25726 -13.69191,1.36075 -28.5,2.45221 -27.44555,2.02292 -53.32342,2.49692 -56.92379,1.04266 -1.90454,-0.76929 -1.88068,-0.85899 0.5,-1.87948 1.375,-0.5894 5.86416,-2.50513 9.97591,-4.25718 10.55895,-4.49926 14.67032,-7.50195 18.97956,-13.86149 10.61451,-15.66481 11.26009,-19.14507 11.41796,-61.55344 l 0.12657,-34 -2.81592,-10.5 c -2.45973,-9.17184 -3.34517,-11.05038 -7,-14.85113 -10.00037,-10.39965 -41.06332,-33.99056 -54.447013,-41.35006 -4.3736,-2.40498 -8.69808,-5.74518 -10.87046,-8.39629 -1.98415,-2.42139 -4.11583,-4.40148 -4.73707,-4.40021 -0.62125,10e-4 -4.06616,-2.00267 -7.65537,-4.45321 -7.083985,-5.59577 -6.852976,-4.3236 -14.87973,-1.08718 -72.414687,-28.02394 364.493923,-149.81281 205.204743,13.77512 -26.32479,23.84179 -55.87715,56.29179 -61.25668,67.26296 -2.65794,5.42069 -4.39152,17.49199 -3.65574,25.45573 0.33255,3.59935 0.64451,11.26927 0.69323,17.04427 0.13061,15.47979 1.55397,28.61403 3.93614,36.32141 1.90211,6.15416 2.86885,7.54959 9.88312,14.26564 9.40115,9.00144 23.36612,20.31208 29.56194,23.94307 2.49634,1.46296 4.53881,3.06716 4.53881,3.5649 0,1.46926 -7.46985,0.80054 -24.5,-2.19329 z M 206.76736,393.06369 c 2.07542,-1.52629 11.69503,-10.26931 21.37691,-19.42895 9.75085,-9.22489 21.26094,-19.07618 25.80264,-22.08405 51.16244,-40.80162 -10.31005,-10.25277 -27.99415,-10.17251 l -14.19337,0.0433 -3.47074,3.36292 c -6.73303,6.52386 -12.35853,23.58924 -13.36313,40.53808 -0.51616,8.70825 -0.37517,10.0558 1.17035,11.18591 2.13563,1.56161 5.21612,0.56725 10.67149,-3.44467 z m -24.81672,-1.92623 c 3.91272,-4.3235 10.97619,-25.18462 12.09326,-35.71601 0.29169,-2.75 -0.016,-8.50629 -0.68371,-12.79175 -4.89586,-21.65304 -36.63805,-20.11273 -34.49397,4.50717 1.45102,16.66157 7.48771,33.02786 15.4214,41.80951 3.99953,4.42701 5.3024,4.79954 7.66302,2.19108 z m -29.94011,-15.46601 c 0.77578,-1.2375 2.00391,-4.725 2.72917,-7.75 1.60669,-6.70131 1.84129,-25.46514 0.33719,-26.96924 -0.759,-0.759 -3.0354,-0.17775 -7.84534,2.00318 -7.06464,3.20326 -19.98795,6.45145 -29.8323,7.49815 -5.147,0.54726 -5.64607,0.79942 -4.78109,2.41564 1.43401,2.67947 24.71385,19.9969 30.51071,22.69634 6.23239,2.90224 7.12202,2.91285 8.88166,0.10593 z m 52.6356,-35.80902 c -0.78522,-1.72917 -1.72127,-0.43868 -2,0.61804 0,0.85746 0.45,1.2809 1,0.94098 0.55,-0.33992 1,-1.04148 1,-1.55902 z"
           style="fill:#8c6e1e;fill-opacity:1" />
        <path
           inkscape:connector-curvature="0"
           id="path2998"
           d="m 102.82774,369.73765 c -7.829323,-0.99663 -12.924933,-2.54077 -15.917963,-4.82367 -1.79895,-1.37213 -3.71087,-2.49478 -4.2487,-2.49478 -0.53783,0 -3.83471,-1.98814 -7.3264,-4.41809 l -6.34853,-4.41808 -5.07921,2.05267 c -13.10755,5.29721 -16.83725,6.1124 -28.0792,6.1372 -9.8051,0.0216 -11.73522,-0.28018 -17.76825,-2.77836 -18.36133027,-7.60315 -27.6657003,-25.22581 -23.6407703,-44.77612 1.54384,-7.49894 6.99699,-18.14737 13.39978,-26.16591 3.0156603,-3.77669 5.2163903,-7.29813 4.8905103,-7.82543 -0.35388,-0.57258 -3.5176403,-0.68462 -7.8550203,-0.27817 -8.34614,0.7821 -13.96091,-1.06495 -18.7373997,-6.16388 -6.02648,-6.4333 -8.18708,-20.35924 -5.33927,-34.41378 3.26504,-16.1136 10.4542597,-29.10517 21.9200897,-39.61151 7.3411003,-6.72678 14.3087803,-10.48638 24.2821103,-13.10207 l 6.84822,-1.79607 0.078,-7.4712 c 0.0948,-9.08549 0.92786,-13.00171 4.10779,-19.31141 5.17532,-10.26898 17.11447,-19.58031 29.81423,-23.25207 12.97441,-3.75116 29.51893,-1.63157 39.662903,5.08139 4.98626,3.29975 7.43549,3.24716 8.29518,-0.17811 1.22435,-4.87819 4.40756,-8.01827 12.27404,-12.10773 13.00255,-6.7595 21.96,-8.64252 41.26788,-8.67528 14.78212,-0.0251 17.26024,0.22248 23.802,2.37766 8.77161,2.88982 16.38312,7.99607 21.01449,14.09775 1.87718,2.47313 3.97641,4.63054 4.66494,4.79425 0.68853,0.1637 2.61616,-0.85033 4.28363,-2.25341 5.61554,-4.72517 11.03499,-6.49844 19.93332,-6.52227 18.93078,-0.0507 40.16476,10.75843 58.50201,29.78042 8.9909,9.32663 16.75212,21.17061 18.65027,28.46118 0.60665,2.33004 1.56465,6.08909 2.1289,8.35344 0.96954,3.89079 1.36916,4.24047 7.27317,6.36403 25.38862,9.13181 43.22274,26.09984 48.31221,45.96597 2.28499,8.91919 1.57286,24.1434 -1.55956,33.34112 -2.1675,6.36441 -2.23069,7.21798 -1.01236,13.67485 1.47331,7.80826 0.98009,13.18314 -2.04122,22.24446 -6.08648,18.25415 -24.56097,35.07844 -42.64055,38.83174 -12.64505,2.62511 -28.62601,-0.21742 -39.6277,-7.04856 -2.64904,-1.64484 -5.50306,-2.99062 -6.34227,-2.99062 -0.8392,0 -2.66999,-0.9 -4.06841,-2 -3.3874,-2.66453 -4.76444,-2.53475 -10.21474,0.9627 -6.49675,4.16895 -16.58934,8.57226 -23.05813,10.06005 -7.34509,1.68935 -37.80624,1.91565 -39.15467,0.29089 -0.54152,-0.6525 -2.79904,-1.16132 -5.0167,-1.13071 -2.62405,0.0362 -4.95693,-0.66706 -6.68037,-2.01389 -1.45654,-1.13824 -7.30849,-4.36741 -13.00433,-7.17594 l -10.35608,-5.1064 -6.64392,6.30057 c -3.65416,3.46532 -7.00379,6.86581 -7.44362,7.55665 -0.43983,0.69085 -1.46729,1.25608 -2.28324,1.25608 -0.81596,0 -3.72324,1.13493 -6.46063,2.52207 -6.57972,3.3342 -20.95441,7.11968 -30.39502,8.00434 -4.17466,0.3912 -7.83534,1.10779 -8.13487,1.59243 -0.54051,0.87456 -3.1635,0.93322 -8.92655,0.19961 z"
           style="fill:#107200" />
      </g>
      <g
         id="1"
         transform="matrix(1.2410555,0,0,1.1937728,-10.032989,421.50218)"
         inkscape:export-filename="D:\Development\website\parmerlanepreschool\logo\g3780.png"
         inkscape:export-xdpi="90"
         inkscape:export-ydpi="90">
        <path
           d="m 145.36229,96.796155 -0.18748,0 -0.12499,0.06249 -0.43746,0 -0.62495,-0.124979 -0.37497,-0.124979 -0.37496,-0.06249 -0.81243,-0.499916 -0.68744,-0.374937 -1.06241,-0.562405 -0.56245,-0.999831 -0.31247,-0.562405 -0.37497,-0.687384 -0.24998,-0.437426 -0.18748,-0.312447 0,-0.06249 -0.24998,0 -0.0625,0.187469 -0.0625,0.249957 0.0625,0.374937 -0.0625,0.249958 -0.0625,0 0,0.06249 0,0.124979 -0.18749,0.124979 -0.24998,0.06249 -0.99991,-0.124979 -0.68744,0 -0.49995,-0.124979 -0.12499,-0.06249 -0.24998,-0.312447 -0.12499,0 -0.12499,0.187468 0,0.499916 0.18748,0.499916 0.18749,0.187468 0.31247,0.249958 0,0.374936 0.24998,0.562405 0.12499,0.499916 0.37496,0.624895 -0.0625,0.06249 0.12499,0.124979 0.37497,0.249958 0.24997,0.06249 0.37497,0.124979 0.37497,0.06249 0.49996,0.124979 0.18748,0.06249 0.12499,0.06249 0.24998,0.187469 0.56245,0.437426 0.74993,0.687384 0.62495,0.499915 0.68744,0.437426 1.49987,0.749867 0.62494,0.18747 0.74994,0.0625 0.68743,-0.0625 0.74994,-0.18747 0.74993,-0.31244 0.74994,-0.437427 0.74993,-0.562405 0.87493,-0.562405 0.18748,0.999831 0.12499,1.062316 0,1.06232 -0.0625,1.12481 -0.18748,2.24962 -0.24998,0.56241 -0.49995,0.68738 -0.18749,0.18747 -0.18748,0.12498 -0.12499,0.24996 -0.0625,0.24995 0.24997,0.37494 0.0625,0.18747 -0.0625,0.24996 -0.31247,0.31244 -0.43746,0.43743 -0.68744,0.5624 -0.56245,0.56241 -0.49996,0.43743 -0.31247,0.49991 -0.31247,0.37494 -0.18749,0.37494 -0.12499,0.31244 0.0625,0.31245 0.18748,0.99983 0.31247,0.74987 0.18749,0.18747 0.43746,0.24996 0.62495,0.12498 0.87492,0.24996 0.81243,0.12498 0.99991,0.31244 1.1249,0.31245 1.31239,0.56241 0.81243,0 0.74993,0.12497 0.62495,0 0.24997,0 0.12499,0 0.0625,0 0.12499,0.0625 0.43746,0 0.37497,0 0.24997,0 0.18749,0 0.37497,-0.12498 0.49995,0.0625 0.56245,0.18747 0.68744,0.43743 0.62495,0.24996 0.12499,0 0.0625,0 0.12499,0.0625 0.37497,0 0.62494,-0.24996 0.74994,-0.49992 0.12499,0.18747 0.31247,0.24996 0.43746,0.12498 0.56245,0.12498 0.56245,0 0.81243,0 0.87492,-0.0625 1.06241,-0.0625 0.68744,-0.18747 0.62495,-0.12498 0.49995,-0.12498 0.43747,0 0.31247,-0.12498 0.24998,0 0.24997,0 0.12499,-0.0625 0.18749,0 0.24997,-0.0625 0,-0.12498 0,-0.0625 0.0625,0 0,-0.12498 0,-0.0625 0.0625,0 -0.37496,-0.0625 -0.18749,0 -0.18748,-0.12498 0,-0.0625 0.24998,-0.0625 0.24998,0 0.43746,0 0.24998,-0.12498 0.18748,-0.12498 -0.43746,-0.24996 -0.31248,-0.18746 -0.18748,-0.12498 0.12499,0 0.0625,0 0.12499,0.0625 0.12499,0 0.0625,0 0.12499,0.0625 0.24997,-0.12498 0.0625,-0.12498 0.12499,-0.0625 0.0625,-0.24996 -0.0625,-0.12498 -0.18749,-0.12498 -0.18748,0 -0.37497,-0.0625 -0.18748,0 -0.12499,0 0,-0.0625 0.0625,0 0.12498,0 0.24998,0 0.37497,0 0.24998,-0.12497 0,-0.0625 0.0625,0 0.12499,0 0.0625,-0.12498 0,-0.12498 -0.0625,-0.12498 0,-0.0625 -0.12499,-0.12498 -0.87492,0 -0.49996,0 -0.31247,-0.12498 -0.0625,-0.0625 0.0625,0 0.18748,-0.12498 0.24998,-0.0625 0.43746,-0.12497 0.12499,-0.12498 0,-0.0625 0.0625,0 0.12499,0 0.18748,-0.12498 0.0625,-0.24996 0,-0.12498 -0.18748,-0.24996 -0.18748,-0.12498 -0.24998,-0.0625 -0.43746,0.12497 -0.68744,0.12498 -0.87493,0.31245 -0.12498,-0.81236 -0.18749,-0.68739 -0.43746,-0.5624 -0.49996,-0.43743 -0.24997,-0.12498 -0.24998,-0.0625 -0.24998,0 -0.43746,-0.12498 -0.24998,-0.0625 -0.18748,0 -0.56246,-0.12498 -0.62494,-0.0625 0.24998,-0.12498 0.12499,-0.12498 0,-0.0625 0.0625,0 0.12499,0 0.18748,-0.24996 0.24998,-0.31245 0.0625,-0.43742 0.0625,-0.31245 -0.0625,-0.24996 -0.12499,-0.18746 -0.74994,-0.37494 -0.31247,-0.18747 -0.18748,-0.12498 -0.31248,-0.18747 -0.31247,0 -0.49995,0 -0.56246,0.12498 0,-1.37477 0,-1.12481 0,-0.93734 0.12499,-0.74987 0.12499,-1.68722 0,-0.687376 0.12499,-0.562405 0,-0.562405 0.12499,-0.312447 0,-0.312448 0.12499,-0.06249 1.31238,0.749873 1.43738,0.499916 1.43737,0.249958 1.56237,0.124979 0.43746,-0.124979 0.56245,-0.187469 0.56245,-0.312447 0.62495,-0.312447 0.62494,-0.499916 0.68744,-0.562405 0.74994,-0.687384 0.81242,-0.749873 0.18749,-0.312447 0.37497,-0.249958 0.43746,-0.312447 0.62494,-0.312448 0.31248,-0.312447 0.43746,-0.249958 1.0624,-0.749873 0.31248,0 0.43746,0.124979 0.12499,-0.06249 0.12499,-0.06249 0,-0.124979 0,-0.187468 -0.12499,-0.249958 -0.12499,-0.124979 -0.24998,-0.124979 -0.18748,0 -0.68744,0 -0.18749,0 0.31248,-0.249958 0.24997,-0.124979 0.18749,-0.06249 0.12499,0 0.24997,0.312447 0.18749,0 0.24998,0.06249 0.12499,-0.06249 0.12498,0 0,-0.124979 0,-0.06249 -0.12498,-0.187468 -0.12499,-0.124979 -0.81243,-0.624895 -0.68744,-0.312447 -0.68744,-0.124979 -0.56245,0.124979 0.24998,-0.312447 0.24997,-0.187469 0.24998,-0.187468 0.12499,-0.312447 -0.0625,-0.124979 -0.24998,-0.06249 -0.43746,0.124979 -0.31248,0 -0.24997,0.187469 -0.49996,0.562405 -0.56245,0.624894 -0.43746,0.562405 -0.31248,0.437426 -0.12499,0.374937 -0.24997,0.187468 -0.31248,0.374937 -0.56245,0.437426 -0.68744,0.624895 -0.56245,0.249958 -0.62494,0.312447 -0.81243,0.312447 -0.81243,0.374937 -0.37497,0.124979 -0.37497,0 -1.62485,-0.499916 -0.81243,-0.687384 -0.74994,-0.437426 -0.68744,-0.312447 -0.56245,-0.187469 -0.56245,-0.06249 -0.43746,0 -0.81243,0 -0.68744,-0.124979 -0.31247,-0.06249 -0.18749,0 0.62495,-0.999832 0.37497,-0.812362 0,-0.06249 0.0625,0 0.12499,-0.06249 0.24998,-0.249958 0.24998,-0.499916 0.24998,-0.749873 0,-0.437426 0.0625,-0.312447 -0.0625,-0.249958 0,-0.124979 -0.12499,-0.124979 -0.12499,0 -0.18749,0 -0.18748,0.187468 0,-0.937341 0.0625,-0.812363 -0.0625,-0.749874 0,-0.624894 -0.18748,-0.624895 -0.12499,-0.499915 -0.24998,-0.437426 -0.24998,-0.312448 -0.87492,-0.812362 -0.74994,-0.562405 -0.87492,-0.374937 -0.81243,-0.187468 -0.87492,-0.06249 -0.87493,0.187468 -0.87492,0.312448 -0.87492,0.562405 -0.81243,0.499915 -0.56245,0.624895 -0.37497,0.562405 -0.0625,0.624894 -0.18749,1.249789 0.0625,1.062321 0.12499,0.812363 0.31247,0.624894 -0.56245,-0.249958 -0.31248,0.124979 -0.18748,0.374937 0,0.249958 0.12499,0.374936 0.12499,0.624895 0.24998,0.562405 0.31247,0.312447 0.43746,0.312447 0.12499,0 0.24998,-0.06249 0.24998,-0.124979 0.31247,-0.187468 0.56245,1.624725 -2.06232,0.312448 -1.56236,0.562405 -0.68744,0.312447 -0.43746,0.374937 -0.68744,0.812362 -0.31248,0.249958 -0.37496,0.374937 -0.62495,0.374937 -0.68744,0.374936 z"
           style="fill:#000000;fill-opacity:1;fill-rule:evenodd;stroke:none"
           id="2"
           inkscape:connector-curvature="0" />
        <path
           d="m 202.35731,50.241516 0.24998,0.562405 0.12498,0.249958 0.0625,0.124979 0.12499,0.187468 0,0.06249 0.0625,0.124979 0.12499,0.249958 0.24998,0.374936 0.12499,0.249958 0.12499,0.249958 0,0.124979 0.0625,0.124979 1.93733,1.187299 -0.62494,0.499916 0.24998,0.187468 0.18748,0.374937 -0.31247,0.06249 -0.18749,0.187469 -0.18748,0.437426 -0.87492,-0.187469 -0.49996,0.562405 -0.62495,0.687384 -0.99991,0.249958 -0.93742,0 0,0.06249 1.06241,1.312278 0.62495,0.812363 0.68744,0.937342 0.68744,0.937341 0.74993,1.1873 0.74993,1.187299 0.87493,1.374768 4.81208,5.061645 3.31221,4.874177 2.18731,1.1873 0.12499,0.124979 0.0625,0.06249 0.12499,0.124979 0.37497,0.374937 0.24997,0.312447 0.31248,0.374937 0.31247,0.624894 0.12499,0.624895 -0.12499,0.499915 -0.31247,0.499916 -0.12499,0 -0.0625,0 0,0.06249 -0.12499,0.124979 -0.24997,0.249958 -0.68744,0.499916 -0.93742,-1.374768 -0.31247,-0.374937 -0.37497,-0.249958 -0.49996,-0.187468 -0.56245,-0.06249 -0.0625,0.249957 0,0.312448 -0.0625,0.499915 -0.12499,0.312447 -0.0625,0.124979 0,0.187469 -0.31247,0.374936 -0.18749,0 -0.31247,-0.624894 -0.24998,-0.687384 -0.24998,-0.874852 -0.18748,-0.937342 -0.24998,-1.062321 -0.24998,-0.812363 -0.31247,-0.687383 -0.37497,-0.562406 -1.68735,-1.249788 -1.49987,-1.1873 -1.31238,-1.12481 -1.06241,-1.062321 -0.99991,-1.06232 -0.74994,-0.999831 -0.56245,-0.937342 -0.37496,-0.874852 -0.31248,-0.187469 -0.18748,0 1.24989,3.936835 -0.31247,5.374093 0.12499,0.687384 0,0.124979 0,0.06249 0.0625,0.124979 0.12499,0.374937 0.0625,0.624894 0.12499,0.624895 0,0.499915 0.0625,0.499916 0,0.437426 0,0.437426 -0.31247,1.1873 -0.37497,1.499747 -0.49996,1.624725 -0.56245,1.937173 -0.0625,0.562405 0.18748,0.687384 0.31247,0.812363 0.49996,1.06232 0.18748,0.374937 0,0.06249 0.0625,0.124979 0.12499,0.249957 0.0625,0.374937 0,0.187468 0.0625,0.249958 -0.0625,0.749874 -0.12499,0.374936 -0.12499,0.437426 0.18749,0.562405 0.37496,0.749874 0.49996,0.812363 0.74993,0.937341 0.31248,0.874853 0.37496,1.187299 0.37497,1.374768 0.37497,1.624726 0.18748,0.24995 0.31247,0.31245 0.43747,0.31245 0.62494,0.37494 0,1.7497 1.81234,1.31228 0,0.0625 0.0625,0.37493 0,0.49992 -0.18749,0.43743 -0.18748,0.49991 0.0625,0.56241 0.12498,0.81236 0.18749,0.99983 0.31247,1.31228 -0.12499,0.18747 -0.43746,0 -0.49996,0.0625 -0.56245,0 -0.62494,0.12498 -0.74994,0 -0.43746,0 -0.37497,0.0625 -1.87483,0.12497 -1.06241,-0.0625 -0.93742,0 -0.81243,-0.0625 -0.68744,0 -0.68744,-0.12498 -0.43746,0 -0.43746,-0.12498 -0.18748,0 -0.31248,-0.31245 -0.18748,-0.43743 0,-0.12497 0.12499,-0.0625 0.18748,-0.12498 0.31248,-0.12498 0.24997,-0.24996 0.43747,-0.24996 0.43746,-0.31244 0.56245,-0.24996 0.37497,-0.56241 0.37496,-0.43742 0.31248,-0.37494 0.37496,-0.18747 -0.12499,-0.5624 -0.18748,-0.49992 -0.24998,-0.62489 -0.24998,-0.56241 -0.37496,-0.68738 -0.43747,-0.6249 -0.49995,-0.68738 -0.49996,-0.6249 -0.93742,-0.5624 -0.68744,-0.49992 -0.56245,-0.499909 -0.31247,-0.374936 -0.49996,0 -0.49995,0.999825 -0.68744,1.1873 -0.99991,1.1873 -1.12491,1.37477 -0.18748,0.49992 -0.0625,0.74987 -0.0625,0.87485 0.0625,1.1873 -0.87493,0.12498 -0.74993,0.0625 -0.68744,-0.0625 -0.56245,-0.12498 -0.56245,-0.31245 -0.37497,-0.31244 -0.37497,-0.43743 -0.18748,-0.56241 -0.74994,-0.18746 -0.62494,-0.12498 -1.06241,-0.31245 -0.87492,-0.37494 -0.62495,-0.37493 -0.43746,-0.49992 -0.12499,-0.24996 0,-0.18746 0,-0.49992 0.37497,-0.49992 0.37497,-0.43742 0.62494,-0.31245 0.37497,-0.12498 0.49995,0 1.1874,0.0625 0.0625,-0.24996 0.12498,-0.18746 0.24998,-0.6249 0.24998,-0.874849 0.24998,-0.999831 0.0625,-0.499915 0.18749,-0.374937 0.43746,-0.687384 0.62494,-0.562405 0.81243,-0.312447 0,-0.249958 0.12499,-0.312447 0.12499,-0.749874 0,-0.499915 0,-0.312448 0.0625,-0.249957 0,-0.624895 0,-0.374937 0,-0.187468 0.0625,-0.124979 -0.0625,-0.749873 0,-0.624895 -0.0625,-1.06232 -0.12499,-0.874853 -0.12499,-0.624894 -0.62494,-1.812194 -0.49996,-1.687215 -0.49995,-1.562236 -0.37497,-1.437258 -0.37497,-1.437257 -0.31247,-1.1873 -0.31247,-1.187299 -0.18749,-0.999831 0.56245,-3.061983 0.12499,-2.374599 -0.0625,-1.12481 -0.12499,-1.062321 -0.24998,-1.12481 -0.31247,-1.062321 -0.87493,-1.999662 0,-0.249958 -0.24997,0 -5.06206,6.311435 -0.18749,0.06249 -0.24997,0.187468 -0.43746,0.312448 -0.49996,0.437426 -0.74994,0.499915 -0.81242,0.687384 -1.06241,0.687384 -1.1249,0.937342 -1.56237,1.12481 -0.62494,0.562405 -0.49996,0.624894 -0.87492,1.124811 -0.43746,1.249789 -0.43747,0.06249 -0.68744,-0.499916 -0.31247,-0.249957 -0.18748,-0.187469 -0.31247,-0.499915 -0.12499,-0.249958 0,-0.187468 -0.0625,-0.312448 0.0625,-0.249958 0.24997,-0.499915 0.37497,-0.624895 0.56245,-0.562405 1.93733,-1.12481 0.74994,-1.06232 0.81243,-0.937342 0.68744,-0.937342 0.74993,-0.749873 0.62495,-0.812363 0.62494,-0.624894 0.49996,-0.624895 0.56245,-0.499916 1.24989,-1.187299 1.06241,-0.999831 0.87492,-0.937342 0.68744,-0.687384 0.0625,-0.249958 0.18749,-0.249957 0.18748,-0.374937 0.24998,-0.437426 0.24998,-0.562405 0.31247,-0.624895 0.37497,-0.749873 0.43746,-0.812363 0.49996,-0.937342 0.74993,-0.874852 0.93742,-0.812363 1.18739,-0.749873 0.93742,-0.687384 0.87493,-0.437426 0.68744,-0.312447 0.31247,-0.124979 0.31247,0 0.12499,-0.374937 0,-0.187468 0.0625,-0.124979 -1.1874,-0.124979 -0.49996,-0.06249 -0.37496,0 -0.43747,-0.124979 -0.31247,-0.06249 -0.49996,-0.124979 -0.37496,-1.249789 -0.24998,-1.06232 -0.31247,-1.937173 -0.12499,-0.874853 0,-0.687384 0,-0.687384 0.12499,-0.437426 0.18748,-0.874852 0.31247,-0.687384 0.43746,-0.687384 0.62495,-0.562405 0.68744,-0.562405 0.81243,-0.374937 0.93742,-0.374936 1.18739,-0.249958 1.37488,-0.312447 0.62495,-0.124979 0.68744,0 1.18739,0.06249 0.49996,0.06249 0.56245,0.187468 0.99991,0.374937 0.43747,0.249958 0.49995,0.374936 0.81243,0.812363 0.74994,1.12481 0.31247,0.687384 0.43746,0.937342 0.49996,1.06232 0.56245,1.249789 z"
           style="fill:#000000;fill-opacity:1;fill-rule:evenodd;stroke:none"
           id="3"
           inkscape:connector-curvature="0" />
        <path
           d="m 26.997639,62.989364 -0.124989,0 -0.124989,0.06249 -0.437461,0 -0.437462,0 -0.437462,0.374937 -0.187484,0.06249 -0.06249,0.06249 -0.124989,0.187468 -0.06249,0 0,0.06249 0,0.124979 -0.124989,0 -0.06249,0 0,0.06249 -0.124989,0.06249 -0.249978,-0.124978 -0.187484,0 -0.249978,0.06249 -0.187484,0.187468 0,0.249958 -0.124989,0.249958 -0.249978,0.06249 -0.249978,0.124979 -0.624946,0.249958 -0.187483,0.124979 -0.249978,-0.06249 -0.0625,0.249958 0.0625,0 -0.124989,0.06249 0,0.124979 -0.06249,0 0,0.06249 0,0.124979 0,0.06249 -1.062407,0.562405 0,0.312448 0,0.249957 -0.06249,0 0,0.06249 0,0.124979 0,0.06249 -0.124989,-0.124979 0,-0.187468 -0.187483,-0.06249 -0.0625,0.187468 0.0625,0.187468 0.187483,0.437426 0.187484,0.06249 0,0.312447 -0.124989,0.187468 -0.124989,0.312448 -0.374967,0.687384 -0.06249,0.124979 -0.249978,0.249957 0.249978,1.812194 -0.187484,0.437426 -0.187483,0.249958 -0.124989,0.374937 -0.06249,0.06249 -0.374967,0.06249 0.312473,0.437426 -0.0625,0 -0.06249,0 -0.124989,-0.06249 -0.06249,0 -0.124989,0 0.124989,0.249957 0.06249,0.124979 0.124989,0.187469 0.124989,0.249957 0.06249,0.124979 0.124989,0.187469 0.249978,0.312447 0.12499,0.124979 0.06249,0.06249 0.124989,0.124979 0,0.06249 0.06249,0 0.06249,0 0,-0.124979 -0.06249,0.06249 0,-0.06249 0.124989,0 0.06249,0.124979 -0.06249,0.06249 0.124989,-0.06249 0.187483,0.187468 0.187484,0.124979 -0.187484,-0.06249 0.12499,0.249958 0.124989,0.187468 -0.812429,0.06249 -0.562451,0.312447 -0.249978,0.187468 -0.124989,0.312448 -0.06249,0.749873 -0.06249,0.249958 0,0.312447 -0.06249,0.249958 0,0.312447 -0.124989,0.312447 -0.0625,0.124979 0,0.187469 -0.68744,0.687384 -0.874923,0.812362 -1.124902,0.812363 -1.312385,0.999831 -0.437462,0.312448 -0.499956,0.437426 -0.749934,0.437426 -0.812429,0.499916 -0.437462,0.249957 -0.374967,0.374937 -0.749935,0.874852 -0.374967,0.249958 -0.312473,0.374937 -0.8124286,0.812363 -0.4999563,0.437426 -0.4374618,0.562405 -0.937418,1.187299 -0.1874836,0 -0.1249891,0.06249 -0.1874836,0 -0.1249891,0.06249 -0.4374617,0 -0.3124727,0 -0.2499781,0.06249 L 5.1870745,89.047474 4.43714,88.984984 3.499722,88.860005 2.562304,88.735026 l 0.062494,0.187469 0.3124727,0.249958 0.4999563,0.249957 0.7499344,0.249958 -1.4373743,-0.124979 -0.5624508,0 -0.4374618,0.06249 -0.3749672,0.06249 -0.1249891,0.124979 0,0.124979 0.2499782,0.187468 0.3749672,0.124979 0.6874399,0.06249 -0.4999563,0.06249 -0.3124727,0 -0.2499781,0 -0.2499782,0.187468 -0.062494,0.187469 0.062494,0.124979 0.1874836,0.124979 0.2499782,0.06249 0.6249453,0.124979 -0.2499781,0.06249 -0.1249891,0.06249 -0.062494,0.187468 -0.062495,0.124979 0.062495,0.124979 0.1874836,0.06249 0.3124727,0.124979 1.3748798,0.249958 0.062495,0 0.1874836,0.06249 0.4999563,0.124978 0.6249453,0.124979 0.8749235,0.124979 -0.6249453,0.687384 -0.3124727,0.312447 -0.062494,0.374937 -0.1874836,0.312447 0.062495,0.249958 0.1874836,0 0.3124727,-0.124979 1.1249016,-0.999831 0.6874399,-0.749873 0.6874399,-0.562405 0.5624508,-0.499916 0.4374618,-0.312447 2.4372874,-2.31211 0.499956,-0.624894 0.624946,-0.562405 1.437374,-1.12481 1.687352,-1.12481 1.999826,-1.12481 -0.312473,0.874852 -0.249978,1.06232 -0.374967,1.124811 -0.374968,1.312278 -0.249978,0.812363 -0.124989,1.249789 -0.124989,0.249958 -0.187484,0.374936 -0.312472,0.437426 -0.374967,0.624895 -0.562451,1.374768 -0.374968,1.437257 -0.187483,1.499747 -0.0625,1.499747 0,0.749873 0.0625,0.93734 0.124989,1.12481 0.249978,1.37476 0.312473,2.68705 0.124989,0.74987 0,0.12498 0,0.0625 0.06249,0.12498 0.124989,0.31245 0.12499,0.37494 0.06249,0.0625 0.124989,0.0625 0.68744,-0.12497 0.624945,-0.0625 0.499957,0 0.437461,0.0625 0,0.12497 0,0.0625 0.0625,0.12498 0.124989,0.37494 0.124988,0.5624 0,0.37494 0,0.18747 -0.187483,0 -0.312473,0 -0.249977,-0.0625 -0.249978,0 -0.12499,-0.0625 -0.06249,0 -0.124989,0 -0.249978,0 -1.312386,-0.0625 -1.187396,0.12498 -0.749934,0.12498 -0.562451,0.18747 -0.562451,0.12498 -0.312472,0.18746 -1.062408,0.24996 -0.8124291,0.24996 -0.8124289,0.18747 -0.6249454,0.18747 -0.5624508,0.0625 -0.4374617,0.0625 -0.3749673,0 -0.1874836,0.0625 0.1874836,-0.24996 0.1249891,-0.18747 0,-0.12498 -0.062495,-0.0625 -0.1249891,-0.0625 -0.1249891,0.0625 -0.1874836,0.12498 -0.1874836,0.24996 -0.6249453,-0.18747 -0.2499782,0 -0.4999563,0.0625 -0.3749672,-0.0625 -0.4999563,-0.0625 -0.4374617,0.18747 -0.6874399,0.49991 -0.1874836,0.49992 -0.1249891,0.43743 0,0.5624 0,1.56224 0.062494,0.62489 0.1874836,0.87485 -0.062495,1.56224 0.1874836,1.93717 0.062495,0.6249 0.1249891,0.5624 0.1249891,0.43743 0.1874836,0.43742 0.1249891,0.24996 0.2499781,0.18747 0.2499782,0.0625 0.3124726,0 0.062495,-0.12498 0.124989,-0.0625 0.2499782,-0.12498 0.3749672,-0.31244 0.062495,-0.24996 0.1249891,-0.18747 0,-0.18747 0.062495,-0.12498 0.1249891,-0.24996 0.1874836,-0.5624 0.1874836,-0.43743 0.1249891,-0.37493 0.062494,-0.18747 0,-0.31245 0.1874836,-0.37494 0.1874837,-0.49991 0.3749672,-0.56241 0.3124727,-0.43742 0.1874836,-0.31245 0.062495,-0.31245 0.062494,-0.18747 -0.062494,-0.37493 0.1249891,-0.31245 0.3124726,-0.31245 0.4374618,-0.24995 0.5624508,-0.24996 0.6874399,-0.18747 0.8749232,-0.12498 1.062408,-0.0625 0.624945,-0.12498 0.812429,0 0.937418,-0.0625 1.124902,0 3.374704,-0.31244 0.624946,-0.0625 0.624945,-0.0625 0.499956,-0.12498 0.499957,-0.0625 0.374967,-0.24996 0.374967,-0.18747 0.249978,-0.24996 0.312473,-0.24995 0.249978,-0.6249 0.0625,-0.37493 0.124989,-0.31245 0.124989,-0.87485 0,-0.49992 0,-0.24996 0,-0.12498 0,-0.0625 0.06249,0 0.06249,-1.56223 0.499956,-0.18747 0.437462,-0.12498 0.312473,-0.12498 0.249978,-0.0625 0.562451,-0.24996 0.499956,-0.18746 0.874923,-0.18747 0.499957,-0.0625 0.374967,0.0625 1.812341,1.68721 0,0.18747 0,0.18747 0.0625,0.31245 -0.0625,0.31244 0,0.43743 -0.06249,0.43743 0,0.62489 -0.06249,0.74987 0.187484,1.12481 0.187484,1.24979 0.374967,1.62473 0.124989,0.68738 0.187483,0.74988 0.12499,0.68738 0,0.12498 0,0.0625 0.06249,0.12498 0.124989,0.37493 0,0.56241 0.06249,0.62489 0,0.49992 0,0.24996 0,0.12498 0,0.0625 0.06249,0.12497 -0.249978,-0.12497 -0.187484,0 0,0.12497 0.06249,0.12498 0.249978,0.24996 -0.249978,0.18747 -0.124989,0.43743 -0.06249,0.5624 0,0.68738 0,0.56241 0,0.49991 0,0.24996 0.06249,0.18747 0.499956,0.0625 0.562451,0.12498 0.187484,0 0.249978,0.0625 0.499956,0.12498 0.812429,0.12498 0.68744,0.12498 0.437462,0 0,-0.0625 0.06249,0 0.124989,0 0.249978,0 0.187484,-0.12498 0.124989,-0.12498 0.937418,-0.0625 0.249978,-0.0625 0.312473,0 0.562451,0 0.499956,-0.0625 0.499956,0 0.812429,-0.12498 0.374968,-0.0625 0.374967,0 0.249978,-0.12498 0.249978,-0.0625 0.187484,-0.12498 0,-0.0625 0.06249,0 0.124989,0 0.187484,-0.24995 0.06249,-0.12498 0,-0.0625 0.06249,0 -0.124989,-0.43743 -0.124989,-0.31244 -0.187484,-0.31245 -0.187483,-0.18747 -0.312473,-0.24996 -0.312473,-0.12498 -0.437462,-0.12498 -0.374967,0 -0.499956,-0.12497 -0.437462,-0.12498 -0.562451,-0.24996 -0.499956,-0.24996 -0.812429,-0.81236 -0.624945,-0.37494 -0.374967,0.0625 -0.249979,-0.0625 -0.187483,-0.12498 -0.0625,-0.18747 -0.187483,-0.81236 0.06249,-0.87485 -0.06249,-1.31228 0,-1.06232 0,-1.81219 -0.06249,-0.81237 0,-0.62489 0,-0.56241 0,-0.31244 -0.249978,-1.06232 -0.124989,-0.87486 -0.06249,-0.74987 0.06249,-0.56241 -0.06249,-1.06232 -0.124989,-0.93734 -0.187483,-0.43742 -0.124989,-0.31245 -0.312473,-0.56241 -0.249978,-0.24995 -0.124989,-0.18747 -0.0625,-0.12498 -0.312472,-0.37494 -0.249979,-0.43742 -0.374967,-0.56241 -0.374967,-0.62489 -0.437462,-0.74988 -0.437462,-0.749865 -0.687439,-1.1873 -0.437462,-0.812362 -0.312473,-0.562405 -0.06249,-0.124979 -0.187484,-0.687384 -0.312473,-0.499916 -0.437461,-0.437426 -0.499957,-0.312447 0.124989,-0.937342 0.124989,-0.687384 0,-0.499915 0,-0.312448 -0.187483,-0.687384 -0.06249,-0.687384 -0.06249,-0.562405 0.06249,-0.374936 0.124989,-0.249958 0.249978,0 0.0625,0.06249 0.124989,0.312448 0.124989,0.499915 0.249978,0.812363 0.249978,0.687384 0.437462,0.937342 0.562451,1.06232 0.68744,1.1873 0.06249,0.374936 0.12499,0.437427 0,0.124979 0,0.06249 0.06249,0.124979 0.124989,0.312447 0.124989,0.374937 0,0.06249 0.06249,0.124979 0.562451,0.624895 0.812429,0.687384 1.624857,1.437255 0.12499,0.0625 0.187483,0.12498 0.124989,0.0625 0.187484,0.12498 0.187483,0.12498 0.249979,0.12498 0.06249,0 0.124989,0 0,-0.12498 0,-0.0625 0.06249,0 -0.812429,-0.937344 -0.312473,-0.374936 -0.124989,-0.249958 -0.124989,-0.249958 -0.124989,-0.187468 -0.06249,-0.249958 -0.187483,-0.374937 -0.124989,-0.374937 -0.249979,-0.499915 -0.187483,-0.499916 -0.124989,-0.312447 -0.124989,-0.312447 -0.124989,-0.437426 -0.124989,-0.499916 -0.187484,-0.624894 -0.124989,-0.687384 -0.124989,-0.437426 -0.06249,-0.374937 -0.124989,-0.874852 -0.437462,-2.31211 -0.124989,-0.249958 -0.06249,-0.249958 -0.124989,-0.374936 -0.0625,-0.374937 -0.374967,-0.999831 -0.249978,-0.562405 -0.124989,-0.312447 -0.06249,-0.249958 -0.06249,-1.062321 0,-0.812363 -0.0625,-0.687384 0,-0.562405 0.124989,-1.249789 0.187484,-1.06232 0.124989,-0.999831 0.0625,-0.687384 -0.0625,-0.312448 0,-0.187468 -0.06249,-0.187468 -0.874923,-0.874853 -0.499956,-0.687383 0.249978,0 0.06249,0 0.124989,0.06249 0.249979,0.124979 0.624945,0.499915 0.749934,0.312448 0.187484,-0.124979 0.437462,-0.187469 0.562451,-0.374936 0.312472,-0.249958 0.437462,-0.249958 0.749934,-0.874852 0.499957,-0.687384 0.374967,-0.499916 0.06249,-0.312447 0.12499,-0.374937 0.124989,-0.562405 0.124989,-0.562405 -0.249978,-0.124978 0.124989,-0.124979 0.312472,-0.187469 0.312473,-0.249958 0.499956,-0.312447 -0.06249,0.124979 -0.124989,0.312447 0.06249,-0.124979 0.124989,-0.06249 0.06249,-0.124979 0.124989,-0.06249 0,0.374936 -0.187484,0.499916 0.06249,0.437426 0,0.499916 -0.249978,0.812363 -0.624946,0.499915 0.187484,0 0.187483,0 0,-0.06249 0.0625,0 0.124989,-0.124979 0.374967,-0.812363 0.06249,-0.437426 0.124989,-0.312447 0.249978,-0.499916 0.0625,-0.06249 0.06249,-0.187469 0.06249,-0.249958 0.124989,-0.06249 0.06249,-0.06249 0.124989,0.06249 0,-0.187468 0.249978,-0.124979 0.06249,-0.06249 0.06249,0.06249 0,0.124979 0,0.249957 -0.12499,0 0.06249,0.06249 0.187484,0.187468 0.249978,-0.499915 0.187483,-0.374937 0.06249,-0.312447 0.06249,-0.187469 -0.124989,0.124979 -0.249978,0.187469 -0.124989,-0.06249 0.0625,-0.06249 0.06249,-0.187469 0.249978,-0.187468 0.124989,0.124979 -0.06249,-0.124979 -0.06249,-0.124979 0,-0.187468 0,-0.312448 0,-0.374936 -0.124989,-0.249958 -0.06249,-0.249958 -0.06249,-0.187468 -0.124989,-0.124979 0,-0.06249 0.124989,-0.124979 0.124989,-0.312448 0.187484,-0.499915 0,-0.124979 -0.06249,-0.06249 0.06249,0.06249 0,-0.749873 0.06249,-0.187469 -0.312472,-0.187468 0.06249,0.124979 -0.06249,0 -0.124989,0.06249 -0.124989,-0.06249 -0.0625,0 -0.249978,-0.06249 0.249978,-0.187468 -0.187484,0 -0.06249,-0.06249 -0.249978,0.124979 -0.124989,0.06249 -0.06249,-0.124979 0.06249,-0.249958 0.124989,-0.06249 -0.187484,-0.187469 0.06249,-0.124979 -0.06249,-0.124978 0,-0.06249 -0.124989,-0.124979 -0.124989,-0.124979 -0.124989,-0.124979 -0.06249,-0.06249 -0.124989,-0.124979 -0.749934,-0.562405 -0.124989,-0.187468 -0.124989,0 0,0.06249 -0.624946,-0.249958 -0.187483,-0.124979 -0.124989,-0.06249 -0.06249,0 -0.187483,-0.124979 -0.124989,-0.06249 -0.374968,-0.187469 -0.437461,-0.249957 -0.374968,-0.249958 -0.56245,-0.312448 -0.437462,-0.187468 -0.812429,-0.249958 -1.499869,0 -0.187484,0 -0.249978,0 -0.249978,-0.06249 -0.249978,0 -0.124989,-0.06249 -0.0625,0 -0.124989,0 -0.249978,0 -0.06249,0 0,0.124979 -0.12499,0.06249 z m -5.999475,3.874346 0.0625,-0.06249 -0.0625,0.187468 -0.06249,-0.06249 0.06249,-0.06249 z m 0.124989,0.999831 -0.06249,-0.06249 0,-0.124979 0.187483,0 -0.06249,0.124979 -0.0625,0 0,0.06249 z m -0.749934,4.624219 -0.124989,-0.06249 0,-0.06249 0.124989,-0.06249 0,0.187468 z m 1.749847,1.062321 0.124989,-0.249958 0.124989,-0.06249 0,-0.06249 0.06249,0.187468 -0.06249,0 0,0.06249 0,0.124979 0,0.124978 -0.06249,0 0,0.06249 -0.187483,-0.187468 z m -2.06232,0.374936 -0.0625,0.124979 -0.06249,-0.06249 0.06249,-0.187469 0.0625,0.124979 z m 0.874924,-0.812363 0.124989,-0.06249 0.06249,0.06249 0,0.124979 -0.187483,-0.06249 0,-0.06249 z m 0.374967,2.374599 0,-0.187468 0,-0.06249 0.06249,0 0.124989,-0.124979 0,-0.124979 0.249978,-0.124979 0.374968,0.187468 0.499956,-0.187468 0.249978,0.124979 0,-0.06249 0.124989,0.124979 0,0.06249 0.124989,0.06249 0,0.06249 -0.249978,0.06249 -0.312473,0.124979 -0.187483,0 -0.249978,0 -0.312473,0 -0.374967,0.06249 -0.124989,0 z m 2.062319,-1.624725 0.124989,0 0,0.249958 -0.187483,-0.06249 0.06249,-0.124979 0,-0.06249 z m 0.187484,0.187468 0.124989,-0.06249 0.0625,0 -0.0625,0.124979 -0.124989,-0.06249 z m -0.187484,0.749874 -0.124989,0.124978 -0.124989,-0.06249 -0.06249,-0.06249 0.06249,-0.124979 0.187484,0 0.06249,0.124979 z m 11.811468,-3.374431 0.124989,-0.06249 0.124989,0.124979 0,0.06249 0.06249,0.124979 -0.06249,0 0,0.06249 -0.124989,0.124978 0.06249,0.124979 -0.124989,-0.06249 -0.187483,0 0.187483,-0.06249 -0.249978,0 0.249978,-0.249957 0,-0.124979 -0.06249,-0.06249 z"
           style="fill:#000000;fill-opacity:1;fill-rule:evenodd;stroke:none"
           id="4"
           inkscape:connector-curvature="0" />
        <path
           d="m 36.246831,66.738731 0.249978,0.249957 0.06249,-0.312447 0.06249,-0.06249 -0.187484,-0.06249 -0.187483,0.187469 z"
           style="fill:#000000;fill-opacity:1;fill-rule:evenodd;stroke:none"
           id="5"
           inkscape:connector-curvature="0" />
        <path
           d="m 153.98654,1.7497046 -0.87493,0.4999155 -0.68744,0.4999156 -0.62494,0.3749367 -0.49996,0.3749367 -0.49995,0.2499578 -0.37497,0.2499578 -0.31247,0.1249789 -0.12499,0.1249789 0,-0.4374262 0,-0.2499578 -0.0625,-0.1874683 -0.12499,0 -0.24998,-0.062489 -0.24997,0.1874683 -0.31248,0.1874683 -0.37496,0.3749367 -0.49996,0.2499578 -0.37497,0.3124473 -0.31247,0.2499578 -0.18748,0.3124472 -0.24998,0.1249789 -0.12499,0.1874683 -0.0625,0.1249789 0.0625,0.1249789 -0.24998,-0.1874683 -0.31247,-0.1249789 -0.62495,0.7498734 -0.62494,1.0623206 -0.74994,1.3122784 -0.74993,1.6872152 -0.12499,0.124978 -0.12499,0.312448 -0.18748,0.312447 -0.18749,0.499915 -0.31247,0.499916 -0.24998,0.687384 -0.37496,0.749873 -0.31248,0.937342 -0.49995,0.749873 -0.37497,0.687384 -0.37497,0.562405 -0.31247,0.499916 -0.37497,0.312447 -0.24998,0.312448 -0.24997,0.187468 -0.24998,0.06249 -0.93742,1.874684 -0.43746,0.874852 -0.37497,0.812363 -0.74993,1.374768 -0.56245,1.12481 -0.56246,0.749873 -0.24997,0.312447 -0.18749,0.249958 -0.37496,0.249958 -0.18749,0 -0.12499,-0.124979 -0.12499,-0.06249 -0.0625,0 -0.18748,-0.124979 -0.12499,-0.06249 -0.0625,0 -0.24998,-0.124979 -0.12499,-0.06249 -0.0625,0 -0.0625,-0.874852 -0.12499,-0.749874 -0.37497,-0.874852 -0.24998,-0.437426 -0.18748,-0.374937 -0.37497,-0.499915 -0.18748,-0.249958 -0.12499,-0.187469 -0.74994,-0.874852 -0.93741,-0.999831 -1.06241,-0.874852 -0.43746,-0.374937 -0.37497,-0.249958 -0.87492,-0.312447 -0.99992,-0.187468 -0.99991,0.06249 -1.06241,0.187468 -0.93741,0.374937 -0.74994,0.562405 -0.56245,0.812363 -0.43746,0.499916 -0.37497,0.374936 -0.37497,0.187469 -0.24997,0.06249 -0.24998,-0.187468 -0.18749,-0.249958 -0.18748,-0.499916 -0.0625,-0.562405 -0.12499,-0.187468 -0.0625,-0.124979 0,-0.06249 0,-0.124979 -0.18748,-0.374937 -0.12499,-0.249958 -0.0625,-0.124979 0,-0.06249 -0.12499,-0.187468 -0.0625,-0.124979 -0.12499,-0.249958 -0.31247,-0.624895 -0.37497,-0.749873 -0.37496,-0.812363 -0.56246,-1.06232 -0.24997,-0.437427 -0.12499,-0.312447 -0.18749,-0.562405 0,-0.312447 -0.12499,-0.749873 -0.12498,-0.374937 -0.18749,-0.249958 -0.43746,-0.6873835 -0.12499,-0.562405 -0.31247,-0.562405 -0.18748,-0.3749367 -0.12499,-0.3749367 0,-0.1874684 0.18748,-1.0623206 0.18748,-0.9373417 0.12499,-0.8123628 0.12499,-0.6248945 0,-0.562405 0,-0.4374262 -0.12499,-0.3124472 -0.0625,-0.1249789 -1.1249,1.812194 -0.18749,0.1249789 -0.12499,0.1249789 -0.24997,0.1874683 -0.24998,0.06249 -0.24998,-0.06249 -0.12499,-0.1249789 -0.0625,-0.062489 -0.12499,-0.1249789 -0.24998,-0.3124473 -0.24998,-0.4999156 -0.24998,-0.562405 -0.37497,-0.6873839 -0.24997,-0.5624051 -0.24998,-0.3749366 -0.12499,-0.1874684 -0.18748,-0.062489 -0.0625,0.062489 -0.0625,0.2499578 0.0625,0.4374261 0,0.4999156 0.0625,0.4374262 0.12498,0.7498733 0.0625,0.2499578 0.12499,0.1874684 0.24998,0.2499578 -0.18749,-0.1249789 -0.12499,-0.062489 -0.24997,-0.3124472 -0.37497,-0.4999156 -0.37497,-0.6248945 -0.43746,-0.6873839 -0.31247,-0.3749367 -0.31248,-0.2499578 -0.18748,0.06249 -0.18748,0.1249789 -0.0625,0.2499577 0,0.2499578 0.18749,0.4374262 0.18748,0.4374261 0.43746,0.562405 0.43746,0.6248945 0.62495,0.7498734 -0.12499,0 -0.0625,0 -0.18748,-0.1249789 -0.18748,-0.1249789 -0.12499,-0.1249789 -0.0625,-0.062489 -0.12499,-0.1249789 -0.24997,-0.3124473 -0.37497,-0.4374261 -0.37497,-0.4999156 -0.24998,-0.3124472 -0.12498,-0.1874684 -0.12499,-0.062489 0,0.062489 0,0.1874684 0.12499,0.3124472 0.12498,0.4374261 0.24998,0.5624051 0.12499,0.4374261 0.18749,0.3749367 0.12498,0.3124473 0.0625,0.1249788 0.12499,0.1874684 0.12499,0.1874683 0.12499,0.1249789 0.12498,0.062489 0.0625,0 0.12499,0.062489 -0.24998,0 -0.31247,0 -0.37497,-0.1249789 -0.37497,-0.1249789 -0.56245,-0.3124472 -0.43746,-0.062489 -0.31247,-0.062489 -0.0625,0.1249789 -0.0625,0 0.18748,0.1874683 0.31248,0.2499578 0.43746,0.3749367 0.56245,0.3749367 0.68744,0.4999156 0.81243,0.562405 0.99991,0.7498734 0.0625,0.3124473 0.12499,0.4999155 0.0625,0.5624051 0.12499,0.6873834 0.0625,0.249958 0.24998,0.374937 0.24998,0.374936 0.43746,0.499916 0.0625,0.687384 0.18749,0.812363 0.24998,0.874852 0.43746,0.999831 0.12499,0.374937 0,0.06249 0.0625,0.124979 0.12499,0.249958 0.37497,0.812363 0.62494,1.437257 0.24998,0.624895 0.31247,0.624894 0.49996,1.062321 0.37497,0.812363 0.12499,0.312447 0.18748,0.374937 0,0.06249 0.0625,0.124979 0.12499,0.249958 0.0625,0.124979 0.12499,0.187468 0.81243,1.499747 0.74993,1.624725 0.68744,1.624726 0.62495,1.624726 0.99991,3.124472 0.37497,1.562236 0.37496,1.624726 0.0625,1.312278 0.0625,1.562237 -0.0625,0.812362 0,0.937342 -0.18749,2.062152 -0.24997,1.249789 -0.12499,1.12481 -0.12499,0.937342 -0.0625,0.874852 -0.12499,0.624894 0,0.499916 0,0.312447 0.0625,0.249958 0.0625,0.06249 0.31248,0.124979 0.43746,0 0.62494,0.124979 0.74994,0 0.99991,0 0.49996,-0.06249 0.62494,0 1.31239,0 0.18748,0 0.24998,0.124979 0.12499,0.187468 0.18748,0.312447 0.0625,0.249958 0.0625,0.437426 0,0.437426 0,0.562405 0.0625,0.187469 0,0.249958 -0.12499,0.249957 -0.18748,0.312448 0,0.249957 0,0.249958 0.0625,0.437426 0,0.937342 0,0.624895 0.0625,0.749873 -0.0625,0.874852 -0.0625,1.062321 -0.12499,1.187299 -0.0625,1.312279 -0.24998,1.374768 -0.18748,1.562236 -0.31248,1.687215 -0.24997,1.812194 -0.12499,1.12481 -0.0625,0.624894 0,0.812363 -0.12499,1.749705 0,1.999662 -0.12499,0.312447 -0.12499,0.499916 -0.12498,0.249958 -0.0625,0.374936 -0.24998,0.812363 0.56245,3.061983 0,0.249958 0,0.562405 0,0.749873 0.12499,0.999832 0,1.12481 0.12499,1.374768 0.0625,1.562236 0.12499,1.874683 0,0.687384 0,0.624895 0,0.562405 0,0.249957 0,0.124979 0,0.06249 0.0625,0.124979 0,0.437426 0,0.374937 0,0.624894 -0.0625,0.312447 0.12498,0.437426 0.43747,0.937342 0.12499,0.249958 0.12498,0.249958 0,0.06249 0.0625,0.124979 0,0.187468 -0.12499,0.06249 -0.12499,0.187468 -0.37497,0.562405 -0.56245,0.812363 -0.56245,0.999831 -0.37497,0.249958 -0.24997,0.06249 -0.18749,0.124979 -0.49995,0.124979 -0.56245,0.124979 -0.87493,0 -0.62494,0.187468 -0.43746,0.312448 -0.18749,0.437426 -0.0625,0.437426 0.24998,0.499916 0.43746,0.499915 0.74993,0.499916 0.68744,0.312447 0.81243,0.249958 0.81243,0.124979 0.99991,0.06249 0.56245,-0.124979 0.81243,0 0.93742,-0.124979 1.06241,0 0.37496,0 0.74994,0.06249 0.93742,0.124979 1.24989,0.249957 0.49995,-0.06249 0,-0.06249 0.0625,0 0.12499,0 0.24997,0 0.37497,-0.124979 0.31247,-0.124979 0.18749,-0.249958 0.12499,-0.249958 0.0625,-0.374936 0,-0.312448 -0.12499,-0.687384 0.0625,-0.499915 0.0625,-0.312447 0.18749,-0.124979 0.12498,-0.187469 0.12499,-0.187468 0,-0.187468 0.0625,-0.124979 0.0625,-0.374937 -0.0625,-0.499916 0,-0.499915 -0.0625,-0.624895 -0.0625,-0.624894 -0.43746,-1.437257 -0.24998,-1.062321 -0.18748,-0.812363 -0.0625,-0.374937 -0.68744,-4.374261 -0.43746,-4.249282 -0.24998,-1.124811 -0.12499,-0.937341 -0.18748,-1.687215 -0.0625,-1.437258 0.0625,-1.06232 0.12499,-1.1873 0.24998,-1.312278 0.31247,-1.437258 0.43746,-1.437257 0.43746,-1.624725 0.56245,-1.687216 0.56245,-1.812194 0.74994,-1.937172 0.31247,-0.937342 0.43746,-0.812363 0.49996,-0.687384 0.62494,-0.437426 0.56246,-0.437426 0.68744,-0.312447 0.74993,-0.187469 0.87492,0.06249 0.12499,0 0.37497,0.06249 0.49996,0.06249 0.74993,0.187468 0.87492,0.187468 1.12491,0.249958 1.31238,0.312447 1.56236,0.374937 0.18749,0.06249 0.43746,0.187469 0.49996,0.312447 0.68744,0.437426 0.68744,0.499916 0.93741,0.687384 1.06241,0.749873 1.1874,0.937342 0.56245,0.437426 0.81243,0.624894 0.81243,0.812363 1.0624,0.937342 0.43746,0.374937 0.49996,0.374936 0.18748,0.124979 0.24998,0.187469 0.49996,0.374936 0.87492,0.437426 0.87493,0.437426 0.49995,0.124979 0.49996,0.187469 0.18748,0 0.24998,0.06249 0.49996,0.06249 0.37496,-0.06249 0.37497,-0.06249 0.31247,-0.124979 0.31248,-0.124979 0.43746,-0.437426 0.43746,-0.312447 0.24998,-0.187469 0.18748,0.06249 0.68744,0.624894 0.93742,0.874852 0.37497,0.187469 0.49995,0.124979 0.49996,-0.06249 0.56245,-0.187468 0.62495,-0.499916 0.56245,-0.499915 0.43746,-0.499916 0.37496,-0.437426 0.18749,-0.499916 0.18748,-0.499915 0,-0.499916 -0.0625,-0.499915 -0.31248,-0.624895 -0.18748,-0.437426 -0.18748,-0.687384 -0.18749,-0.624894 -0.0625,-0.437427 -0.0625,-0.374936 0.0625,-0.187469 0.31247,-0.562405 0.24998,-0.374936 0.0625,-0.312448 0.0625,-0.06249 0,-0.937342 0,-0.749873 -0.12499,-0.562405 -0.12499,-0.374937 -0.62494,-1.06232 -0.68744,-0.937342 -0.93742,-0.812363 -0.93742,-0.687384 -0.74993,-0.312447 -0.74994,0.06249 -0.68744,0.312448 -0.62494,0.687383 -0.24998,0.249958 -0.12499,0.437426 -0.18749,0.562405 -0.12498,0.749874 -0.18749,0.687384 -0.0625,0.562405 -0.0625,0.374936 0.12499,0.312448 -0.24998,-0.249958 -0.12498,-0.124979 -0.0625,-0.06249 -0.31247,-0.249958 -0.24998,-0.187469 -0.74993,-0.499915 -0.87493,-0.499916 -1.1249,-0.624894 -1.24989,-0.624895 -1.49987,-0.749873 -0.81243,-0.374937 -0.24998,-0.124979 -0.12499,-0.06249 -0.0625,0 -0.37497,-0.124979 -0.68744,-0.562405 -0.56245,-0.374937 -0.56245,-0.374936 -0.43746,-0.249958 -0.43746,-0.249958 -0.31248,-0.06249 -0.31247,-0.06249 -0.12499,0.124979 -0.74993,0.124979 -0.62495,0 -0.62494,-0.249958 -0.56245,-0.499915 -1.1249,-1.062321 -0.99992,-0.812363 -0.99991,-0.687384 -0.87492,-0.374937 -0.93742,-0.812362 -0.68744,-0.624895 -0.68744,-0.562405 -0.43746,-0.437426 -0.43746,-0.437426 -0.24998,-0.249958 -0.18749,-0.187468 -0.0625,-0.374937 0,-0.312447 -0.0625,-0.749874 -0.24997,-0.874852 -0.18749,-0.499915 -0.12499,-0.437427 -0.81243,-1.874683 -0.56245,-1.749705 -0.43746,-1.749704 -0.12499,-1.749705 -0.0625,-1.624725 0.18748,-1.687215 0.0625,-0.999832 0.18748,-0.937341 0.43746,-1.937173 0.43746,-0.812363 0.37497,-0.562405 0.31247,-0.562405 0.24998,-0.374937 0.18749,-0.812363 0.24997,-0.624894 0.18749,-0.562405 0.24998,-0.437426 0.62494,-1.749705 0.62495,-1.374768 0.24997,-0.624894 0.31248,-0.499916 0.24998,-0.499915 0.31247,-0.374937 0.68744,-1.249789 0.68744,-1.062321 0.56245,-0.999831 0.49995,-0.874852 0.37497,-0.874852 0.31247,-0.687384 0.24998,-0.624895 0.18749,-0.437426 0.68744,-0.874852 0.56245,-0.749874 0.43746,-0.7498728 0.31247,-0.562405 0.18749,-0.562405 0.0625,-0.4374262 -0.0625,-0.4374261 -0.0625,-0.2499578 0.24998,-0.3124473 0.37497,-0.2499577 0.87492,-0.4999156 1.06241,-0.5624051 1.31238,-0.562405 0.24998,-0.1874683 0.37497,-0.3124473 0.37496,-0.4374261 0.49996,-0.4374262 0.37497,-0.6248944 0.24998,-0.4374262 0.0625,-0.4374261 -0.0625,-0.2499578 -0.81243,0.4999156 -0.37497,0.1874683 -0.24998,0.2499578 -0.43746,0.3124473 -0.18748,0.062489 -0.0625,0.1249789 0.31247,-0.6873839 0.12499,-0.3124473 0.18749,-0.1874683 0,-0.2499578 0.0625,-0.1249789 0.0625,-0.1874683 z"
           style="fill:#000000;fill-opacity:1;fill-rule:evenodd;stroke:none"
           id="6"
           inkscape:connector-curvature="0" />
        <path
           d="m 54.432741,36.681306 0.312472,0.624895 0.499957,0.812362 0.562451,0.937342 0.812428,1.062321 0.12499,0.187468 0.187483,0.249958 0.249978,0.499915 0.187484,0.374937 0.187484,0.374937 0,0.249958 0,0.312447 -0.06249,0 0,0.06249 0,0.124979 -0.06249,0 0,0.06249 0,0.124979 -0.437461,0.249957 -0.249978,0.374937 -0.06249,0.374937 0.06249,0.562405 0,0.249958 -0.06249,0.374936 -0.249978,0.749874 -0.624945,0.749873 -0.374968,0.374937 -0.437461,0.374936 -0.374968,0.874853 -0.249978,1.06232 -0.374967,1.1873 -0.249978,1.437257 -0.187484,1.062321 0.06249,1.312278 0.06249,1.499747 0.312473,1.749704 -0.06249,0.187469 0,0.437426 -0.06249,0.562405 0,0.749873 -0.124989,0.874853 -0.06249,0.499915 0,0.624895 -0.124989,1.249789 -0.06249,0.687384 0,0.812362 -0.187484,1.812194 0.06249,1.749705 0,0.749873 0.124989,0.749874 0.312472,1.437257 0.124989,0.687384 0,0.124979 0,0.06249 0.06249,0.124979 0.124989,0.374937 0.124989,0.624894 0.187484,0.624895 0.249978,1.06232 0.249978,0.937342 0.124989,0.687384 0.124989,0.562405 0,0.124979 0,0.06249 0.06249,0.124978 0,0.06249 0.06249,0.124979 -0.06249,0.312447 0.124989,0.437426 0.124989,0.624895 0.312473,0.812362 0,0.812363 0.124989,0.937342 0.437461,2.062152 0,0.499915 0.06249,0.624895 0.06249,1.312278 -0.187483,1.437258 -0.249978,1.687215 -0.249978,0.999831 -0.312473,1.312278 -0.374967,1.499747 -0.374968,1.812194 -0.249978,1.1873 -0.249978,1.12481 -0.374967,2.124641 -0.374967,1.749698 -0.249978,1.62473 -0.12499,0.62489 -0.124989,0.56241 -0.124989,0.99983 -0.06249,0.37494 0,0.31244 0,0.49992 -0.06249,0.74987 0,0.74988 -0.06249,0.62489 0,0.6249 -0.124989,0.43742 -0.06249,0 0,0.0625 0,0.12498 0,0.24996 -0.124989,0.37493 -0.06249,0.12498 0,0.18747 -0.312473,0.49992 -0.187484,0.49991 -0.187483,0.43743 0,0.49992 0,0.31244 0.124989,0.37494 0.124989,0.24996 0.312472,0.31244 0.437462,0.31245 0.562451,0.24996 0.562451,0.12498 0.68744,0.0625 0.499956,-0.0625 0.437462,0 0.749934,0 0.249978,0 0.187484,0 0.249978,0 0.499956,0.12498 0.624946,0.31244 0.68744,0.43743 0.874923,0.56241 0.999913,0.12497 1.124901,0.0625 1.124902,-0.0625 1.312385,-0.12497 0.499957,-0.18747 0.499956,-0.12498 0.187483,-0.12498 0.249979,-0.0625 0.437461,-0.12498 0.312473,-0.24996 0.124989,-0.12498 0,-0.0625 0.06249,0 0.124989,0 0.187483,-0.24995 0.06249,-0.12498 0.124989,-0.0625 0,-0.18747 0.06249,-0.12498 0.06249,-0.24996 -0.06249,-0.12498 0,-0.0625 0,-0.12498 -0.06249,-0.24996 -0.374967,-0.56241 -0.374968,-0.18746 1.124902,-0.0625 1.124902,-0.12498 1.124901,-0.18747 1.249891,-0.24996 0.374967,-0.18747 0.374968,-0.12498 0.624945,-0.24995 0.06249,-0.12498 0.12499,-0.0625 0.249978,-0.12498 0.312472,-0.24996 0.06249,-0.37494 0,-0.18746 0,-0.12498 -0.249978,-0.37494 -0.312473,-0.37494 -0.124989,-0.12498 -0.124989,-0.0625 -0.06249,0 -0.312472,-0.12497 -0.124989,-0.0625 -0.0625,0 -0.124989,0 -0.499956,-0.18747 -0.562451,-0.12498 -0.68744,-0.24996 -0.749934,-0.18747 -0.562451,-0.49991 -0.562451,-0.37494 -0.749934,-0.24996 -0.562451,-0.24995 -0.437462,-0.24996 -0.312473,-0.12498 -0.312472,-1.06232 -0.312473,-0.81236 -0.249978,-0.37494 -0.187484,-0.24996 -0.249978,-0.24996 -0.187484,-0.12498 0,-0.0625 0.124989,-0.18746 0.12499,-0.31245 0.124989,-0.37494 0.124989,-0.62489 0.124989,-0.68739 0.124989,-0.874846 0.249978,-0.937342 -0.124989,-1.062321 -0.06249,-0.937341 -0.124989,-0.874853 -0.06249,-0.749873 -0.249978,-1.374768 -0.124989,-0.624894 -0.06249,-0.499916 0.374967,-1.062321 0.312473,-0.812363 0.187483,-0.687383 0.12499,-0.437427 -0.06249,-1.624725 0.124989,-1.312279 0.124989,-1.187299 0.312473,-0.937342 0.312473,-1.062321 0.312472,-0.937341 0.187484,-0.874853 0.249978,-0.687383 0.124989,-0.687384 0.124989,-0.499916 0,-0.437426 0,-0.312447 -0.06249,-0.499916 0.06249,-0.437426 0.187484,-0.374937 0.312472,-0.312447 0.312473,-0.312447 0.562451,-0.187469 0.562451,-0.187468 0.812429,-0.124979 0.68744,-0.249958 0.624945,-0.124979 0.562451,-0.249957 0.187483,-0.124979 0.249979,-0.06249 0.124989,-0.187468 0.187483,-0.124979 0.249978,-0.249958 0.124989,-0.374936 0,-0.187469 0.06249,-0.124979 -0.124989,-0.312447 0,-0.374937 -0.06249,-0.249957 0,-0.187469 0,-0.562405 -0.124989,-0.687384 -0.06249,-0.749873 -0.124989,-0.812363 -0.06249,-0.499915 0,-0.437427 -0.124989,-0.562405 -0.06249,-0.499915 -0.12499,-1.1873 -0.124989,-0.687384 -0.06249,-0.624894 -0.124989,-1.312279 -0.249978,-1.499746 -0.124989,-0.812363 -0.0625,-0.749873 -0.249978,-1.687216 -0.124989,-1.687215 0.187483,-0.06249 0.374968,0.187468 0.437461,0.249958 0.68744,0.437426 0,-0.06249 0.06249,-0.124979 0.312472,-0.499916 0.187484,-0.374936 0.249978,-0.437427 0.562451,-1.12481 0.187484,-0.312447 0.499956,-0.06249 0.624945,-0.06249 0.874924,0.124979 0.374967,0 0.374967,0 0.312473,-0.124979 0.374967,-0.06249 0.249978,-0.187469 0.249978,-0.187468 0.187484,-0.249958 0.187484,-0.249958 0.249978,-0.937341 0.374967,-1.12481 0.374967,-1.312279 0.374967,-1.437257 0.124989,-1.749705 0.249979,-1.312278 0.187483,-0.999831 0.249978,-0.749874 0.312473,-0.499915 0.437462,-0.249958 0.124989,0.06249 0.249978,0.562406 0.249978,0.812362 0.374967,1.312279 0.374968,1.562236 0.437461,2.062152 0.437462,2.312109 0.562451,2.812026 0.249978,0.687383 0.374967,0.562405 0.437462,0.374937 0.624945,0.249958 0.562451,0 0.499957,0.06249 0.749934,0.124979 0.249978,0 0.06249,0 0.124989,0.06249 0.124989,0.124979 0.249978,-0.187469 0.437462,-0.124979 0.624945,-0.124978 0.812429,-0.124979 0.749934,-0.124979 0.624946,0 0.374967,0.06249 0.249978,0.249958 -0.06249,0.187468 -0.06249,0.187469 0,0.312447 -0.124989,0.312447 -0.06249,0.437426 -0.187483,0.437426 -0.124989,0.562405 -0.312473,1.249789 -0.187484,0.999832 -0.124989,0.812362 0,0.624895 -0.249978,1.937173 -0.187483,0.874852 -0.124989,0.937342 -0.374968,1.562236 -0.249978,0.687384 -0.187483,0.749873 -0.312473,0.874853 -0.06249,0.374936 0.06249,0.437426 0,0.249958 0.124989,0.312447 0.187484,0.249958 0.312472,0.249958 0.374968,0.374937 0.312472,0.374936 0.124989,0.374937 0.06249,0.374937 -0.437462,1.937173 -0.249978,2.062151 -0.124989,2.062152 0.124989,2.187131 -0.06249,0.374937 0,0.499915 -0.06249,0.562405 -0.06249,0.687384 -0.187483,0.687384 -0.187484,0.812363 -0.249978,0.874852 -0.187484,1.062321 -0.437461,1.624725 -0.187484,1.499747 -0.0625,1.312279 0.0625,0.562405 0.187484,0.624894 0,0.374937 0.06249,0.562405 0,0.687384 0.06249,0.812363 0.06249,0.499915 0.187484,0.687384 0.312472,0.812363 0.499957,0.937342 0,0.499911 -0.124989,0.6249 -0.374968,0.62489 -0.56245,0.6249 -0.749935,0.62489 -0.312472,0.31245 -0.187484,0.37494 -0.374967,0.62489 -0.06249,0.68738 0,0.56241 0,0.68738 0,0.81237 0.06249,0.93734 -0.124989,0.31244 -0.124989,0.37494 -0.187484,0.24996 -0.124989,0.31245 -0.249978,0.18746 -0.249978,0.24996 -0.124989,0 -0.06249,0 0,0.0625 -0.124989,0.12498 -0.249978,0.18747 -0.562451,0.43743 -0.437462,0.37493 -0.374967,0.31245 -0.312473,0.24996 -0.437461,0.24995 -0.187484,0.12498 -0.06249,0.18747 -0.06249,0.24996 0,0.12498 0.124989,0.18747 0.06249,0.0625 0.187483,0.12498 0.499956,0.24995 0.249979,0.0625 0.374967,0.12498 0.812429,0.24996 0.187483,0 0.312473,0.0625 0.812429,0.0625 0.937418,0 1.249891,0 0.312472,0 0.437462,-0.18747 0.499956,-0.37494 0.624946,-0.49991 0.562451,-0.56241 0.187483,-0.24996 0.249978,-0.12497 0.312473,-0.18747 0.249978,0.0625 0.437462,0.12498 0.562451,0.0625 0.562451,-0.18747 0.687439,-0.24996 0,-1.43726 0.12499,-1.12481 0.124989,-0.99983 0.187483,-0.62489 0.06249,-0.56241 0.124989,-0.43743 0.187483,-0.81236 0.12499,-0.62489 0,-0.24996 0.06249,-0.12498 0,-1.56224 0,-1.06232 0,-0.68738 0,-0.18747 0.06249,-0.0625 0,-0.18747 0.06249,-0.12498 0.124989,-0.249952 0.06249,-0.374937 0.124989,-0.312447 0,-0.437426 0.06249,-0.374937 0.124989,-0.937341 0,-0.999831 0.124989,-0.812363 0.12499,-0.687384 0.312472,-0.499916 0.249978,-0.687384 0.312473,-0.624894 0.187484,-0.749874 0.06249,-0.374936 0.124989,-0.312448 0,-0.437426 0.06249,-0.374936 0.124989,-0.749874 0,-0.812363 0.06249,-0.749873 -0.06249,-1.499747 0.187484,-1.12481 0.124989,-0.562405 0.249978,-0.437426 0.624945,-0.687384 -0.06249,2.687046 0,0.687384 0.124989,0.812363 0.124989,0.937342 0.249978,1.187299 -0.124989,1.12481 -0.06249,0.874853 0,0.499915 0,0.249958 0.06249,0.562405 0.187483,0.749874 0.187482,0.937341 0.37497,1.12481 -0.24998,0.749874 -0.12499,0.812363 -0.12499,0.749873 0,0.812363 0,0.687381 0.12499,0.74988 0.49996,1.49974 0.0625,0.49992 0,0.62489 -0.12499,0.24996 -0.12499,0.31245 -0.31247,0.62489 -0.312471,0.24996 -0.187483,0.31245 -0.312473,0.5624 -0.187484,0.49992 -0.06249,0.43742 0.06249,0.49992 0.249979,0.62489 0.374967,0.6249 0.562445,0.74987 -0.374962,0.81236 -0.312472,0.49992 -0.374968,0.49992 -0.312472,0.37493 -0.06249,0.37494 0,0.12498 0.124989,0.18747 0.124989,0.12497 0.249979,0.18747 0.187483,0.0625 0.312473,0.12498 0.812431,0.24996 0.93742,0.12498 0.56245,0.0625 0.68744,0.12498 0.24998,-0.0625 0.31247,0 0.24998,-0.0625 0.31247,0 0.43746,-0.12498 0.43747,-0.12498 0.24997,-0.24996 0.24998,-0.18747 0.12499,-0.24995 0.12499,-0.24996 0.0625,-1.49975 0.31248,-1.37477 0.31247,-1.37476 0.56245,-1.24979 0.24998,-0.93735 0.0625,-0.74987 -0.18748,-0.74987 -0.37497,-0.6249 -0.37496,-0.74987 -0.12499,-0.37494 0,-0.31244 0.12499,-0.74988 0.49995,-0.74987 0,-0.18747 0.0625,-0.18747 0.12499,-0.37493 0.18748,-0.437429 0.12499,-0.624895 0.18748,-0.687383 0.24998,-0.812363 0.31247,-0.874853 0,-0.437426 0.12499,-0.499915 0.12499,-1.12481 0,-0.687384 0,-0.749874 0,-1.624725 -0.0625,-1.562237 0.12499,-1.312278 0.18748,-1.187299 0.31247,-0.937342 0,-0.249958 0,-0.124979 0,-0.06249 0.0625,0 0.12499,-0.374937 0.18748,-0.749873 0.0625,-0.874853 0.0625,-0.874852 -0.0625,-0.999831 -0.0625,-0.499916 0,-0.437426 -0.12499,-0.562405 -0.0625,-0.499915 -0.12499,-0.562406 -0.0625,-0.499915 -0.12499,-0.562405 0,-0.499916 0,-0.562405 0.18749,-0.562405 0.12499,-0.687384 0.31247,-0.687384 0.31247,-0.749873 0.49996,-0.687384 0.49995,-1.12481 0.56245,-0.937342 0.43747,-0.874852 0.43746,-0.687384 0.31247,-0.687384 0.31247,-0.562405 0.18749,-0.499916 0.24997,-0.312447 0.18749,-0.624894 0.24998,-0.624895 0.37496,-1.499746 0,-0.249958 0,-0.187469 0.12499,-0.249957 0.0625,-0.374937 0.12499,-0.437426 0.31247,-0.999831 -0.12499,-1.249789 0,-1.062321 -0.12499,-0.874852 -0.0625,-0.374937 0,-0.249958 -0.43747,-1.937173 -0.12498,-0.812362 -0.0625,-0.562405 -0.18748,-0.937342 0,-0.437426 -0.12499,-0.937342 -0.24998,-0.874852 -0.49996,-0.874853 -0.62494,-0.874852 -0.93742,-0.937342 -0.81243,-0.687384 -0.68744,-0.687383 -0.43746,-0.437427 -0.37497,-0.499915 -0.18748,-0.312447 -0.18748,-0.187469 -0.0625,-0.06249 -0.43746,0.06249 -0.31247,0.06249 -0.31248,-0.06249 -0.18748,-0.124979 -0.43746,-0.499915 -0.24998,-0.562405 -0.24998,-0.687384 -0.0625,-0.749874 -0.0625,-0.874852 0.12499,-0.687384 0.18749,-0.562405 0.43746,-0.437426 0.31247,-0.374937 0.12499,-0.187468 0.18748,-0.124979 0.49996,-0.749873 0.24998,-0.874853 0.12499,-0.874852 0.18748,-0.999831 0.0625,-0.499916 0,-0.249957 0,-0.124979 0,-0.06249 0.0625,0 -0.0625,-0.124979 0,-0.06249 0,-0.124979 0,-0.249958 0,-0.499915 -0.12498,-0.999832 -0.56246,-0.874852 -0.31247,-0.624894 -0.18748,-0.499916 -0.0625,-0.249958 -0.31247,-0.187468 -0.12499,-0.124979 -0.12499,-0.187468 0.0625,-0.124979 -0.12499,-0.124979 0.0625,0 -0.74993,-0.374937 -0.56245,-0.374936 0,0.06249 0.0625,0.124979 0,0.06249 -0.12499,-0.06249 -0.0625,-0.06249 -0.12499,-0.124978 -0.0625,-0.06249 -0.12498,-0.124979 0.12498,0.374937 -0.31247,-0.249958 -0.0625,-0.249958 -0.0625,0 0,0.06249 -0.12499,0 -0.0625,0 -0.18748,-0.124979 -0.12499,-0.06249 -0.0625,0 -0.24998,-0.124978 -0.18748,-0.124979 -0.12499,0 -0.12499,0 -0.0625,0 0,0.06249 -0.43746,0 -0.24998,0 -0.12499,0 -0.0625,0 0,0.06249 0.12499,0 0,0.06249 -0.18748,0 -0.18748,0 -0.12499,0.06249 -0.0625,0 -0.0625,0 -0.31247,0 -0.18749,0 -0.12499,0 -0.0625,0 0,0.06249 0.18748,0 0,0.06249 -0.24998,0 -0.37496,0.124979 -0.49996,0.124979 -0.374971,0.124979 -0.68744,0.187468 -0.312473,-0.06249 -0.187483,0 -0.187484,-0.06249 -0.06249,0 0,0.124979 -0.12499,0.124979 -0.187483,0 -0.124989,0.06249 -0.437462,0 -0.06249,0 0,0.06249 0,0.06249 -0.124989,-0.06249 -0.06249,0 0.06249,0.124979 0.0625,0.124979 -0.0625,0 -0.124989,0 0.187484,0.374937 -0.499956,-0.06249 -0.437462,-0.187468 0.124989,0.124979 0.06249,0.124979 -0.06249,0 0,0.06249 -0.124989,0.06249 0.06249,0.06249 0.06249,0.06249 -0.124989,-0.06249 -0.06249,0 -0.124989,-0.06249 -0.124989,0 0,0.06249 0,0.06249 -0.124989,0 -0.124989,0 0.249978,0.187469 0.437462,0.374936 -0.437462,0.124979 -0.249978,-0.06249 0.06249,0.06249 0.06249,0.124979 -0.06249,0 -0.06249,0 0,0.06249 0.06249,0.06249 0.06249,0.124979 0,0.06249 0,0.124979 0.124989,-0.06249 0,0.187468 0.06249,0 0,0.06249 -0.187484,0 -0.187483,0.124979 0.06249,-0.06249 0,0.06249 -0.187484,0.124979 -0.312472,0.187468 0.06249,-0.06249 0.124989,0.187469 -0.56245,0.499915 0.374967,-0.187468 0.187483,-0.06249 -0.06249,0.124978 -0.124989,0.124979 -0.187484,0.187469 0.499956,-0.249958 -0.249978,0.437426 -0.249978,0.312447 0.249978,-0.06249 -0.06249,0.437426 -0.06249,0.562405 0.187484,-0.499916 -0.124989,0.812363 0,-0.124979 0.06249,-0.187468 0.124989,-0.249958 0.187484,-0.312447 -0.124989,1.062321 -0.06249,0.937341 0,0.687384 0.06249,0.562405 0.06249,0.06249 0.12499,0.124979 0.187483,0.249957 0.187484,0.374937 0,0.249958 -0.06249,0 0,0.06249 -0.06249,0.124979 0.374967,-0.06249 -0.249978,0.249958 -0.06249,0.374936 0,0.437426 0.187484,0.624895 0.124989,0.499915 0.187483,0.437427 0.187484,0.374936 0.249978,0.312448 0.187484,0.374936 0.249978,0.437426 0.06249,0.124979 0.124989,0.187469 0.249978,0.374936 0.374967,0.562405 0.374967,0.499916 0.249978,0.312447 0.124989,0.06249 0.187484,0.124979 0.0625,0 0.124989,0.06249 0.249978,0.06249 -0.312473,0.124979 -0.437462,0.124979 -0.312472,0 -0.249978,0.06249 -0.312473,0 -0.249978,0.06249 -0.937418,0 -0.68744,0 -0.499957,0.06249 -0.187483,0.124978 -0.812429,0.312448 -0.624945,0.374936 -0.624946,0.249958 -0.437462,0.312447 -0.437461,0.187469 -0.249978,0.187468 -0.187484,0.124979 -0.06249,0.124979 -0.249978,0.374937 -0.124989,0.312447 -0.249978,0.499915 -0.937418,0.312448 -0.68744,0.437426 -0.562451,0.312447 -0.437461,0.312447 -0.312473,0.187469 -0.124989,0 0,0.06249 -0.249978,0.249958 -0.187484,0.249958 -0.249978,0.187468 -0.124989,0.06249 -0.06249,0.124979 -0.624945,-1.687215 -0.499956,-1.437257 -0.437462,-1.312278 -0.312473,-1.062321 -0.312472,-0.937342 -0.12499,-0.687384 -0.124989,-0.499915 0,-0.249958 -0.249978,-1.312279 -0.124989,-1.06232 -0.124989,-0.937342 -0.06249,-0.749873 -0.749935,-3.061983 -0.124989,0.249958 -0.06249,0 0,0.06249 0,0.124979 -0.12499,0.06249 0,0.06249 -0.06249,-0.749874 0,-0.562405 -0.06249,-0.562405 0,-0.374936 -0.249978,-0.624895 -0.187483,-0.187468 -0.124989,0 -0.624946,0.812363 -0.437462,0.812362 -0.437461,0.687384 -0.312473,0.562405 -0.312473,0.437427 -0.187483,0.374936 -0.187484,0.249958 0,0.187468 -0.249978,0.249958 -0.249978,0.187469 -0.187484,0 -0.124989,0.06249 -0.312473,0 -0.06249,0.437426 0,0.249958 0.124989,0.374937 -0.124989,0.124979 -0.124989,0.312447 -0.187484,0.312447 -0.124989,0.499916 -0.06249,0.312447 -0.06249,0.437426 -0.249978,1.062321 -0.437462,1.187299 -0.312472,0.687384 -0.249979,0.812363 -0.124989,0.312447 -0.06249,0.374937 -0.124989,0.312447 -0.06249,0.374937 -0.187483,0.249958 -0.12499,0.249957 -0.249978,0.437426 -0.249978,0.06249 -0.187483,0.124979 -0.249979,0.06249 -0.124989,0 -0.06249,0 0,0.06249 -0.499956,-0.06249 -0.499957,-0.06249 -0.187483,-0.06249 -0.249978,0.124979 -0.312473,0.124979 -0.374967,0.312447 -0.312473,0.06249 -0.249978,0 -0.249978,-0.187469 -0.124989,-0.187468 -0.249979,-0.374937 -0.437461,-0.249957 -0.624946,-0.249958 -0.812429,-0.187468 -0.499956,-0.124979 -0.374967,-0.187469 -0.437462,-0.312447 -0.374967,-0.374937 -0.68744,-0.687384 -0.312473,-0.312447 -0.187483,-0.187468 -0.312473,-0.312447 -0.06249,-0.06249 -0.812429,-0.187468 -0.499957,-0.124979 -0.374967,-0.249958 -0.124989,-0.124979 0,-0.06249 -0.562451,-0.437426 -0.374967,-0.312448 -0.624945,-0.562405 -0.249979,-0.249957 -0.124989,-0.124979 -0.06249,-0.187469 0.499956,-0.06249 0.437462,0 0.374967,-0.124979 0.374967,-0.06249 0.06249,-0.124979 0.124989,-0.06249 0.187483,-0.124979 0.12499,-0.249958 0,-0.124978 0,-0.06249 0.06249,0 0.06249,-0.687384 0.124989,-0.562405 0.124989,-0.437426 0.249978,-0.187468 0.312473,-0.624895 0.312472,-0.624894 0.06249,-0.124979 0.124989,-0.06249 0.187484,-0.124979 0,-0.124978 0,-0.06249 0.06249,0 0.0625,-0.124979 -0.0625,-0.124979 0,-0.06249 -0.124989,-0.249958 -0.249978,-0.499915 -0.249978,-0.624895 0.124989,0 0.249978,-0.06249 -0.249978,-0.124979 -0.06249,-0.124979 -0.06249,-0.187469 0.124989,-0.124978 0.187483,-0.562405 0.06249,-0.312448 -0.124989,-0.249958 0,-0.312447 -0.124989,-0.374936 -0.06249,-0.374937 -0.124989,-0.312447 -0.06249,-0.249958 -0.124989,-0.562405 -0.249979,-0.624895 -0.124989,-0.374936 -0.06249,-0.124979 0,-0.06249 0,-0.124979 0.624945,-0.437426 -0.06249,-0.187468 0.187483,-0.249958 0.124989,0.06249 0.06249,0.124978 0.06249,-0.312447 0.06249,-0.124979 -0.187484,-0.124979 -0.187483,0.06249 -0.437462,-0.499916 -0.312473,-0.249958 -0.68744,-0.687383 0.249978,0.437426 -0.06249,0 -0.0625,0 -0.124989,-0.06249 -0.06249,0 -0.124989,-0.06249 -0.06249,0 -0.124989,-0.249958 0.187484,-0.124979 0.124989,0 -0.68744,-0.562405 -0.499956,-0.249958 -0.437462,-0.124979 -0.312473,0.124979 -2.562276,-0.937341 -0.06249,0 0,0.312447 -0.0625,0 0,0.06249 -0.06249,0 -0.124989,-0.06249 -0.06249,-0.124979 0.06249,-0.187468 0.124989,-0.06249 -0.999913,-0.312447 -0.624945,-0.187468 -0.312473,-0.06249 -0.187484,0.06249 -0.187483,0.187468 0.06249,0 -0.124989,0.06249 0.06249,-0.06249 -0.499956,0.06249 -0.499957,0.312448 -0.562451,0.249957 -0.312472,0.249958 -0.249978,0.249958 -0.06249,0.249958 -0.124989,0.187468 -0.187484,0.437426 -0.312472,0.437426 -0.437462,0.687384 -0.374967,0.499916 -0.187484,0.437426 -0.06249,0.374937 0.124989,0.374936 0,0.124979 0.06249,0.249958 0,0.562405 -0.187483,0.687384 -0.249979,0.812363 -0.187483,0.312447 0.06249,0.437426 0.187484,0.562405 0.437462,0.812363 z m 4.062145,-8.935991 0.124989,-0.06249 0.06249,0.06249 -0.06249,0.06249 -0.124989,0.187469 -0.187484,-0.124979 -0.0625,-0.06249 0.0625,-0.06249 0.187484,0 z"
           style="fill:#000000;fill-opacity:1;fill-rule:evenodd;stroke:none"
           id="7"
           inkscape:connector-curvature="0" />
      </g>
      <flowRoot
         xml:space="preserve"
         id="flowRoot3012"
         style="fill:black;stroke:none;stroke-opacity:1;stroke-width:1px;stroke-linejoin:miter;stroke-linecap:butt;fill-opacity:1;font-family:Sans;font-style:normal;font-weight:normal;font-size:40px;line-height:125%;letter-spacing:0px;word-spacing:0px"><flowRegion
           id="flowRegion3014"><rect
             id="rect3016"
             width="211.65628"
             height="116.52986"
             x="336.5097"
             y="532.43823" /></flowRegion><flowPara
           id="flowPara3018" /></flowRoot>      <text
         xml:space="preserve"
         style="font-size:40px;font-style:normal;font-variant:normal;font-weight:normal;font-stretch:normal;line-height:125%;letter-spacing:0px;word-spacing:0px;fill:#000000;fill-opacity:1;stroke:none;font-family:McLaren;-inkscape-font-specification:McLaren"
         x="329.74509"
         y="345.95795"
         id="text3020"
         sodipodi:linespacing="125%"><tspan
           sodipodi:role="line"
           id="tspan3022"
           x="329.74509"
           y="345.95795"
           style="font-size:40px;font-weight:normal;text-align:end;text-anchor:end;-inkscape-font-specification:McLaren">Loving Learning</tspan><tspan
           sodipodi:role="line"
           x="329.74509"
           y="395.95795"
           id="tspan3024"
           style="font-size:40px;font-weight:normal;text-align:end;text-anchor:end;-inkscape-font-specification:McLaren">Preschool</tspan></text>
      <flowRoot
         xml:space="preserve"
         id="flowRoot3026"
         style="fill:black;stroke:none;stroke-opacity:1;stroke-width:1px;stroke-linejoin:miter;stroke-linecap:butt;fill-opacity:1;font-family:Sans;font-style:normal;font-weight:normal;font-size:40px;line-height:125%;letter-spacing:0px;word-spacing:0px"><flowRegion
           id="flowRegion3028"><rect
             id="rect3030"
             width="227.11432"
             height="146.25687"
             x="365.04761"
             y="495.57672" /></flowRegion><flowPara
           id="flowPara3032" /></flowRoot>    </g>
  </g>
</svg>
