<?xml version="1.0" encoding="UTF-8" standalone="no"?>
<!-- Created with Inkscape (http://www.inkscape.org/) -->
<svg
   xmlns:osb="http://www.openswatchbook.org/uri/2009/osb"
   xmlns:dc="http://purl.org/dc/elements/1.1/"
   xmlns:cc="http://creativecommons.org/ns#"
   xmlns:rdf="http://www.w3.org/1999/02/22-rdf-syntax-ns#"
   xmlns:svg="http://www.w3.org/2000/svg"
   xmlns="http://www.w3.org/2000/svg"
   xmlns:xlink="http://www.w3.org/1999/xlink"
   xmlns:sodipodi="http://sodipodi.sourceforge.net/DTD/sodipodi-0.dtd"
   xmlns:inkscape="http://www.inkscape.org/namespaces/inkscape"
   width="1052.3622"
   height="744.09448"
   id="svg2"
   version="1.1"
   inkscape:version="0.46"
   sodipodi:docname="parmerlanepreschoollogosquare.svg"
   sodipodi:version="0.32"
   inkscape:output_extension="org.inkscape.output.svg.inkscape"
   inkscape:export-filename="C:\Documents and Settings\Owner\Desktop\Parmer Lane Preschool\Logo\parmerlanepreschoollogosquare.png"
   inkscape:export-xdpi="90"
   inkscape:export-ydpi="90">
  <defs
     id="defs4">
    <inkscape:perspective
       sodipodi:type="inkscape:persp3d"
       inkscape:vp_x="0 : 372.04724 : 1"
       inkscape:vp_y="0 : 1000 : 0"
       inkscape:vp_z="1052.3622 : 372.04724 : 1"
       inkscape:persp3d-origin="526.18109 : 248.03149 : 1"
       id="perspective29" />
    <linearGradient
       id="linearGradient5211"
       osb:paint="gradient">
      <stop
         style="stop-color:#000000;stop-opacity:1;"
         offset="0"
         id="stop5213" />
      <stop
         style="stop-color:#000000;stop-opacity:0;"
         offset="1"
         id="stop5215" />
    </linearGradient>
    <linearGradient
       id="linearGradient3771"
       osb:paint="solid">
      <stop
         style="stop-color:#000000;stop-opacity:1;"
         offset="0"
         id="stop3773" />
    </linearGradient>
    <linearGradient
       inkscape:collect="always"
       xlink:href="#linearGradient5211"
       id="linearGradient5223"
       x1="163.00781"
       y1="422.37831"
       x2="400.89844"
       y2="422.37831"
       gradientUnits="userSpaceOnUse" />
    <linearGradient
       inkscape:collect="always"
       xlink:href="#linearGradient5211"
       id="linearGradient2422"
       gradientUnits="userSpaceOnUse"
       x1="163.00781"
       y1="422.37831"
       x2="400.89844"
       y2="422.37831" />
    <linearGradient
       inkscape:collect="always"
       xlink:href="#linearGradient5211"
       id="linearGradient2424"
       gradientUnits="userSpaceOnUse"
       x1="163.00781"
       y1="422.37831"
       x2="400.89844"
       y2="422.37831" />
  </defs>
  <sodipodi:namedview
     id="base"
     pagecolor="#ffffff"
     bordercolor="#666666"
     borderopacity="1.0"
     inkscape:pageopacity="0.0"
     inkscape:pageshadow="2"
     inkscape:zoom="0.84098617"
     inkscape:cx="178.1506"
     inkscape:cy="212.89837"
     inkscape:document-units="px"
     inkscape:current-layer="g2996"
     showgrid="false"
     inkscape:window-width="1366"
     inkscape:window-height="721"
     inkscape:window-x="44"
     inkscape:window-y="58"
     inkscape:window-maximized="1" />
  <metadata
     id="metadata7">
    <rdf:RDF>
      <cc:Work
         rdf:about="">
        <dc:format>image/svg+xml</dc:format>
        <dc:type
           rdf:resource="http://purl.org/dc/dcmitype/StillImage" />
        <dc:title />
      </cc:Work>
    </rdf:RDF>
  </metadata>
  <g
     inkscape:label="Layer 1"
     inkscape:groupmode="layer"
     id="layer1"
     transform="translate(0,-308.2677)">
    <g
       id="g2996"
       transform="translate(79.999996,482.85715)">
      <g
         id="g3780"
         transform="matrix(0.51773825,0,0,0.47219227,80.008185,264.22147)"
         inkscape:export-xdpi="90"
         inkscape:export-ydpi="90">
        <path
           sodipodi:nodetypes="scsssssscssssccccsssssssscscccsssccssccssssssssssccsc"
           inkscape:connector-curvature="0"
           id="path3004"
           d="m 223.14613,538.82318 c -8.8,-1.54701 -16.70929,-2.60226 -17.57621,-2.34501 -0.86691,0.25726 -13.69191,1.36075 -28.5,2.45221 -27.44555,2.02292 -53.32342,2.49692 -56.92379,1.04266 -1.90454,-0.76929 -1.88068,-0.85899 0.5,-1.87948 1.375,-0.5894 5.86416,-2.50513 9.97591,-4.25718 10.55895,-4.49926 14.67032,-7.50195 18.97956,-13.86149 10.61451,-15.66481 11.26009,-19.14507 11.41796,-61.55344 l 0.12657,-34 -2.81592,-10.5 c -2.45973,-9.17184 -3.34517,-11.05038 -7,-14.85113 -10.00037,-10.39965 -41.06332,-33.99056 -54.447013,-41.35006 -4.3736,-2.40498 -8.69808,-5.74518 -10.87046,-8.39629 -1.98415,-2.42139 -4.11583,-4.40148 -4.73707,-4.40021 -0.62125,10e-4 -4.06616,-2.00267 -7.65537,-4.45321 -7.083985,-5.59577 -6.852976,-4.3236 -14.87973,-1.08718 -72.414687,-28.02394 364.493923,-149.81281 205.204743,13.77512 -26.32479,23.84179 -55.87715,56.29179 -61.25668,67.26296 -2.65794,5.42069 -4.39152,17.49199 -3.65574,25.45573 0.33255,3.59935 0.64451,11.26927 0.69323,17.04427 0.13061,15.47979 1.55397,28.61403 3.93614,36.32141 1.90211,6.15416 2.86885,7.54959 9.88312,14.26564 9.40115,9.00144 23.36612,20.31208 29.56194,23.94307 2.49634,1.46296 4.53881,3.06716 4.53881,3.5649 0,1.46926 -7.46985,0.80054 -24.5,-2.19329 z M 206.76736,393.06369 c 2.07542,-1.52629 11.69503,-10.26931 21.37691,-19.42895 9.75085,-9.22489 21.26094,-19.07618 25.80264,-22.08405 51.16244,-40.80162 -10.31005,-10.25277 -27.99415,-10.17251 l -14.19337,0.0433 -3.47074,3.36292 c -6.73303,6.52386 -12.35853,23.58924 -13.36313,40.53808 -0.51616,8.70825 -0.37517,10.0558 1.17035,11.18591 2.13563,1.56161 5.21612,0.56725 10.67149,-3.44467 z m -24.81672,-1.92623 c 3.91272,-4.3235 10.97619,-25.18462 12.09326,-35.71601 0.29169,-2.75 -0.016,-8.50629 -0.68371,-12.79175 -4.89586,-21.65304 -36.63805,-20.11273 -34.49397,4.50717 1.45102,16.66157 7.48771,33.02786 15.4214,41.80951 3.99953,4.42701 5.3024,4.79954 7.66302,2.19108 z m -29.94011,-15.46601 c 0.77578,-1.2375 2.00391,-4.725 2.72917,-7.75 1.60669,-6.70131 1.84129,-25.46514 0.33719,-26.96924 -0.759,-0.759 -3.0354,-0.17775 -7.84534,2.00318 -7.06464,3.20326 -19.98795,6.45145 -29.8323,7.49815 -5.147,0.54726 -5.64607,0.79942 -4.78109,2.41564 1.43401,2.67947 24.71385,19.9969 30.51071,22.69634 6.23239,2.90224 7.12202,2.91285 8.88166,0.10593 z m 52.6356,-35.80902 c -0.78522,-1.72917 -1.72127,-0.43868 -2,0.61804 0,0.85746 0.45,1.2809 1,0.94098 0.55,-0.33992 1,-1.04148 1,-1.55902 z"
           style="fill:#8c6e1e;fill-opacity:1" />
        <path
           inkscape:connector-curvature="0"
           id="path2998"
           d="m 102.82774,369.73765 c -7.829323,-0.99663 -12.924933,-2.54077 -15.917963,-4.82367 -1.79895,-1.37213 -3.71087,-2.49478 -4.2487,-2.49478 -0.53783,0 -3.83471,-1.98814 -7.3264,-4.41809 l -6.34853,-4.41808 -5.07921,2.05267 c -13.10755,5.29721 -16.83725,6.1124 -28.0792,6.1372 -9.8051,0.0216 -11.73522,-0.28018 -17.76825,-2.77836 -18.36133027,-7.60315 -27.6657003,-25.22581 -23.6407703,-44.77612 1.54384,-7.49894 6.99699,-18.14737 13.39978,-26.16591 3.0156603,-3.77669 5.2163903,-7.29813 4.8905103,-7.82543 -0.35388,-0.57258 -3.5176403,-0.68462 -7.8550203,-0.27817 -8.34614,0.7821 -13.96091,-1.06495 -18.7373997,-6.16388 -6.02648,-6.4333 -8.18708,-20.35924 -5.33927,-34.41378 3.26504,-16.1136 10.4542597,-29.10517 21.9200897,-39.61151 7.3411003,-6.72678 14.3087803,-10.48638 24.2821103,-13.10207 l 6.84822,-1.79607 0.078,-7.4712 c 0.0948,-9.08549 0.92786,-13.00171 4.10779,-19.31141 5.17532,-10.26898 17.11447,-19.58031 29.81423,-23.25207 12.97441,-3.75116 29.51893,-1.63157 39.662903,5.08139 4.98626,3.29975 7.43549,3.24716 8.29518,-0.17811 1.22435,-4.87819 4.40756,-8.01827 12.27404,-12.10773 13.00255,-6.7595 21.96,-8.64252 41.26788,-8.67528 14.78212,-0.0251 17.26024,0.22248 23.802,2.37766 8.77161,2.88982 16.38312,7.99607 21.01449,14.09775 1.87718,2.47313 3.97641,4.63054 4.66494,4.79425 0.68853,0.1637 2.61616,-0.85033 4.28363,-2.25341 5.61554,-4.72517 11.03499,-6.49844 19.93332,-6.52227 18.93078,-0.0507 40.16476,10.75843 58.50201,29.78042 8.9909,9.32663 16.75212,21.17061 18.65027,28.46118 0.60665,2.33004 1.56465,6.08909 2.1289,8.35344 0.96954,3.89079 1.36916,4.24047 7.27317,6.36403 25.38862,9.13181 43.22274,26.09984 48.31221,45.96597 2.28499,8.91919 1.57286,24.1434 -1.55956,33.34112 -2.1675,6.36441 -2.23069,7.21798 -1.01236,13.67485 1.47331,7.80826 0.98009,13.18314 -2.04122,22.24446 -6.08648,18.25415 -24.56097,35.07844 -42.64055,38.83174 -12.64505,2.62511 -28.62601,-0.21742 -39.6277,-7.04856 -2.64904,-1.64484 -5.50306,-2.99062 -6.34227,-2.99062 -0.8392,0 -2.66999,-0.9 -4.06841,-2 -3.3874,-2.66453 -4.76444,-2.53475 -10.21474,0.9627 -6.49675,4.16895 -16.58934,8.57226 -23.05813,10.06005 -7.34509,1.68935 -37.80624,1.91565 -39.15467,0.29089 -0.54152,-0.6525 -2.79904,-1.16132 -5.0167,-1.13071 -2.62405,0.0362 -4.95693,-0.66706 -6.68037,-2.01389 -1.45654,-1.13824 -7.30849,-4.36741 -13.00433,-7.17594 l -10.35608,-5.1064 -6.64392,6.30057 c -3.65416,3.46532 -7.00379,6.86581 -7.44362,7.55665 -0.43983,0.69085 -1.46729,1.25608 -2.28324,1.25608 -0.81596,0 -3.72324,1.13493 -6.46063,2.52207 -6.57972,3.3342 -20.95441,7.11968 -30.39502,8.00434 -4.17466,0.3912 -7.83534,1.10779 -8.13487,1.59243 -0.54051,0.87456 -3.1635,0.93322 -8.92655,0.19961 z"
           style="fill:#107200" />
      </g>
      <g
         id="1"
         transform="matrix(1.2410555,0,0,1.1937728,41.224069,415.79096)"
         inkscape:export-filename="D:\Development\website\parmerlanepreschool\logo\g3780.png"
         inkscape:export-xdpi="90"
         inkscape:export-ydpi="90"
         style="opacity:1">
        <path
           d="M 145.36229,96.796155 L 145.17481,96.796155 L 145.04982,96.858645 L 144.61236,96.858645 L 143.98741,96.733666 L 143.61244,96.608687 L 143.23748,96.546197 L 142.42505,96.046281 L 141.73761,95.671344 L 140.6752,95.108939 L 140.11275,94.109108 L 139.80028,93.546703 L 139.42531,92.859319 L 139.17533,92.421893 L 138.98785,92.109446 L 138.98785,92.046956 L 138.73787,92.046956 L 138.67537,92.234425 L 138.61287,92.484382 L 138.67537,92.859319 L 138.61287,93.109277 L 138.55037,93.109277 L 138.55037,93.171767 L 138.55037,93.296746 L 138.36288,93.421725 L 138.1129,93.484215 L 137.11299,93.359236 L 136.42555,93.359236 L 135.9256,93.234257 L 135.80061,93.171767 L 135.55063,92.85932 L 135.42564,92.85932 L 135.30065,93.046788 L 135.30065,93.546704 L 135.48813,94.04662 L 135.67562,94.234088 L 135.98809,94.484046 L 135.98809,94.858982 L 136.23807,95.421387 L 136.36306,95.921303 L 136.73802,96.546198 L 136.67552,96.608688 L 136.80051,96.733667 L 137.17548,96.983625 L 137.42545,97.046115 L 137.80042,97.171094 L 138.17539,97.233584 L 138.67535,97.358563 L 138.86283,97.421053 L 138.98782,97.483543 L 139.2378,97.671012 L 139.80025,98.108438 L 140.55018,98.795822 L 141.17513,99.295737 L 141.86257,99.733163 L 143.36244,100.48303 L 143.98738,100.6705 L 144.73732,100.733 L 145.42475,100.6705 L 146.17469,100.48303 L 146.92462,100.17059 L 147.67456,99.733163 L 148.42449,99.170758 L 149.29942,98.608353 L 149.4869,99.608184 L 149.61189,100.6705 L 149.61189,101.73282 L 149.54939,102.85763 L 149.36191,105.10725 L 149.11193,105.66966 L 148.61198,106.35704 L 148.42449,106.54451 L 148.23701,106.66949 L 148.11202,106.91945 L 148.04952,107.1694 L 148.29949,107.54434 L 148.36199,107.73181 L 148.29949,107.98177 L 147.98702,108.29421 L 147.54956,108.73164 L 146.86212,109.29404 L 146.29967,109.85645 L 145.79971,110.29388 L 145.48724,110.79379 L 145.17477,111.16873 L 144.98728,111.54367 L 144.86229,111.85611 L 144.92479,112.16856 L 145.11227,113.16839 L 145.42474,113.91826 L 145.61223,114.10573 L 146.04969,114.35569 L 146.67464,114.48067 L 147.54956,114.73063 L 148.36199,114.85561 L 149.3619,115.16805 L 150.4868,115.4805 L 151.79919,116.04291 L 152.61162,116.04291 L 153.36155,116.16788 L 153.9865,116.16788 L 154.23647,116.16788 L 154.36146,116.16788 L 154.42396,116.16788 L 154.54895,116.23038 L 154.98641,116.23038 L 155.36138,116.23038 L 155.61135,116.23038 L 155.79884,116.23038 L 156.17381,116.1054 L 156.67376,116.1679 L 157.23621,116.35537 L 157.92365,116.7928 L 158.5486,117.04276 L 158.67359,117.04276 L 158.73609,117.04276 L 158.86108,117.10526 L 159.23605,117.10526 L 159.86099,116.8553 L 160.61093,116.35538 L 160.73592,116.54285 L 161.04839,116.79281 L 161.48585,116.91779 L 162.0483,117.04277 L 162.61075,117.04277 L 163.42318,117.04277 L 164.2981,116.98027 L 165.36051,116.91777 L 166.04795,116.7303 L 166.6729,116.60532 L 167.17285,116.48034 L 167.61032,116.48034 L 167.92279,116.35536 L 168.17277,116.35536 L 168.42274,116.35536 L 168.54773,116.29286 L 168.73522,116.29286 L 168.98519,116.23036 L 168.98519,116.10538 L 168.98519,116.04288 L 169.04769,116.04288 L 169.04769,115.9179 L 169.04769,115.8554 L 169.11019,115.8554 L 168.73523,115.7929 L 168.54774,115.7929 L 168.36026,115.66792 L 168.36026,115.60542 L 168.61024,115.54292 L 168.86022,115.54292 L 169.29768,115.54292 L 169.54766,115.41794 L 169.73514,115.29296 L 169.29768,115.043 L 168.9852,114.85554 L 168.79772,114.73056 L 168.92271,114.73056 L 168.98521,114.73056 L 169.1102,114.79306 L 169.23519,114.79306 L 169.29769,114.79306 L 169.42268,114.85556 L 169.67265,114.73058 L 169.73515,114.6056 L 169.86014,114.5431 L 169.92264,114.29314 L 169.86014,114.16816 L 169.67265,114.04318 L 169.48517,114.04318 L 169.1102,113.98068 L 168.92272,113.98068 L 168.79773,113.98068 L 168.79773,113.91818 L 168.86023,113.91818 L 168.98521,113.91818 L 169.23519,113.91818 L 169.61016,113.91818 L 169.86014,113.79321 L 169.86014,113.73071 L 169.92264,113.73071 L 170.04763,113.73071 L 170.11013,113.60573 L 170.11013,113.48075 L 170.04763,113.35577 L 170.04763,113.29327 L 169.92264,113.16829 L 169.04772,113.16829 L 168.54776,113.16829 L 168.23529,113.04331 L 168.17279,112.98081 L 168.23529,112.98081 L 168.42277,112.85583 L 168.67275,112.79333 L 169.11021,112.66836 L 169.2352,112.54338 L 169.2352,112.48088 L 169.2977,112.48088 L 169.42269,112.48088 L 169.61017,112.3559 L 169.67267,112.10594 L 169.67267,111.98096 L 169.48519,111.731 L 169.29771,111.60602 L 169.04773,111.54352 L 168.61027,111.66849 L 167.92283,111.79347 L 167.0479,112.10592 L 166.92292,111.29356 L 166.73543,110.60617 L 166.29797,110.04377 L 165.79801,109.60634 L 165.54804,109.48136 L 165.29806,109.41886 L 165.04808,109.41886 L 164.61062,109.29388 L 164.36064,109.23138 L 164.17316,109.23138 L 163.6107,109.1064 L 162.98576,109.0439 L 163.23574,108.91892 L 163.36073,108.79394 L 163.36073,108.73144 L 163.42323,108.73144 L 163.54822,108.73144 L 163.7357,108.48148 L 163.98568,108.16903 L 164.04818,107.73161 L 164.11068,107.41916 L 164.04818,107.1692 L 163.92319,106.98174 L 163.17325,106.6068 L 162.86078,106.41933 L 162.6733,106.29435 L 162.36082,106.10688 L 162.04835,106.10688 L 161.5484,106.10688 L 160.98594,106.23186 L 160.98594,104.85709 L 160.98594,103.73228 L 160.98594,102.79494 L 161.11093,102.04507 L 161.23592,100.35785 L 161.23592,99.670474 L 161.36091,99.108069 L 161.36091,98.545664 L 161.4859,98.233217 L 161.4859,97.920769 L 161.61089,97.858279 L 162.92327,98.608152 L 164.36065,99.108068 L 165.79802,99.358026 L 167.36039,99.483005 L 167.79785,99.358026 L 168.3603,99.170557 L 168.92275,98.85811 L 169.5477,98.545663 L 170.17264,98.045747 L 170.86008,97.483342 L 171.61002,96.795958 L 172.42244,96.046085 L 172.60993,95.733638 L 172.9849,95.48368 L 173.42236,95.171233 L 174.0473,94.858785 L 174.35978,94.546338 L 174.79724,94.29638 L 175.85964,93.546507 L 176.17212,93.546507 L 176.60958,93.671486 L 176.73457,93.608996 L 176.85956,93.546506 L 176.85956,93.421527 L 176.85956,93.234059 L 176.73457,92.984101 L 176.60958,92.859122 L 176.3596,92.734143 L 176.17212,92.734143 L 175.48468,92.734143 L 175.29719,92.734143 L 175.60967,92.484185 L 175.85964,92.359206 L 176.04713,92.296716 L 176.17212,92.296716 L 176.42209,92.609163 L 176.60958,92.609163 L 176.85956,92.671653 L 176.98455,92.609163 L 177.10953,92.609163 L 177.10953,92.484184 L 177.10953,92.421694 L 176.98455,92.234226 L 176.85956,92.109247 L 176.04713,91.484352 L 175.35969,91.171905 L 174.67225,91.046926 L 174.1098,91.171905 L 174.35978,90.859458 L 174.60975,90.671989 L 174.85973,90.484521 L 174.98472,90.172074 L 174.92222,90.047095 L 174.67224,89.984605 L 174.23478,90.109584 L 173.9223,90.109584 L 173.67233,90.297053 L 173.17237,90.859458 L 172.60992,91.484352 L 172.17246,92.046757 L 171.85998,92.484183 L 171.73499,92.85912 L 171.48502,93.046588 L 171.17254,93.421525 L 170.61009,93.858951 L 169.92265,94.483846 L 169.3602,94.733804 L 168.73526,95.046251 L 167.92283,95.358698 L 167.1104,95.733635 L 166.73543,95.858614 L 166.36046,95.858614 L 164.73561,95.358698 L 163.92318,94.671314 L 163.17324,94.233888 L 162.4858,93.921441 L 161.92335,93.733972 L 161.3609,93.671482 L 160.92344,93.671482 L 160.11101,93.671482 L 159.42357,93.546503 L 159.1111,93.484013 L 158.92361,93.484013 L 159.54856,92.484181 L 159.92353,91.671819 L 159.92353,91.609329 L 159.98603,91.609329 L 160.11102,91.546839 L 160.361,91.296881 L 160.61098,90.796965 L 160.86096,90.047092 L 160.86096,89.609666 L 160.92346,89.297219 L 160.86096,89.047261 L 160.86096,88.922282 L 160.73597,88.797303 L 160.61098,88.797303 L 160.42349,88.797303 L 160.23601,88.984771 L 160.23601,88.04743 L 160.29851,87.235067 L 160.23601,86.485193 L 160.23601,85.860299 L 160.04853,85.235404 L 159.92354,84.735489 L 159.67356,84.298063 L 159.42358,83.985615 L 158.54866,83.173253 L 157.79872,82.610848 L 156.9238,82.235911 L 156.11137,82.048443 L 155.23645,81.985953 L 154.36152,82.173421 L 153.4866,82.485869 L 152.61168,83.048274 L 151.79925,83.548189 L 151.2368,84.173084 L 150.86183,84.735489 L 150.79933,85.360383 L 150.61184,86.610172 L 150.67434,87.672493 L 150.79933,88.484856 L 151.1118,89.10975 L 150.54935,88.859792 L 150.23687,88.984771 L 150.04939,89.359708 L 150.04939,89.609666 L 150.17438,89.984602 L 150.29937,90.609497 L 150.54935,91.171902 L 150.86182,91.484349 L 151.29928,91.796796 L 151.42427,91.796796 L 151.67425,91.734306 L 151.92423,91.609327 L 152.2367,91.421859 L 152.79915,93.046584 L 150.73683,93.359032 L 149.17447,93.921437 L 148.48703,94.233884 L 148.04957,94.608821 L 147.36213,95.421183 L 147.04965,95.671141 L 146.67469,96.046078 L 146.04974,96.421015 L 145.3623,96.795951 L 145.36229,96.796155 z"
           style="fill:#000000;fill-opacity:1;fill-rule:evenodd;stroke:none"
           id="2"
           inkscape:connector-curvature="0" />
        <path
           d="M 202.35731,50.241516 L 202.60729,50.803921 L 202.73227,51.053879 L 202.79477,51.178858 L 202.91976,51.366326 L 202.91976,51.428816 L 202.98226,51.553795 L 203.10725,51.803753 L 203.35723,52.178689 L 203.48222,52.428647 L 203.60721,52.678605 L 203.60721,52.803584 L 203.66971,52.928563 L 205.60704,54.115862 L 204.9821,54.615778 L 205.23208,54.803246 L 205.41956,55.178183 L 205.10709,55.240673 L 204.9196,55.428142 L 204.73212,55.865568 L 203.8572,55.678099 L 203.35724,56.240504 L 202.73229,56.927888 L 201.73238,57.177846 L 200.79496,57.177846 L 200.79496,57.240336 L 201.85737,58.552614 L 202.48232,59.364977 L 203.16976,60.302319 L 203.8572,61.23966 L 204.60713,62.42696 L 205.35706,63.614259 L 206.23199,64.989027 L 211.04407,70.050672 L 214.35628,74.924849 L 216.54359,76.112149 L 216.66858,76.237128 L 216.73108,76.299618 L 216.85607,76.424597 L 217.23104,76.799534 L 217.48101,77.111981 L 217.79349,77.486918 L 218.10596,78.111812 L 218.23095,78.736707 L 218.10596,79.236622 L 217.79349,79.736538 L 217.6685,79.736538 L 217.606,79.736538 L 217.606,79.799028 L 217.48101,79.924007 L 217.23104,80.173965 L 216.5436,80.673881 L 215.60618,79.299113 L 215.29371,78.924176 L 214.91874,78.674218 L 214.41878,78.48675 L 213.85633,78.42426 L 213.79383,78.674217 L 213.79383,78.986665 L 213.73133,79.48658 L 213.60634,79.799027 L 213.54384,79.924006 L 213.54384,80.111475 L 213.23137,80.486411 L 213.04388,80.486411 L 212.73141,79.861517 L 212.48143,79.174133 L 212.23145,78.299281 L 212.04397,77.361939 L 211.79399,76.299618 L 211.54401,75.487255 L 211.23154,74.799872 L 210.85657,74.237466 L 209.16922,72.987678 L 207.66935,71.800378 L 206.35697,70.675568 L 205.29456,69.613247 L 204.29465,68.550927 L 203.54471,67.551096 L 202.98226,66.613754 L 202.6073,65.738902 L 202.29482,65.551433 L 202.10734,65.551433 L 203.35723,69.488268 L 203.04476,74.862361 L 203.16975,75.549745 L 203.16975,75.674724 L 203.16975,75.737214 L 203.23225,75.862193 L 203.35724,76.23713 L 203.41974,76.862024 L 203.54473,77.486919 L 203.54473,77.986834 L 203.60723,78.48675 L 203.60723,78.924176 L 203.60723,79.361602 L 203.29476,80.548902 L 202.91979,82.048649 L 202.41983,83.673374 L 201.85738,85.610547 L 201.79488,86.172952 L 201.98236,86.860336 L 202.29483,87.672699 L 202.79479,88.735019 L 202.98227,89.109956 L 202.98227,89.172446 L 203.04477,89.297425 L 203.16976,89.547382 L 203.23226,89.922319 L 203.23226,90.109787 L 203.29476,90.359745 L 203.23226,91.109619 L 203.10727,91.484555 L 202.98228,91.921981 L 203.16977,92.484386 L 203.54473,93.23426 L 204.04469,94.046623 L 204.79462,94.983964 L 205.1071,95.858817 L 205.48206,97.046116 L 205.85703,98.420884 L 206.232,100.04561 L 206.41948,100.29556 L 206.73195,100.60801 L 207.16942,100.92046 L 207.79436,101.2954 L 207.79436,103.0451 L 209.6067,104.35738 L 209.6067,104.41988 L 209.6692,104.79481 L 209.6692,105.29473 L 209.48171,105.73216 L 209.29423,106.23207 L 209.35673,106.79448 L 209.48171,107.60684 L 209.6692,108.60667 L 209.98167,109.91895 L 209.85668,110.10642 L 209.41922,110.10642 L 208.91926,110.16892 L 208.35681,110.16892 L 207.73187,110.2939 L 206.98193,110.2939 L 206.54447,110.2939 L 206.1695,110.3564 L 204.29467,110.48137 L 203.23226,110.41887 L 202.29484,110.41887 L 201.48241,110.35637 L 200.79497,110.35637 L 200.10753,110.23139 L 199.67007,110.23139 L 199.23261,110.10641 L 199.04513,110.10641 L 198.73265,109.79396 L 198.54517,109.35653 L 198.54517,109.23156 L 198.67016,109.16906 L 198.85764,109.04408 L 199.17012,108.9191 L 199.42009,108.66914 L 199.85756,108.41918 L 200.29502,108.10674 L 200.85747,107.85678 L 201.23244,107.29437 L 201.6074,106.85695 L 201.91988,106.48201 L 202.29484,106.29454 L 202.16985,105.73214 L 201.98237,105.23222 L 201.73239,104.60733 L 201.48241,104.04492 L 201.10745,103.35754 L 200.66998,102.73264 L 200.17003,102.04526 L 199.67007,101.42036 L 198.73265,100.85796 L 198.04521,100.35804 L 197.48276,99.858131 L 197.17029,99.483195 L 196.67033,99.483195 L 196.17038,100.48302 L 195.48294,101.67032 L 194.48303,102.85762 L 193.35812,104.23239 L 193.17064,104.73231 L 193.10814,105.48218 L 193.04564,106.35703 L 193.10814,107.54433 L 192.23321,107.66931 L 191.48328,107.73181 L 190.79584,107.66931 L 190.23339,107.54433 L 189.67094,107.23188 L 189.29597,106.91944 L 188.921,106.48201 L 188.73352,105.9196 L 187.98358,105.73214 L 187.35864,105.60716 L 186.29623,105.29471 L 185.42131,104.91977 L 184.79636,104.54484 L 184.3589,104.04492 L 184.23391,103.79496 L 184.23391,103.6075 L 184.23391,103.10758 L 184.60888,102.60766 L 184.98385,102.17024 L 185.60879,101.85779 L 185.98376,101.73281 L 186.48371,101.73281 L 187.67111,101.79531 L 187.73361,101.54535 L 187.85859,101.35789 L 188.10857,100.73299 L 188.35855,99.858141 L 188.60853,98.85831 L 188.67103,98.358395 L 188.85852,97.983458 L 189.29598,97.296074 L 189.92092,96.733669 L 190.73335,96.421222 L 190.73335,96.171264 L 190.85834,95.858817 L 190.98333,95.108943 L 190.98333,94.609028 L 190.98333,94.29658 L 191.04583,94.046623 L 191.04583,93.421728 L 191.04583,93.046791 L 191.04583,92.859323 L 191.10833,92.734344 L 191.04583,91.984471 L 191.04583,91.359576 L 190.98333,90.297256 L 190.85834,89.422403 L 190.73335,88.797509 L 190.10841,86.985315 L 189.60845,85.2981 L 189.1085,83.735864 L 188.73353,82.298606 L 188.35856,80.861349 L 188.04609,79.674049 L 187.73362,78.48675 L 187.54613,77.486919 L 188.10858,74.424936 L 188.23357,72.050337 L 188.17107,70.925527 L 188.04608,69.863206 L 187.7961,68.738396 L 187.48363,67.676075 L 186.6087,65.676413 L 186.6087,65.426455 L 186.35873,65.426455 L 181.29667,71.73789 L 181.10918,71.80038 L 180.85921,71.987848 L 180.42175,72.300296 L 179.92179,72.737722 L 179.17185,73.237637 L 178.35943,73.925021 L 177.29702,74.612405 L 176.17212,75.549747 L 174.60975,76.674557 L 173.98481,77.236962 L 173.48485,77.861856 L 172.60993,78.986667 L 172.17247,80.236456 L 171.735,80.298946 L 171.04756,79.79903 L 170.73509,79.549073 L 170.54761,79.361604 L 170.23514,78.861689 L 170.11015,78.611731 L 170.11015,78.424263 L 170.04765,78.111815 L 170.11015,77.861857 L 170.36012,77.361942 L 170.73509,76.737047 L 171.29754,76.174642 L 173.23487,75.049832 L 173.98481,73.987512 L 174.79724,73.05017 L 175.48468,72.112828 L 176.23461,71.362955 L 176.85956,70.550592 L 177.4845,69.925698 L 177.98446,69.300803 L 178.54691,68.800887 L 179.7968,67.613588 L 180.85921,66.613757 L 181.73413,65.676415 L 182.42157,64.989031 L 182.48407,64.739073 L 182.67156,64.489116 L 182.85904,64.114179 L 183.10902,63.676753 L 183.359,63.114348 L 183.67147,62.489453 L 184.04644,61.73958 L 184.4839,60.927217 L 184.98386,59.989875 L 185.73379,59.115023 L 186.67121,58.30266 L 187.8586,57.552787 L 188.79602,56.865403 L 189.67095,56.427977 L 190.35839,56.11553 L 190.67086,55.990551 L 190.98333,55.990551 L 191.10832,55.615614 L 191.10832,55.428146 L 191.17082,55.303167 L 189.98342,55.178188 L 189.48346,55.115698 L 189.1085,55.115698 L 188.67103,54.990719 L 188.35856,54.928229 L 187.8586,54.80325 L 187.48364,53.553461 L 187.23366,52.491141 L 186.92119,50.553968 L 186.7962,49.679115 L 186.7962,48.991731 L 186.7962,48.304347 L 186.92119,47.866921 L 187.10867,46.992069 L 187.42114,46.304685 L 187.8586,45.617301 L 188.48355,45.054896 L 189.17099,44.492491 L 189.98342,44.117554 L 190.92084,43.742618 L 192.10823,43.49266 L 193.48311,43.180213 L 194.10806,43.055234 L 194.7955,43.055234 L 195.98289,43.117724 L 196.48285,43.180214 L 197.0453,43.367682 L 198.04521,43.742619 L 198.48268,43.992577 L 198.98263,44.367513 L 199.79506,45.179876 L 200.545,46.304686 L 200.85747,46.99207 L 201.29493,47.929412 L 201.79489,48.991732 L 202.35734,50.241521 L 202.35731,50.241516 z"
           style="fill:#000000;fill-opacity:1;fill-rule:evenodd;stroke:none"
           id="3"
           inkscape:connector-curvature="0" />
        <path
           d="M 26.997639,62.989364 L 26.87265,62.989364 L 26.747661,63.051854 L 26.3102,63.051854 L 25.872738,63.051854 L 25.435276,63.426791 L 25.247792,63.489281 L 25.185302,63.551771 L 25.060313,63.739239 L 24.997823,63.739239 L 24.997823,63.801729 L 24.997823,63.926708 L 24.872834,63.926708 L 24.810344,63.926708 L 24.810344,63.989198 L 24.685355,64.051688 L 24.435377,63.92671 L 24.247893,63.92671 L 23.997915,63.9892 L 23.810431,64.176668 L 23.810431,64.426626 L 23.685442,64.676584 L 23.435464,64.739074 L 23.185486,64.864053 L 22.56054,65.114011 L 22.373057,65.23899 L 22.123079,65.1765 L 22.060579,65.426458 L 22.123079,65.426458 L 21.99809,65.488948 L 21.99809,65.613927 L 21.9356,65.613927 L 21.9356,65.676417 L 21.9356,65.801396 L 21.9356,65.863886 L 20.873193,66.426291 L 20.873193,66.738739 L 20.873193,66.988696 L 20.810703,66.988696 L 20.810703,67.051186 L 20.810703,67.176165 L 20.810703,67.238655 L 20.685714,67.113676 L 20.685714,66.926208 L 20.498231,66.863718 L 20.435731,67.051186 L 20.498231,67.238654 L 20.685714,67.67608 L 20.873198,67.73857 L 20.873198,68.051017 L 20.748209,68.238485 L 20.62322,68.550933 L 20.248253,69.238317 L 20.185763,69.363296 L 19.935785,69.613253 L 20.185763,71.425447 L 19.998279,71.862873 L 19.810796,72.112831 L 19.685807,72.487768 L 19.623317,72.550258 L 19.24835,72.612748 L 19.560823,73.050174 L 19.498323,73.050174 L 19.435833,73.050174 L 19.310844,72.987684 L 19.248354,72.987684 L 19.123365,72.987684 L 19.248354,73.237641 L 19.310844,73.36262 L 19.435833,73.550089 L 19.560822,73.800046 L 19.623312,73.925025 L 19.748301,74.112494 L 19.998279,74.424941 L 20.123269,74.54992 L 20.185759,74.61241 L 20.310748,74.737389 L 20.310748,74.799879 L 20.373238,74.799879 L 20.435728,74.799879 L 20.435728,74.6749 L 20.373238,74.73739 L 20.373238,74.6749 L 20.498227,74.6749 L 20.560717,74.799879 L 20.498227,74.862369 L 20.623216,74.799879 L 20.810699,74.987347 L 20.998183,75.112326 L 20.810699,75.049836 L 20.935689,75.299794 L 21.060678,75.487262 L 20.248249,75.549752 L 19.685798,75.862199 L 19.43582,76.049667 L 19.310831,76.362115 L 19.248341,77.111988 L 19.185851,77.361946 L 19.185851,77.674393 L 19.123361,77.924351 L 19.123361,78.236798 L 18.998372,78.549245 L 18.935872,78.674224 L 18.935872,78.861693 L 18.248432,79.549077 L 17.373509,80.361439 L 16.248607,81.173802 L 14.936222,82.173633 L 14.49876,82.486081 L 13.998804,82.923507 L 13.24887,83.360933 L 12.436441,83.860849 L 11.998979,84.110806 L 11.624012,84.485743 L 10.874077,85.360595 L 10.49911,85.610553 L 10.186637,85.98549 L 9.3742084,86.797853 L 8.8742521,87.235279 L 8.4367903,87.797684 L 7.4993723,88.984983 L 7.3118887,88.984983 L 7.1868996,89.047473 L 6.999416,89.047473 L 6.8744269,89.109963 L 6.4369652,89.109963 L 6.1244925,89.109963 L 5.8745144,89.172453 L 5.1870745,89.047474 L 4.43714,88.984984 L 3.499722,88.860005 L 2.562304,88.735026 L 2.624798,88.922495 L 2.9372707,89.172453 L 3.437227,89.42241 L 4.1871614,89.672368 L 2.7497871,89.547389 L 2.1873363,89.547389 L 1.7498745,89.609879 L 1.3749073,89.672369 L 1.2499182,89.797348 L 1.2499182,89.922327 L 1.4998964,90.109795 L 1.8748636,90.234774 L 2.5623035,90.297264 L 2.0623472,90.359754 L 1.7498745,90.359754 L 1.4998964,90.359754 L 1.2499182,90.547222 L 1.1874242,90.734691 L 1.2499182,90.85967 L 1.4374018,90.984649 L 1.68738,91.047139 L 2.3123253,91.172118 L 2.0623472,91.234608 L 1.9373581,91.297098 L 1.8748641,91.484566 L 1.8123691,91.609545 L 1.8748641,91.734524 L 2.0623477,91.797014 L 2.3748204,91.921993 L 3.7497002,92.171951 L 3.8121952,92.171951 L 3.9996788,92.234441 L 4.4996351,92.359419 L 5.1245804,92.484398 L 5.9995039,92.609377 L 5.3745586,93.296761 L 5.0620859,93.609208 L 4.9995919,93.984145 L 4.8121083,94.296592 L 4.8746033,94.54655 L 5.0620869,94.54655 L 5.3745596,94.421571 L 6.4994612,93.42174 L 7.1869011,92.671867 L 7.874341,92.109462 L 8.4367918,91.609546 L 8.8742536,91.297099 L 11.311541,88.984989 L 11.811497,88.360095 L 12.436443,87.79769 L 13.873817,86.67288 L 15.561169,85.54807 L 17.560995,84.42326 L 17.248522,85.298112 L 16.998544,86.360432 L 16.623577,87.485243 L 16.248609,88.797521 L 15.998631,89.609884 L 15.873642,90.859673 L 15.748653,91.109631 L 15.561169,91.484567 L 15.248697,91.921993 L 14.87373,92.546888 L 14.311279,93.921656 L 13.936311,95.358913 L 13.748828,96.85866 L 13.686328,98.358407 L 13.686328,99.10828 L 13.748828,100.04562 L 13.873817,101.17043 L 14.123795,102.54519 L 14.436268,105.23224 L 14.561257,105.98211 L 14.561257,106.10709 L 14.561257,106.16959 L 14.623747,106.29457 L 14.748736,106.60702 L 14.873726,106.98196 L 14.936216,107.04446 L 15.061205,107.10696 L 15.748645,106.98199 L 16.37359,106.91949 L 16.873547,106.91949 L 17.311008,106.98199 L 17.311008,107.10696 L 17.311008,107.16946 L 17.373508,107.29444 L 17.498497,107.66938 L 17.623485,108.23178 L 17.623485,108.60672 L 17.623485,108.79419 L 17.436002,108.79419 L 17.123529,108.79419 L 16.873552,108.73169 L 16.623574,108.73169 L 16.498584,108.66919 L 16.436094,108.66919 L 16.311105,108.66919 L 16.061127,108.66919 L 14.748741,108.60669 L 13.561345,108.73167 L 12.811411,108.85665 L 12.24896,109.04412 L 11.686509,109.1691 L 11.374037,109.35656 L 10.311629,109.60652 L 9.4991999,109.85648 L 8.686771,110.04395 L 8.0618256,110.23142 L 7.4993748,110.29392 L 7.0619131,110.35642 L 6.6869458,110.35642 L 6.4994622,110.41892 L 6.6869458,110.16896 L 6.8119349,109.98149 L 6.8119349,109.85651 L 6.7494399,109.79401 L 6.6244508,109.73151 L 6.4994617,109.79401 L 6.3119781,109.91899 L 6.1244945,110.16895 L 5.4995492,109.98148 L 5.249571,109.98148 L 4.7496147,110.04398 L 4.3746475,109.98148 L 3.8746912,109.91898 L 3.4372295,110.10645 L 2.7497896,110.60636 L 2.562306,111.10628 L 2.4373169,111.54371 L 2.4373169,112.10611 L 2.4373169,113.66835 L 2.4998109,114.29324 L 2.6872945,115.16809 L 2.6247995,116.73033 L 2.8122831,118.6675 L 2.8747781,119.2924 L 2.9997672,119.8548 L 3.1247563,120.29223 L 3.3122399,120.72965 L 3.437229,120.97961 L 3.6872071,121.16708 L 3.9371853,121.22958 L 4.2496579,121.22958 L 4.3121529,121.1046 L 4.4371419,121.0421 L 4.6871201,120.91712 L 5.0620873,120.60468 L 5.1245823,120.35472 L 5.2495714,120.16725 L 5.2495714,119.97978 L 5.3120664,119.8548 L 5.4370555,119.60484 L 5.6245391,119.04244 L 5.8120227,118.60501 L 5.9370118,118.23008 L 5.9995058,118.04261 L 5.9995058,117.73016 L 6.1869894,117.35522 L 6.3744731,116.85531 L 6.7494403,116.2929 L 7.061913,115.85548 L 7.2493966,115.54303 L 7.3118916,115.23058 L 7.3743856,115.04311 L 7.3118916,114.66818 L 7.4368807,114.35573 L 7.7493533,114.04328 L 8.1868151,113.79333 L 8.7492659,113.54337 L 9.4367058,113.3559 L 10.311629,113.23092 L 11.374037,113.16842 L 11.998982,113.04344 L 12.811411,113.04344 L 13.748829,112.98094 L 14.873731,112.98094 L 18.248435,112.6685 L 18.873381,112.606 L 19.498326,112.5435 L 19.998282,112.41852 L 20.498239,112.35602 L 20.873206,112.10606 L 21.248173,111.91859 L 21.498151,111.66863 L 21.810624,111.41868 L 22.060602,110.79378 L 22.123102,110.41885 L 22.248091,110.1064 L 22.37308,109.23155 L 22.37308,108.73163 L 22.37308,108.48167 L 22.37308,108.35669 L 22.37308,108.29419 L 22.43557,108.29419 L 22.49806,106.73196 L 22.998016,106.54449 L 23.435478,106.41951 L 23.747951,106.29453 L 23.997929,106.23203 L 24.56038,105.98207 L 25.060336,105.79461 L 25.935259,105.60714 L 26.435216,105.54464 L 26.810183,105.60714 L 28.622524,107.29435 L 28.622524,107.48182 L 28.622524,107.66929 L 28.685024,107.98174 L 28.622524,108.29418 L 28.622524,108.73161 L 28.560034,109.16904 L 28.560034,109.79393 L 28.497544,110.5438 L 28.685028,111.66861 L 28.872512,112.9184 L 29.247479,114.54313 L 29.372468,115.23051 L 29.559951,115.98039 L 29.684941,116.66777 L 29.684941,116.79275 L 29.684941,116.85525 L 29.747431,116.98023 L 29.87242,117.35516 L 29.87242,117.91757 L 29.93491,118.54246 L 29.93491,119.04238 L 29.93491,119.29234 L 29.93491,119.41732 L 29.93491,119.47982 L 29.9974,119.60479 L 29.747422,119.47982 L 29.559938,119.47982 L 29.559938,119.60479 L 29.622428,119.72977 L 29.872406,119.97973 L 29.622428,120.1672 L 29.497439,120.60463 L 29.434949,121.16703 L 29.434949,121.85441 L 29.434949,122.41682 L 29.434949,122.91673 L 29.434949,123.16669 L 29.497439,123.35416 L 29.997395,123.41666 L 30.559846,123.54164 L 30.74733,123.54164 L 30.997308,123.60414 L 31.497264,123.72912 L 32.309693,123.8541 L 32.997133,123.97908 L 33.434595,123.97908 L 33.434595,123.91658 L 33.497085,123.91658 L 33.622074,123.91658 L 33.872052,123.91658 L 34.059536,123.7916 L 34.184525,123.66662 L 35.121943,123.60412 L 35.371921,123.54162 L 35.684394,123.54162 L 36.246845,123.54162 L 36.746801,123.47912 L 37.246757,123.47912 L 38.059186,123.35414 L 38.434154,123.29164 L 38.809121,123.29164 L 39.059099,123.16666 L 39.309077,123.10416 L 39.496561,122.97918 L 39.496561,122.91668 L 39.559051,122.91668 L 39.68404,122.91668 L 39.871524,122.66673 L 39.934014,122.54175 L 39.934014,122.47925 L 39.996504,122.47925 L 39.871515,122.04182 L 39.746526,121.72938 L 39.559042,121.41693 L 39.371559,121.22946 L 39.059086,120.9795 L 38.746613,120.85452 L 38.309151,120.72954 L 37.934184,120.72954 L 37.434228,120.60457 L 36.996766,120.47959 L 36.434315,120.22963 L 35.934359,119.97967 L 35.12193,119.16731 L 34.496985,118.79237 L 34.122018,118.85487 L 33.872039,118.79237 L 33.684556,118.66739 L 33.622056,118.47992 L 33.434573,117.66756 L 33.497063,116.79271 L 33.434573,115.48043 L 33.434573,114.41811 L 33.434573,112.60592 L 33.372083,111.79355 L 33.372083,111.16866 L 33.372083,110.60625 L 33.372083,110.29381 L 33.122105,109.23149 L 32.997116,108.35663 L 32.934626,107.60676 L 32.997116,107.04435 L 32.934626,105.98203 L 32.809637,105.04469 L 32.622154,104.60727 L 32.497165,104.29482 L 32.184692,103.73241 L 31.934714,103.48246 L 31.809725,103.29499 L 31.747225,103.17001 L 31.434753,102.79507 L 31.184774,102.35765 L 30.809807,101.79524 L 30.43484,101.17035 L 29.997378,100.42047 L 29.559916,99.670605 L 28.872477,98.483305 L 28.435015,97.670943 L 28.122542,97.108538 L 28.060052,96.983559 L 27.872568,96.296175 L 27.560095,95.796259 L 27.122634,95.358833 L 26.622677,95.046386 L 26.747666,94.109044 L 26.872655,93.42166 L 26.872655,92.921745 L 26.872655,92.609297 L 26.685172,91.921913 L 26.622682,91.234529 L 26.560192,90.672124 L 26.622682,90.297188 L 26.747671,90.04723 L 26.997649,90.04723 L 27.060149,90.10972 L 27.185138,90.422168 L 27.310127,90.922083 L 27.560105,91.734446 L 27.810083,92.42183 L 28.247545,93.359172 L 28.809996,94.421492 L 29.497436,95.608792 L 29.559926,95.983728 L 29.684916,96.421155 L 29.684916,96.546134 L 29.684916,96.608624 L 29.747406,96.733603 L 29.872395,97.04605 L 29.997384,97.420987 L 29.997384,97.483477 L 30.059874,97.608456 L 30.622325,98.233351 L 31.434754,98.920735 L 33.059611,100.35799 L 33.184601,100.42049 L 33.372084,100.54547 L 33.497073,100.60797 L 33.684557,100.73295 L 33.87204,100.85793 L 34.122019,100.98291 L 34.184509,100.98291 L 34.309498,100.98291 L 34.309498,100.85793 L 34.309498,100.79543 L 34.371988,100.79543 L 33.559559,99.858086 L 33.247086,99.48315 L 33.122097,99.233192 L 32.997108,98.983234 L 32.872119,98.795766 L 32.809629,98.545808 L 32.622146,98.170871 L 32.497157,97.795934 L 32.247178,97.296019 L 32.059695,96.796103 L 31.934706,96.483656 L 31.809717,96.171209 L 31.684728,95.733783 L 31.559739,95.233867 L 31.372255,94.608973 L 31.247266,93.921589 L 31.122277,93.484163 L 31.059787,93.109226 L 30.934798,92.234374 L 30.497336,89.922264 L 30.372347,89.672306 L 30.309857,89.422348 L 30.184868,89.047412 L 30.122368,88.672475 L 29.747401,87.672644 L 29.497423,87.110239 L 29.372434,86.797792 L 29.309944,86.547834 L 29.247454,85.485513 L 29.247454,84.67315 L 29.184954,83.985766 L 29.184954,83.423361 L 29.309943,82.173572 L 29.497427,81.111252 L 29.622416,80.111421 L 29.684916,79.424037 L 29.622416,79.111589 L 29.622416,78.924121 L 29.559926,78.736653 L 28.685003,77.8618 L 28.185047,77.174417 L 28.435025,77.174417 L 28.497515,77.174417 L 28.622504,77.236907 L 28.872483,77.361886 L 29.497428,77.861801 L 30.247362,78.174249 L 30.434846,78.04927 L 30.872308,77.861801 L 31.434759,77.486865 L 31.747231,77.236907 L 32.184693,76.986949 L 32.934627,76.112097 L 33.434584,75.424713 L 33.809551,74.924797 L 33.872041,74.61235 L 33.997031,74.237413 L 34.12202,73.675008 L 34.247009,73.112603 L 33.997031,72.987625 L 34.12202,72.862646 L 34.434492,72.675177 L 34.746965,72.425219 L 35.246921,72.112772 L 35.184431,72.237751 L 35.059442,72.550198 L 35.121932,72.425219 L 35.246921,72.362729 L 35.309411,72.23775 L 35.4344,72.17526 L 35.4344,72.550196 L 35.246916,73.050112 L 35.309406,73.487538 L 35.309406,73.987454 L 35.059428,74.799817 L 34.434482,75.299732 L 34.621966,75.299732 L 34.809449,75.299732 L 34.809449,75.237242 L 34.871949,75.237242 L 34.996938,75.112263 L 35.371905,74.2999 L 35.434395,73.862474 L 35.559384,73.550027 L 35.809362,73.050111 L 35.871862,72.987621 L 35.934352,72.800152 L 35.996842,72.550194 L 36.121831,72.487704 L 36.184321,72.425214 L 36.30931,72.487704 L 36.30931,72.300236 L 36.559288,72.175257 L 36.621778,72.112767 L 36.684268,72.175257 L 36.684268,72.300236 L 36.684268,72.550193 L 36.559278,72.550193 L 36.621768,72.612683 L 36.809252,72.800151 L 37.05923,72.300236 L 37.246713,71.925299 L 37.309203,71.612852 L 37.371693,71.425383 L 37.246704,71.550362 L 36.996726,71.737831 L 36.871737,71.675341 L 36.934237,71.612851 L 36.996727,71.425382 L 37.246705,71.237914 L 37.371694,71.362893 L 37.309204,71.237914 L 37.246714,71.112935 L 37.246714,70.925467 L 37.246714,70.613019 L 37.246714,70.238083 L 37.121725,69.988125 L 37.059235,69.738167 L 36.996745,69.550699 L 36.871756,69.42572 L 36.871756,69.36323 L 36.996745,69.238251 L 37.121734,68.925803 L 37.309218,68.425888 L 37.309218,68.300909 L 37.246728,68.238419 L 37.309218,68.300909 L 37.309218,67.551036 L 37.371708,67.363567 L 37.059236,67.176099 L 37.121726,67.301078 L 37.059236,67.301078 L 36.934247,67.363568 L 36.809258,67.301078 L 36.746758,67.301078 L 36.49678,67.238588 L 36.746758,67.05112 L 36.559274,67.05112 L 36.496784,66.98863 L 36.246806,67.113609 L 36.121817,67.176099 L 36.059327,67.05112 L 36.121817,66.801162 L 36.246806,66.738672 L 36.059322,66.551203 L 36.121812,66.426224 L 36.059322,66.301246 L 36.059322,66.238756 L 35.934333,66.113777 L 35.809344,65.988798 L 35.684355,65.863819 L 35.621865,65.801329 L 35.496876,65.67635 L 34.746942,65.113945 L 34.621953,64.926477 L 34.496964,64.926477 L 34.496964,64.988967 L 33.872018,64.739009 L 33.684535,64.61403 L 33.559546,64.55154 L 33.497056,64.55154 L 33.309573,64.426561 L 33.184584,64.364071 L 32.809616,64.176602 L 32.372155,63.926645 L 31.997187,63.676687 L 31.434737,63.364239 L 30.997275,63.176771 L 30.184846,62.926813 L 28.684977,62.926813 L 28.497493,62.926813 L 28.247515,62.926813 L 27.997537,62.864323 L 27.747559,62.864323 L 27.62257,62.801833 L 27.56007,62.801833 L 27.435081,62.801833 L 27.185103,62.801833 L 27.122613,62.801833 L 27.122613,62.926812 L 26.997623,62.989302 L 26.997639,62.989364 z M 20.998164,66.86371 L 21.060664,66.80122 L 20.998164,66.988688 L 20.935674,66.926198 L 20.998164,66.863708 L 20.998164,66.86371 z M 21.123153,67.863541 L 21.060663,67.801051 L 21.060663,67.676072 L 21.248146,67.676072 L 21.185656,67.801051 L 21.123156,67.801051 L 21.123156,67.863541 L 21.123153,67.863541 z M 20.373219,72.48776 L 20.24823,72.42527 L 20.24823,72.36278 L 20.373219,72.30029 L 20.373219,72.487758 L 20.373219,72.48776 z M 22.123066,73.550081 L 22.248055,73.300123 L 22.373044,73.237633 L 22.373044,73.175143 L 22.435534,73.362611 L 22.373044,73.362611 L 22.373044,73.425101 L 22.373044,73.55008 L 22.373044,73.675058 L 22.310554,73.675058 L 22.310554,73.737548 L 22.123071,73.55008 L 22.123066,73.550081 z M 20.060746,73.925017 L 19.998246,74.049996 L 19.935756,73.987506 L 19.998246,73.800037 L 20.060746,73.925016 L 20.060746,73.925017 z M 20.93567,73.112654 L 21.060659,73.050164 L 21.123149,73.112654 L 21.123149,73.237633 L 20.935666,73.175143 L 20.935666,73.112653 L 20.93567,73.112654 z M 21.310637,75.487253 L 21.310637,75.299785 L 21.310637,75.237295 L 21.373127,75.237295 L 21.498116,75.112316 L 21.498116,74.987337 L 21.748094,74.862358 L 22.123062,75.049826 L 22.623018,74.862358 L 22.872996,74.987337 L 22.872996,74.924847 L 22.997985,75.049826 L 22.997985,75.112316 L 23.122974,75.174806 L 23.122974,75.237296 L 22.872996,75.299786 L 22.560523,75.424765 L 22.37304,75.424765 L 22.123062,75.424765 L 21.810589,75.424765 L 21.435622,75.487255 L 21.310633,75.487255 L 21.310637,75.487253 z M 23.372956,73.862528 L 23.497945,73.862528 L 23.497945,74.112486 L 23.310462,74.049996 L 23.372952,73.925017 L 23.372952,73.862527 L 23.372956,73.862528 z M 23.56044,74.049996 L 23.685429,73.987506 L 23.747929,73.987506 L 23.685429,74.112485 L 23.56044,74.049995 L 23.56044,74.049996 z M 23.372956,74.79987 L 23.247967,74.924848 L 23.122978,74.862358 L 23.060488,74.799868 L 23.122978,74.674889 L 23.310462,74.674889 L 23.372952,74.799868 L 23.372956,74.79987 z M 35.184424,71.425439 L 35.309413,71.362949 L 35.434402,71.487928 L 35.434402,71.550418 L 35.496892,71.675397 L 35.434402,71.675397 L 35.434402,71.737887 L 35.309413,71.862865 L 35.371903,71.987844 L 35.246914,71.925354 L 35.059431,71.925354 L 35.246914,71.862864 L 34.996936,71.862864 L 35.246914,71.612907 L 35.246914,71.487928 L 35.184424,71.425438 L 35.184424,71.425439 z"
           style="fill:#000000;fill-opacity:1;fill-rule:evenodd;stroke:none"
           id="4"
           inkscape:connector-curvature="0" />
        <path
           d="M 36.246831,66.738731 L 36.496809,66.988688 L 36.559299,66.676241 L 36.621789,66.613751 L 36.434305,66.551261 L 36.246822,66.73873 L 36.246831,66.738731 z"
           style="fill:#000000;fill-opacity:1;fill-rule:evenodd;stroke:none"
           id="5"
           inkscape:connector-curvature="0" />
        <path
           d="M 153.98654,1.7497046 L 153.11161,2.2496201 L 152.42417,2.7495357 L 151.79923,3.1244724 L 151.29927,3.4994091 L 150.79932,3.7493669 L 150.42435,3.9993247 L 150.11188,4.1243036 L 149.98689,4.2492825 L 149.98689,3.8118563 L 149.98689,3.5618985 L 149.92439,3.3744302 L 149.7994,3.3744302 L 149.54942,3.3119412 L 149.29945,3.4994095 L 148.98697,3.6868778 L 148.61201,4.0618145 L 148.11205,4.3117723 L 147.73708,4.6242196 L 147.42461,4.8741774 L 147.23713,5.1866246 L 146.98715,5.3116035 L 146.86216,5.4990718 L 146.79966,5.6240507 L 146.86216,5.7490296 L 146.61218,5.5615613 L 146.29971,5.4365824 L 145.67476,6.1864558 L 145.04982,7.2487764 L 144.29988,8.5610548 L 143.54995,10.24827 L 143.42496,10.373248 L 143.29997,10.685696 L 143.11249,10.998143 L 142.925,11.498058 L 142.61253,11.997974 L 142.36255,12.685358 L 141.98759,13.435231 L 141.67511,14.372573 L 141.17516,15.122446 L 140.80019,15.80983 L 140.42522,16.372235 L 140.11275,16.872151 L 139.73778,17.184598 L 139.4878,17.497046 L 139.23783,17.684514 L 138.98785,17.747004 L 138.05043,19.621688 L 137.61297,20.49654 L 137.238,21.308903 L 136.48807,22.683671 L 135.92562,23.808481 L 135.36316,24.558354 L 135.11319,24.870801 L 134.9257,25.120759 L 134.55074,25.370717 L 134.36325,25.370717 L 134.23826,25.245738 L 134.11327,25.183248 L 134.05077,25.183248 L 133.86329,25.058269 L 133.7383,24.995779 L 133.6758,24.995779 L 133.42582,24.8708 L 133.30083,24.80831 L 133.23833,24.80831 L 133.17583,23.933458 L 133.05084,23.183584 L 132.67587,22.308732 L 132.42589,21.871306 L 132.23841,21.496369 L 131.86344,20.996454 L 131.67596,20.746496 L 131.55097,20.559027 L 130.80103,19.684175 L 129.86362,18.684344 L 128.80121,17.809492 L 128.36375,17.434555 L 127.98878,17.184597 L 127.11386,16.87215 L 126.11394,16.684682 L 125.11403,16.747172 L 124.05162,16.93464 L 123.11421,17.309577 L 122.36427,17.871982 L 121.80182,18.684345 L 121.36436,19.184261 L 120.98939,19.559197 L 120.61442,19.746666 L 120.36445,19.809156 L 120.11447,19.621688 L 119.92698,19.37173 L 119.7395,18.871814 L 119.677,18.309409 L 119.55201,18.121941 L 119.48951,17.996962 L 119.48951,17.934472 L 119.48951,17.809493 L 119.30203,17.434556 L 119.17704,17.184598 L 119.11454,17.059619 L 119.11454,16.997129 L 118.98955,16.809661 L 118.92705,16.684682 L 118.80206,16.434724 L 118.48959,15.809829 L 118.11462,15.059956 L 117.73966,14.247593 L 117.1772,13.185273 L 116.92723,12.747846 L 116.80224,12.435399 L 116.61475,11.872994 L 116.61475,11.560547 L 116.48976,10.810674 L 116.36478,10.435737 L 116.17729,10.185779 L 115.73983,9.4983955 L 115.61484,8.9359905 L 115.30237,8.3735855 L 115.11489,7.9986488 L 114.9899,7.6237121 L 114.9899,7.4362437 L 115.17738,6.3739231 L 115.36486,5.4365814 L 115.48985,4.6242186 L 115.61484,3.9993241 L 115.61484,3.4369191 L 115.61484,2.9994929 L 115.48985,2.6870457 L 115.42735,2.5620668 L 114.30245,4.3742608 L 114.11496,4.4992397 L 113.98997,4.6242186 L 113.74,4.8116869 L 113.49002,4.8741769 L 113.24004,4.8116869 L 113.11505,4.686708 L 113.05255,4.624219 L 112.92756,4.4992401 L 112.67758,4.1867928 L 112.4276,3.6868772 L 112.17762,3.1244722 L 111.80265,2.4370883 L 111.55268,1.8746832 L 111.3027,1.4997466 L 111.17771,1.3122782 L 110.99023,1.2497892 L 110.92773,1.3122782 L 110.86523,1.562236 L 110.92773,1.9996621 L 110.92773,2.4995777 L 110.99023,2.9370039 L 111.11521,3.6868772 L 111.17771,3.936835 L 111.3027,4.1243034 L 111.55268,4.3742612 L 111.36519,4.2492823 L 111.2402,4.1867933 L 110.99023,3.8743461 L 110.61526,3.3744305 L 110.24029,2.749536 L 109.80283,2.0621521 L 109.49036,1.6872154 L 109.17788,1.4372576 L 108.9904,1.4997476 L 108.80292,1.6247265 L 108.74042,1.8746842 L 108.74042,2.124642 L 108.92791,2.5620682 L 109.11539,2.9994943 L 109.55285,3.5618993 L 109.99031,4.1867938 L 110.61526,4.9366672 L 110.49027,4.9366672 L 110.42777,4.9366672 L 110.24029,4.8116883 L 110.05281,4.6867094 L 109.92782,4.5617305 L 109.86532,4.4992415 L 109.74033,4.3742626 L 109.49036,4.0618153 L 109.11539,3.6243892 L 108.74042,3.1244736 L 108.49044,2.8120264 L 108.36546,2.624558 L 108.24047,2.562069 L 108.24047,2.624558 L 108.24047,2.8120264 L 108.36546,3.1244736 L 108.49044,3.5618997 L 108.74042,4.1243048 L 108.86541,4.5617309 L 109.0529,4.9366676 L 109.17788,5.2491149 L 109.24038,5.3740937 L 109.36537,5.5615621 L 109.49036,5.7490304 L 109.61535,5.8740093 L 109.74033,5.9364983 L 109.80283,5.9364983 L 109.92782,5.9989873 L 109.67784,5.9989873 L 109.36537,5.9989873 L 108.9904,5.8740084 L 108.61543,5.7490295 L 108.05298,5.4365823 L 107.61552,5.3740933 L 107.30305,5.3116043 L 107.24055,5.4365832 L 107.17805,5.4365832 L 107.36553,5.6240515 L 107.67801,5.8740093 L 108.11547,6.248946 L 108.67792,6.6238827 L 109.36536,7.1237983 L 110.17779,7.6862033 L 111.1777,8.4360767 L 111.2402,8.748524 L 111.36519,9.2484395 L 111.42769,9.8108446 L 111.55268,10.498228 L 111.61518,10.748186 L 111.86516,11.123123 L 112.11514,11.498059 L 112.5526,11.997975 L 112.6151,12.685359 L 112.80259,13.497722 L 113.05257,14.372574 L 113.49003,15.372405 L 113.61502,15.747342 L 113.61502,15.809832 L 113.67752,15.934811 L 113.80251,16.184769 L 114.17748,16.997132 L 114.80242,18.434389 L 115.0524,19.059284 L 115.36487,19.684178 L 115.86483,20.746499 L 116.2398,21.558862 L 116.36479,21.871309 L 116.55227,22.246246 L 116.55227,22.308736 L 116.61477,22.433715 L 116.73976,22.683673 L 116.80226,22.808652 L 116.92725,22.99612 L 117.73968,24.495867 L 118.48961,26.120592 L 119.17705,27.745318 L 119.802,29.370044 L 120.80191,32.494516 L 121.17688,34.056752 L 121.55184,35.681478 L 121.61434,36.993756 L 121.67684,38.555993 L 121.61434,39.368355 L 121.61434,40.305697 L 121.42685,42.367849 L 121.17688,43.617638 L 121.05189,44.742448 L 120.9269,45.67979 L 120.8644,46.554642 L 120.73941,47.179536 L 120.73941,47.679452 L 120.73941,47.991899 L 120.80191,48.241857 L 120.86441,48.304347 L 121.17689,48.429326 L 121.61435,48.429326 L 122.23929,48.554305 L 122.98923,48.554305 L 123.98914,48.554305 L 124.4891,48.491815 L 125.11404,48.491815 L 126.42643,48.491815 L 126.61391,48.491815 L 126.86389,48.616794 L 126.98888,48.804262 L 127.17636,49.116709 L 127.23886,49.366667 L 127.30136,49.804093 L 127.30136,50.241519 L 127.30136,50.803924 L 127.36386,50.991393 L 127.36386,51.241351 L 127.23887,51.491308 L 127.05139,51.803756 L 127.05139,52.053713 L 127.05139,52.303671 L 127.11389,52.741097 L 127.11389,53.678439 L 127.11389,54.303334 L 127.17639,55.053207 L 127.11389,55.928059 L 127.05139,56.99038 L 126.9264,58.177679 L 126.8639,59.489958 L 126.61392,60.864726 L 126.42644,62.426962 L 126.11396,64.114177 L 125.86399,65.926371 L 125.739,67.051181 L 125.6765,67.676075 L 125.6765,68.488438 L 125.55151,70.238143 L 125.55151,72.237805 L 125.42652,72.550252 L 125.30153,73.050168 L 125.17655,73.300126 L 125.11405,73.675062 L 124.86407,74.487425 L 125.42652,77.549408 L 125.42652,77.799366 L 125.42652,78.361771 L 125.42652,79.111644 L 125.55151,80.111476 L 125.55151,81.236286 L 125.6765,82.611054 L 125.739,84.17329 L 125.86399,86.047973 L 125.86399,86.735357 L 125.86399,87.360252 L 125.86399,87.922657 L 125.86399,88.172614 L 125.86399,88.297593 L 125.86399,88.360083 L 125.92649,88.485062 L 125.92649,88.922488 L 125.92649,89.297425 L 125.92649,89.922319 L 125.86399,90.234766 L 125.98897,90.672192 L 126.42644,91.609534 L 126.55143,91.859492 L 126.67641,92.10945 L 126.67641,92.17194 L 126.73891,92.296919 L 126.73891,92.484387 L 126.61392,92.546877 L 126.48893,92.734345 L 126.11396,93.29675 L 125.55151,94.109113 L 124.98906,95.108944 L 124.61409,95.358902 L 124.36412,95.421392 L 124.17663,95.546371 L 123.67668,95.67135 L 123.11423,95.796329 L 122.2393,95.796329 L 121.61436,95.983797 L 121.1769,96.296245 L 120.98941,96.733671 L 120.92691,97.171097 L 121.17689,97.671013 L 121.61435,98.170928 L 122.36428,98.670844 L 123.05172,98.983291 L 123.86415,99.233249 L 124.67658,99.358228 L 125.67649,99.420718 L 126.23894,99.295739 L 127.05137,99.295739 L 127.98879,99.17076 L 129.0512,99.17076 L 129.42616,99.17076 L 130.1761,99.23325 L 131.11352,99.358229 L 132.36341,99.608186 L 132.86336,99.545696 L 132.86336,99.483206 L 132.92586,99.483206 L 133.05085,99.483206 L 133.30082,99.483206 L 133.67579,99.358227 L 133.98826,99.233248 L 134.17575,98.98329 L 134.30074,98.733332 L 134.36324,98.358396 L 134.36324,98.045948 L 134.23825,97.358564 L 134.30075,96.858649 L 134.36325,96.546202 L 134.55074,96.421223 L 134.67572,96.233754 L 134.80071,96.046286 L 134.80071,95.858818 L 134.86321,95.733839 L 134.92571,95.358902 L 134.86321,94.858986 L 134.86321,94.359071 L 134.80071,93.734176 L 134.73821,93.109282 L 134.30075,91.672025 L 134.05077,90.609704 L 133.86329,89.797341 L 133.80079,89.422404 L 133.11335,85.048143 L 132.67589,80.798861 L 132.42591,79.67405 L 132.30092,78.736709 L 132.11344,77.049494 L 132.05094,75.612236 L 132.11344,74.549916 L 132.23843,73.362616 L 132.48841,72.050338 L 132.80088,70.61308 L 133.23834,69.175823 L 133.6758,67.551098 L 134.23825,65.863882 L 134.8007,64.051688 L 135.55064,62.114516 L 135.86311,61.177174 L 136.30057,60.364811 L 136.80053,59.677427 L 137.42547,59.240001 L 137.98793,58.802575 L 138.67537,58.490128 L 139.4253,58.302659 L 140.30022,58.365149 L 140.42521,58.365149 L 140.80018,58.427639 L 141.30014,58.490129 L 142.05007,58.677597 L 142.92499,58.865065 L 144.0499,59.115023 L 145.36228,59.42747 L 146.92464,59.802407 L 147.11213,59.864897 L 147.54959,60.052366 L 148.04955,60.364813 L 148.73699,60.802239 L 149.42443,61.302155 L 150.36184,61.989539 L 151.42425,62.739412 L 152.61165,63.676754 L 153.1741,64.11418 L 153.98653,64.739074 L 154.79896,65.551437 L 155.86136,66.488779 L 156.29882,66.863716 L 156.79878,67.238652 L 156.98626,67.363631 L 157.23624,67.5511 L 157.7362,67.926036 L 158.61112,68.363462 L 159.48605,68.800888 L 159.986,68.925867 L 160.48596,69.113336 L 160.67344,69.113336 L 160.92342,69.175826 L 161.42338,69.238316 L 161.79834,69.175826 L 162.17331,69.113336 L 162.48578,68.988357 L 162.79826,68.863378 L 163.23572,68.425952 L 163.67318,68.113505 L 163.92316,67.926036 L 164.11064,67.988526 L 164.79808,68.61342 L 165.7355,69.488272 L 166.11047,69.675741 L 166.61042,69.80072 L 167.11038,69.73823 L 167.67283,69.550762 L 168.29778,69.050846 L 168.86023,68.550931 L 169.29769,68.051015 L 169.67265,67.613589 L 169.86014,67.113673 L 170.04762,66.613758 L 170.04762,66.113842 L 169.98512,65.613927 L 169.67264,64.989032 L 169.48516,64.551606 L 169.29768,63.864222 L 169.11019,63.239328 L 169.04769,62.801901 L 168.98519,62.426965 L 169.04769,62.239496 L 169.36016,61.677091 L 169.61014,61.302155 L 169.67264,60.989707 L 169.73514,60.927217 L 169.73514,59.989875 L 169.73514,59.240002 L 169.61015,58.677597 L 169.48516,58.30266 L 168.86022,57.24034 L 168.17278,56.302998 L 167.23536,55.490635 L 166.29794,54.803251 L 165.54801,54.490804 L 164.79807,54.553294 L 164.11063,54.865742 L 163.48569,55.553125 L 163.23571,55.803083 L 163.11072,56.240509 L 162.92323,56.802914 L 162.79825,57.552788 L 162.61076,58.240172 L 162.54826,58.802577 L 162.48576,59.177513 L 162.61075,59.489961 L 162.36077,59.240003 L 162.23579,59.115024 L 162.17329,59.052534 L 161.86082,58.802576 L 161.61084,58.615107 L 160.86091,58.115192 L 159.98598,57.615276 L 158.86108,56.990382 L 157.61119,56.365487 L 156.11132,55.615614 L 155.29889,55.240677 L 155.04891,55.115698 L 154.92392,55.053208 L 154.86142,55.053208 L 154.48645,54.928229 L 153.79901,54.365824 L 153.23656,53.990887 L 152.67411,53.615951 L 152.23665,53.365993 L 151.79919,53.116035 L 151.48671,53.053545 L 151.17424,52.991055 L 151.04925,53.116034 L 150.29932,53.241013 L 149.67437,53.241013 L 149.04943,52.991055 L 148.48698,52.49114 L 147.36208,51.428819 L 146.36216,50.616456 L 145.36225,49.929072 L 144.48733,49.554135 L 143.54991,48.741773 L 142.86247,48.116878 L 142.17503,47.554473 L 141.73757,47.117047 L 141.30011,46.679621 L 141.05013,46.429663 L 140.86264,46.242195 L 140.80014,45.867258 L 140.80014,45.554811 L 140.73764,44.804937 L 140.48767,43.930085 L 140.30018,43.43017 L 140.17519,42.992743 L 139.36276,41.11806 L 138.80031,39.368355 L 138.36285,37.618651 L 138.23786,35.868946 L 138.17536,34.244221 L 138.36284,32.557006 L 138.42534,31.557174 L 138.61282,30.619833 L 139.05028,28.68266 L 139.48774,27.870297 L 139.86271,27.307892 L 140.17518,26.745487 L 140.42516,26.37055 L 140.61265,25.558187 L 140.86262,24.933293 L 141.05011,24.370888 L 141.30009,23.933462 L 141.92503,22.183757 L 142.54998,20.808989 L 142.79995,20.184095 L 143.11243,19.684179 L 143.36241,19.184264 L 143.67488,18.809327 L 144.36232,17.559538 L 145.04976,16.497217 L 145.61221,15.497386 L 146.11216,14.622534 L 146.48713,13.747682 L 146.7996,13.060298 L 147.04958,12.435403 L 147.23707,11.997977 L 147.92451,11.123125 L 148.48696,10.373251 L 148.92442,9.6233782 L 149.23689,9.0609732 L 149.42438,8.4985682 L 149.48688,8.061142 L 149.42438,7.6237159 L 149.36188,7.3737581 L 149.61186,7.0613108 L 149.98683,6.8113531 L 150.86175,6.3114375 L 151.92416,5.7490324 L 153.23654,5.1866274 L 153.48652,4.9991591 L 153.86149,4.6867118 L 154.23645,4.2492857 L 154.73641,3.8118595 L 155.11138,3.1869651 L 155.36136,2.7495389 L 155.42386,2.3121128 L 155.36136,2.062155 L 154.54893,2.5620706 L 154.17396,2.7495389 L 153.92398,2.9994967 L 153.48652,3.311944 L 153.29904,3.374433 L 153.23654,3.4994119 L 153.54901,2.812028 L 153.674,2.4995807 L 153.86149,2.3121124 L 153.86149,2.0621546 L 153.92399,1.9371757 L 153.98649,1.7497074 L 153.98654,1.7497046 z"
           style="fill:#000000;fill-opacity:1;fill-rule:evenodd;stroke:none"
           id="6"
           inkscape:connector-curvature="0" />
        <path
           d="M 54.432741,36.681306 L 54.745213,37.306201 L 55.24517,38.118563 L 55.807621,39.055905 L 56.620049,40.118226 L 56.745039,40.305694 L 56.932522,40.555652 L 57.1825,41.055567 L 57.369984,41.430504 L 57.557468,41.805441 L 57.557468,42.055399 L 57.557468,42.367846 L 57.494978,42.367846 L 57.494978,42.430336 L 57.494978,42.555315 L 57.432488,42.555315 L 57.432488,42.617805 L 57.432488,42.742784 L 56.995027,42.992741 L 56.745049,43.367678 L 56.682559,43.742615 L 56.745049,44.30502 L 56.745049,44.554978 L 56.682559,44.929914 L 56.432581,45.679788 L 55.807636,46.429661 L 55.432668,46.804598 L 54.995207,47.179534 L 54.620239,48.054387 L 54.370261,49.116707 L 53.995294,50.304007 L 53.745316,51.741264 L 53.557832,52.803585 L 53.620322,54.115863 L 53.682812,55.61561 L 53.995285,57.365314 L 53.932795,57.552783 L 53.932795,57.990209 L 53.870305,58.552614 L 53.870305,59.302487 L 53.745316,60.17734 L 53.682826,60.677255 L 53.682826,61.30215 L 53.557837,62.551939 L 53.495347,63.239323 L 53.495347,64.051685 L 53.307863,65.863879 L 53.370353,67.613584 L 53.370353,68.363457 L 53.495342,69.113331 L 53.807814,70.550588 L 53.932803,71.237972 L 53.932803,71.362951 L 53.932803,71.425441 L 53.995293,71.55042 L 54.120282,71.925357 L 54.245271,72.550251 L 54.432755,73.175146 L 54.682733,74.237466 L 54.932711,75.174808 L 55.0577,75.862192 L 55.182689,76.424597 L 55.182689,76.549576 L 55.182689,76.612066 L 55.245179,76.737044 L 55.245179,76.799534 L 55.307669,76.924513 L 55.245179,77.23696 L 55.370168,77.674386 L 55.495157,78.299281 L 55.80763,79.111643 L 55.80763,79.924006 L 55.932619,80.861348 L 56.37008,82.9235 L 56.37008,83.423415 L 56.43257,84.04831 L 56.49506,85.360588 L 56.307577,86.797846 L 56.057599,88.485061 L 55.807621,89.484892 L 55.495148,90.79717 L 55.120181,92.296917 L 54.745213,94.109111 L 54.495235,95.296411 L 54.245257,96.421221 L 53.87029,98.545862 L 53.495323,100.29556 L 53.245345,101.92029 L 53.120355,102.54518 L 52.995366,103.10759 L 52.870377,104.10742 L 52.807887,104.48236 L 52.807887,104.7948 L 52.807887,105.29472 L 52.745397,106.04459 L 52.745397,106.79447 L 52.682907,107.41936 L 52.682907,108.04426 L 52.557918,108.48168 L 52.495428,108.48168 L 52.495428,108.54418 L 52.495428,108.66916 L 52.495428,108.91912 L 52.370439,109.29405 L 52.307949,109.41903 L 52.307949,109.6065 L 51.995476,110.10642 L 51.807992,110.60633 L 51.620509,111.04376 L 51.620509,111.54368 L 51.620509,111.85612 L 51.745498,112.23106 L 51.870487,112.48102 L 52.182959,112.79346 L 52.620421,113.10591 L 53.182872,113.35587 L 53.745323,113.48085 L 54.432763,113.54335 L 54.932719,113.48085 L 55.370181,113.48085 L 56.120115,113.48085 L 56.370093,113.48085 L 56.557577,113.48085 L 56.807555,113.48085 L 57.307511,113.60583 L 57.932457,113.91827 L 58.619897,114.3557 L 59.49482,114.91811 L 60.494733,115.04308 L 61.619634,115.10558 L 62.744536,115.04308 L 64.056921,114.91811 L 64.556878,114.73064 L 65.056834,114.60566 L 65.244317,114.48068 L 65.494296,114.41818 L 65.931757,114.2932 L 66.24423,114.04324 L 66.369219,113.91826 L 66.369219,113.85576 L 66.431709,113.85576 L 66.556698,113.85576 L 66.744181,113.60581 L 66.806671,113.48083 L 66.93166,113.41833 L 66.93166,113.23086 L 66.99415,113.10588 L 67.05664,112.85592 L 66.99415,112.73094 L 66.99415,112.66844 L 66.99415,112.54346 L 66.93166,112.2935 L 66.556693,111.73109 L 66.181725,111.54363 L 67.306627,111.48113 L 68.431529,111.35615 L 69.55643,111.16868 L 70.806321,110.91872 L 71.181288,110.73125 L 71.556256,110.60627 L 72.181201,110.35632 L 72.243691,110.23134 L 72.368681,110.16884 L 72.618659,110.04386 L 72.931131,109.7939 L 72.993621,109.41896 L 72.993621,109.2315 L 72.993621,109.10652 L 72.743643,108.73158 L 72.43117,108.35664 L 72.306181,108.23166 L 72.181192,108.16916 L 72.118702,108.16916 L 71.80623,108.04419 L 71.681241,107.98169 L 71.618741,107.98169 L 71.493752,107.98169 L 70.993796,107.79422 L 70.431345,107.66924 L 69.743905,107.41928 L 68.993971,107.23181 L 68.43152,106.7319 L 67.869069,106.35696 L 67.119135,106.107 L 66.556684,105.85705 L 66.119222,105.60709 L 65.806749,105.48211 L 65.494277,104.41979 L 65.181804,103.60743 L 64.931826,103.23249 L 64.744342,102.98253 L 64.494364,102.73257 L 64.30688,102.60759 L 64.30688,102.54509 L 64.431869,102.35763 L 64.556859,102.04518 L 64.681848,101.67024 L 64.806837,101.04535 L 64.931826,100.35796 L 65.056815,99.483114 L 65.306793,98.545772 L 65.181804,97.483451 L 65.119314,96.54611 L 64.994325,95.671257 L 64.931835,94.921384 L 64.681857,93.546616 L 64.556868,92.921722 L 64.494378,92.421806 L 64.869345,91.359485 L 65.181818,90.547122 L 65.369301,89.859739 L 65.494291,89.422312 L 65.431801,87.797587 L 65.55679,86.485308 L 65.681779,85.298009 L 65.994252,84.360667 L 66.306725,83.298346 L 66.619197,82.361005 L 66.806681,81.486152 L 67.056659,80.798769 L 67.181648,80.111385 L 67.306637,79.611469 L 67.306637,79.174043 L 67.306637,78.861596 L 67.244147,78.36168 L 67.306637,77.924254 L 67.494121,77.549317 L 67.806593,77.23687 L 68.119066,76.924423 L 68.681517,76.736954 L 69.243968,76.549486 L 70.056397,76.424507 L 70.743837,76.174549 L 71.368782,76.04957 L 71.931233,75.799613 L 72.118716,75.674634 L 72.368695,75.612144 L 72.493684,75.424676 L 72.681167,75.299697 L 72.931145,75.049739 L 73.056134,74.674803 L 73.056134,74.487334 L 73.118624,74.362355 L 72.993635,74.049908 L 72.993635,73.674971 L 72.931145,73.425014 L 72.931145,73.237545 L 72.931145,72.67514 L 72.806156,71.987756 L 72.743666,71.237883 L 72.618677,70.42552 L 72.556187,69.925605 L 72.556187,69.488178 L 72.431198,68.925773 L 72.368708,68.425858 L 72.243718,67.238558 L 72.118729,66.551174 L 72.056239,65.92628 L 71.93125,64.614001 L 71.681272,63.114255 L 71.556283,62.301892 L 71.493783,61.552019 L 71.243805,59.864803 L 71.118816,58.177588 L 71.306299,58.115098 L 71.681267,58.302566 L 72.118728,58.552524 L 72.806168,58.98995 L 72.806168,58.92746 L 72.868658,58.802481 L 73.18113,58.302565 L 73.368614,57.927629 L 73.618592,57.490202 L 74.181043,56.365392 L 74.368527,56.052945 L 74.868483,55.990455 L 75.493428,55.927965 L 76.368352,56.052944 L 76.743319,56.052944 L 77.118286,56.052944 L 77.430759,55.927965 L 77.805726,55.865475 L 78.055704,55.678006 L 78.305682,55.490538 L 78.493166,55.24058 L 78.68065,54.990622 L 78.930628,54.053281 L 79.305595,52.928471 L 79.680562,51.616192 L 80.055529,50.178935 L 80.180518,48.42923 L 80.430497,47.116952 L 80.61798,46.117121 L 80.867958,45.367247 L 81.180431,44.867332 L 81.617893,44.617374 L 81.742882,44.679864 L 81.99286,45.24227 L 82.242838,46.054632 L 82.617805,47.366911 L 82.992773,48.929147 L 83.430234,50.991299 L 83.867696,53.303408 L 84.430147,56.115434 L 84.680125,56.802817 L 85.055092,57.365222 L 85.492554,57.740159 L 86.117499,57.990117 L 86.67995,57.990117 L 87.179907,58.052607 L 87.929841,58.177586 L 88.179819,58.177586 L 88.242309,58.177586 L 88.367298,58.240076 L 88.492287,58.365055 L 88.742265,58.177586 L 89.179727,58.052607 L 89.804672,57.927629 L 90.617101,57.80265 L 91.367035,57.677671 L 91.991981,57.677671 L 92.366948,57.740161 L 92.616926,57.990119 L 92.554436,58.177587 L 92.491946,58.365056 L 92.491946,58.677503 L 92.366957,58.98995 L 92.304467,59.427376 L 92.116984,59.864802 L 91.991995,60.427207 L 91.679522,61.676996 L 91.492038,62.676828 L 91.367049,63.48919 L 91.367049,64.114085 L 91.117071,66.051258 L 90.929588,66.92611 L 90.804599,67.863452 L 90.429631,69.425688 L 90.179653,70.113072 L 89.99217,70.862945 L 89.679697,71.737798 L 89.617207,72.112734 L 89.679697,72.55016 L 89.679697,72.800118 L 89.804686,73.112565 L 89.99217,73.362523 L 90.304642,73.612481 L 90.67961,73.987418 L 90.992082,74.362354 L 91.117071,74.737291 L 91.179561,75.112228 L 90.742099,77.049401 L 90.492121,79.111552 L 90.367132,81.173704 L 90.492121,83.360835 L 90.429631,83.735772 L 90.429631,84.235687 L 90.367141,84.798092 L 90.304651,85.485476 L 90.117168,86.17286 L 89.929684,86.985223 L 89.679706,87.860075 L 89.492222,88.922396 L 89.054761,90.547121 L 88.867277,92.046868 L 88.804777,93.359147 L 88.867277,93.921552 L 89.054761,94.546446 L 89.054761,94.921383 L 89.117251,95.483788 L 89.117251,96.171172 L 89.179741,96.983535 L 89.242231,97.48345 L 89.429715,98.170834 L 89.742187,98.983197 L 90.242144,99.920539 L 90.242144,100.42045 L 90.117155,101.04535 L 89.742187,101.67024 L 89.179737,102.29514 L 88.429802,102.92003 L 88.11733,103.23248 L 87.929846,103.60742 L 87.554879,104.23231 L 87.492389,104.91969 L 87.492389,105.4821 L 87.492389,106.16948 L 87.492389,106.98185 L 87.554879,107.91919 L 87.42989,108.23163 L 87.304901,108.60657 L 87.117417,108.85653 L 86.992428,109.16898 L 86.74245,109.35644 L 86.492472,109.6064 L 86.367483,109.6064 L 86.304993,109.6064 L 86.304993,109.6689 L 86.180004,109.79388 L 85.930026,109.98135 L 85.367575,110.41878 L 84.930113,110.79371 L 84.555146,111.10616 L 84.242673,111.35612 L 83.805212,111.60607 L 83.617728,111.73105 L 83.555238,111.91852 L 83.492748,112.16848 L 83.492748,112.29346 L 83.617737,112.48093 L 83.680227,112.54343 L 83.86771,112.66841 L 84.367666,112.91836 L 84.617645,112.98086 L 84.992612,113.10584 L 85.805041,113.3558 L 85.992524,113.3558 L 86.304997,113.4183 L 87.117426,113.4808 L 88.054844,113.4808 L 89.304735,113.4808 L 89.617207,113.4808 L 90.054669,113.29333 L 90.554625,112.91839 L 91.179571,112.41848 L 91.742022,111.85607 L 91.929505,111.60611 L 92.179483,111.48114 L 92.491956,111.29367 L 92.741934,111.35617 L 93.179396,111.48115 L 93.741847,111.54365 L 94.304298,111.35618 L 94.991737,111.10622 L 94.991737,109.66896 L 95.116727,108.54415 L 95.241716,107.54432 L 95.429199,106.91943 L 95.491689,106.35702 L 95.616678,105.91959 L 95.804161,105.10723 L 95.929151,104.48234 L 95.929151,104.23238 L 95.991641,104.1074 L 95.991641,102.54516 L 95.991641,101.48284 L 95.991641,100.79546 L 95.991641,100.60799 L 96.054131,100.54549 L 96.054131,100.35802 L 96.116621,100.23304 L 96.24161,99.983088 L 96.3041,99.608151 L 96.429089,99.295704 L 96.429089,98.858278 L 96.491579,98.483341 L 96.616568,97.546 L 96.616568,96.546169 L 96.741557,95.733806 L 96.866547,95.046422 L 97.179019,94.546506 L 97.428997,93.859122 L 97.74147,93.234228 L 97.928954,92.484354 L 97.991444,92.109418 L 98.116433,91.79697 L 98.116433,91.359544 L 98.178923,90.984608 L 98.303912,90.234734 L 98.303912,89.422371 L 98.366402,88.672498 L 98.303912,87.172751 L 98.491396,86.047941 L 98.616385,85.485536 L 98.866363,85.04811 L 99.491308,84.360726 L 99.428818,87.047772 L 99.428818,87.735156 L 99.553807,88.547519 L 99.678796,89.484861 L 99.928774,90.67216 L 99.803785,91.79697 L 99.741295,92.671823 L 99.741295,93.171738 L 99.741295,93.421696 L 99.803785,93.984101 L 99.991268,94.733975 L 100.17875,95.671316 L 100.55372,96.796126 L 100.30374,97.546 L 100.17875,98.358363 L 100.05376,99.108236 L 100.05376,99.920599 L 100.05376,100.60798 L 100.17875,101.35786 L 100.67871,102.8576 L 100.74121,103.35752 L 100.74121,103.98241 L 100.61622,104.23237 L 100.49123,104.54482 L 100.17876,105.16971 L 99.866289,105.41967 L 99.678806,105.73212 L 99.366333,106.29452 L 99.178849,106.79444 L 99.116359,107.23186 L 99.178849,107.73178 L 99.428828,108.35667 L 99.803795,108.98157 L 100.36624,109.73144 L 99.991278,110.5438 L 99.678806,111.04372 L 99.303838,111.54364 L 98.991366,111.91857 L 98.928876,112.29351 L 98.928876,112.41849 L 99.053865,112.60596 L 99.178854,112.73093 L 99.428833,112.9184 L 99.616316,112.9809 L 99.928789,113.10588 L 100.74122,113.35584 L 101.67864,113.48082 L 102.24109,113.54332 L 102.92853,113.6683 L 103.17851,113.6058 L 103.49098,113.6058 L 103.74096,113.5433 L 104.05343,113.5433 L 104.49089,113.41832 L 104.92836,113.29334 L 105.17833,113.04338 L 105.42831,112.85591 L 105.5533,112.60596 L 105.67829,112.356 L 105.74079,110.85625 L 106.05327,109.48148 L 106.36574,108.10672 L 106.92819,106.85693 L 107.17817,105.91958 L 107.24067,105.16971 L 107.05319,104.41984 L 106.67822,103.79494 L 106.30326,103.04507 L 106.17827,102.67013 L 106.17827,102.35769 L 106.30326,101.60781 L 106.80321,100.85794 L 106.80321,100.67047 L 106.86571,100.483 L 106.9907,100.10807 L 107.17818,99.670641 L 107.30317,99.045746 L 107.49065,98.358363 L 107.74063,97.546 L 108.0531,96.671147 L 108.0531,96.233721 L 108.17809,95.733806 L 108.30308,94.608996 L 108.30308,93.921612 L 108.30308,93.171738 L 108.30308,91.547013 L 108.24058,89.984776 L 108.36557,88.672498 L 108.55305,87.485199 L 108.86552,86.547857 L 108.86552,86.297899 L 108.86552,86.17292 L 108.86552,86.11043 L 108.92802,86.11043 L 109.05301,85.735493 L 109.24049,84.98562 L 109.30299,84.110767 L 109.36549,83.235915 L 109.30299,82.236084 L 109.24049,81.736168 L 109.24049,81.298742 L 109.1155,80.736337 L 109.053,80.236422 L 108.92801,79.674016 L 108.86551,79.174101 L 108.74052,78.611696 L 108.74052,78.11178 L 108.74052,77.549375 L 108.92801,76.98697 L 109.053,76.299586 L 109.36547,75.612202 L 109.67794,74.862329 L 110.1779,74.174945 L 110.67785,73.050135 L 111.2403,72.112793 L 111.67777,71.237941 L 112.11523,70.550557 L 112.4277,69.863173 L 112.74017,69.300768 L 112.92766,68.800852 L 113.17763,68.488405 L 113.36512,67.863511 L 113.6151,67.238616 L 113.99006,65.73887 L 113.99006,65.488912 L 113.99006,65.301443 L 114.11505,65.051486 L 114.17755,64.676549 L 114.30254,64.239123 L 114.61501,63.239292 L 114.49002,61.989503 L 114.49002,60.927182 L 114.36503,60.05233 L 114.30253,59.677393 L 114.30253,59.427435 L 113.86506,57.490262 L 113.74008,56.6779 L 113.67758,56.115495 L 113.4901,55.178153 L 113.4901,54.740727 L 113.36511,53.803385 L 113.11513,52.928533 L 112.61517,52.05368 L 111.99023,51.178828 L 111.05281,50.241486 L 110.24038,49.554102 L 109.55294,48.866719 L 109.11548,48.429292 L 108.74051,47.929377 L 108.55303,47.61693 L 108.36555,47.429461 L 108.30305,47.366971 L 107.86559,47.429461 L 107.55312,47.491951 L 107.24064,47.429461 L 107.05316,47.304482 L 106.6157,46.804567 L 106.36572,46.242162 L 106.11574,45.554778 L 106.05324,44.804904 L 105.99074,43.930052 L 106.11573,43.242668 L 106.30322,42.680263 L 106.74068,42.242837 L 107.05315,41.8679 L 107.17814,41.680432 L 107.36562,41.555453 L 107.86558,40.80558 L 108.11556,39.930727 L 108.24055,39.055875 L 108.42803,38.056044 L 108.49053,37.556128 L 108.49053,37.306171 L 108.49053,37.181192 L 108.49053,37.118702 L 108.55303,37.118702 L 108.49053,36.993723 L 108.49053,36.931233 L 108.49053,36.806254 L 108.49053,36.556296 L 108.49053,36.056381 L 108.36555,35.056549 L 107.80309,34.181697 L 107.49062,33.556803 L 107.30314,33.056887 L 107.24064,32.806929 L 106.92817,32.619461 L 106.80318,32.494482 L 106.67819,32.307014 L 106.74069,32.182035 L 106.6157,32.057056 L 106.6782,32.057056 L 105.92827,31.682119 L 105.36582,31.307183 L 105.36582,31.369673 L 105.42832,31.494652 L 105.42832,31.557142 L 105.30333,31.494652 L 105.24083,31.432162 L 105.11584,31.307184 L 105.05334,31.244694 L 104.92836,31.119715 L 105.05334,31.494652 L 104.74087,31.244694 L 104.67837,30.994736 L 104.61587,30.994736 L 104.61587,31.057226 L 104.49088,31.057226 L 104.42838,31.057226 L 104.2409,30.932247 L 104.11591,30.869757 L 104.05341,30.869757 L 103.80343,30.744779 L 103.61595,30.6198 L 103.49096,30.6198 L 103.36597,30.6198 L 103.30347,30.6198 L 103.30347,30.68229 L 102.86601,30.68229 L 102.61603,30.68229 L 102.49104,30.68229 L 102.42854,30.68229 L 102.42854,30.74478 L 102.55353,30.74478 L 102.55353,30.80727 L 102.36605,30.80727 L 102.17857,30.80727 L 102.05358,30.86976 L 101.99108,30.86976 L 101.92858,30.86976 L 101.61611,30.86976 L 101.42862,30.86976 L 101.30363,30.86976 L 101.24113,30.86976 L 101.24113,30.93225 L 101.42861,30.93225 L 101.42861,30.99474 L 101.17863,30.99474 L 100.80367,31.119719 L 100.30371,31.244698 L 99.928739,31.369677 L 99.241299,31.557145 L 98.928826,31.494655 L 98.741343,31.494655 L 98.553859,31.432165 L 98.491369,31.432165 L 98.491369,31.557144 L 98.366379,31.682123 L 98.178896,31.682123 L 98.053907,31.744613 L 97.616445,31.744613 L 97.553955,31.744613 L 97.553955,31.807103 L 97.553955,31.869593 L 97.428966,31.807103 L 97.366476,31.807103 L 97.428966,31.932082 L 97.491466,32.057061 L 97.428966,32.057061 L 97.303977,32.057061 L 97.491461,32.431998 L 96.991505,32.369508 L 96.554043,32.18204 L 96.679032,32.307019 L 96.741522,32.431998 L 96.679032,32.431998 L 96.679032,32.494488 L 96.554043,32.556978 L 96.616533,32.619468 L 96.679023,32.681958 L 96.554034,32.619468 L 96.491544,32.619468 L 96.366555,32.556978 L 96.241566,32.556978 L 96.241566,32.619468 L 96.241566,32.681958 L 96.116577,32.681958 L 95.991588,32.681958 L 96.241566,32.869427 L 96.679028,33.244363 L 96.241566,33.369342 L 95.991588,33.306852 L 96.054078,33.369342 L 96.116568,33.494321 L 96.054078,33.494321 L 95.991588,33.494321 L 95.991588,33.556811 L 96.054078,33.619301 L 96.116568,33.74428 L 96.116568,33.80677 L 96.116568,33.931749 L 96.241557,33.869259 L 96.241557,34.056727 L 96.304047,34.056727 L 96.304047,34.119217 L 96.116563,34.119217 L 95.92908,34.244196 L 95.99157,34.181706 L 95.99157,34.244196 L 95.804086,34.369175 L 95.491614,34.556643 L 95.554104,34.494153 L 95.679093,34.681622 L 95.116643,35.181537 L 95.49161,34.994069 L 95.679093,34.931579 L 95.616603,35.056557 L 95.491614,35.181536 L 95.30413,35.369005 L 95.804086,35.119047 L 95.554108,35.556473 L 95.30413,35.86892 L 95.554108,35.80643 L 95.491618,36.243856 L 95.429128,36.806261 L 95.616612,36.306345 L 95.491623,37.118708 L 95.491623,36.993729 L 95.554113,36.806261 L 95.679102,36.556303 L 95.866586,36.243856 L 95.741597,37.306177 L 95.679107,38.243518 L 95.679107,38.930902 L 95.741597,39.493307 L 95.804087,39.555797 L 95.929077,39.680776 L 96.11656,39.930733 L 96.304044,40.30567 L 96.304044,40.555628 L 96.241554,40.555628 L 96.241554,40.618118 L 96.179064,40.743097 L 96.554031,40.680607 L 96.304053,40.930565 L 96.241563,41.305501 L 96.241563,41.742927 L 96.429047,42.367822 L 96.554036,42.867737 L 96.741519,43.305164 L 96.929003,43.6801 L 97.178981,43.992548 L 97.366465,44.367484 L 97.616443,44.80491 L 97.678933,44.929889 L 97.803922,45.117358 L 98.0539,45.492294 L 98.428867,46.054699 L 98.803834,46.554615 L 99.053812,46.867062 L 99.178801,46.929552 L 99.366285,47.054531 L 99.428785,47.054531 L 99.553774,47.117021 L 99.803752,47.179511 L 99.491279,47.30449 L 99.053817,47.429469 L 98.741345,47.429469 L 98.491367,47.491959 L 98.178894,47.491959 L 97.928916,47.554449 L 96.991498,47.554449 L 96.304058,47.554449 L 95.804101,47.616939 L 95.616618,47.741917 L 94.804189,48.054365 L 94.179244,48.429301 L 93.554298,48.679259 L 93.116836,48.991706 L 92.679375,49.179175 L 92.429397,49.366643 L 92.241913,49.491622 L 92.179423,49.616601 L 91.929445,49.991538 L 91.804456,50.303985 L 91.554478,50.8039 L 90.61706,51.116348 L 89.92962,51.553774 L 89.367169,51.866221 L 88.929708,52.178668 L 88.617235,52.366137 L 88.492246,52.366137 L 88.492246,52.428627 L 88.242268,52.678585 L 88.054784,52.928543 L 87.804806,53.116011 L 87.679817,53.178501 L 87.617327,53.30348 L 86.992382,51.616265 L 86.492426,50.179008 L 86.054964,48.86673 L 85.742491,47.804409 L 85.430019,46.867067 L 85.305029,46.179683 L 85.18004,45.679768 L 85.18004,45.42981 L 84.930062,44.117531 L 84.805073,43.055211 L 84.680084,42.117869 L 84.617594,41.367996 L 83.867659,38.306013 L 83.74267,38.555971 L 83.68018,38.555971 L 83.68018,38.618461 L 83.68018,38.74344 L 83.55519,38.80593 L 83.55519,38.86842 L 83.4927,38.118546 L 83.4927,37.556141 L 83.43021,36.993736 L 83.43021,36.6188 L 83.180232,35.993905 L 82.992749,35.806437 L 82.86776,35.806437 L 82.242814,36.6188 L 81.805352,37.431162 L 81.367891,38.118546 L 81.055418,38.680951 L 80.742945,39.118378 L 80.555462,39.493314 L 80.367978,39.743272 L 80.367978,39.93074 L 80.118,40.180698 L 79.868022,40.368167 L 79.680538,40.368167 L 79.555549,40.430657 L 79.243076,40.430657 L 79.180586,40.868083 L 79.180586,41.118041 L 79.305575,41.492978 L 79.180586,41.617957 L 79.055597,41.930404 L 78.868113,42.242851 L 78.743124,42.742767 L 78.680634,43.055214 L 78.618144,43.49264 L 78.368166,44.554961 L 77.930704,45.74226 L 77.618232,46.429644 L 77.368253,47.242007 L 77.243264,47.554454 L 77.180774,47.929391 L 77.055785,48.241838 L 76.993295,48.616775 L 76.805812,48.866733 L 76.680822,49.11669 L 76.430844,49.554116 L 76.180866,49.616606 L 75.993383,49.741585 L 75.743404,49.804075 L 75.618415,49.804075 L 75.555925,49.804075 L 75.555925,49.866565 L 75.055969,49.804075 L 74.556012,49.741585 L 74.368529,49.679095 L 74.118551,49.804074 L 73.806078,49.929053 L 73.431111,50.2415 L 73.118638,50.30399 L 72.86866,50.30399 L 72.618682,50.116521 L 72.493693,49.929053 L 72.243714,49.554116 L 71.806253,49.304159 L 71.181307,49.054201 L 70.368878,48.866733 L 69.868922,48.741754 L 69.493955,48.554285 L 69.056493,48.241838 L 68.681526,47.866901 L 67.994086,47.179517 L 67.681613,46.86707 L 67.49413,46.679602 L 67.181657,46.367155 L 67.119167,46.304665 L 66.306738,46.117197 L 65.806781,45.992218 L 65.431814,45.74226 L 65.306825,45.617281 L 65.306825,45.554791 L 64.744374,45.117365 L 64.369407,44.804917 L 63.744462,44.242512 L 63.494483,43.992555 L 63.369494,43.867576 L 63.307004,43.680107 L 63.80696,43.617617 L 64.244422,43.617617 L 64.619389,43.492638 L 64.994356,43.430148 L 65.056846,43.305169 L 65.181835,43.242679 L 65.369318,43.1177 L 65.494308,42.867742 L 65.494308,42.742764 L 65.494308,42.680274 L 65.556798,42.680274 L 65.619288,41.99289 L 65.744277,41.430485 L 65.869266,40.993059 L 66.119244,40.805591 L 66.431717,40.180696 L 66.744189,39.555802 L 66.806679,39.430823 L 66.931668,39.368333 L 67.119152,39.243354 L 67.119152,39.118376 L 67.119152,39.055886 L 67.181642,39.055886 L 67.244142,38.930907 L 67.181642,38.805928 L 67.181642,38.743438 L 67.056653,38.49348 L 66.806675,37.993565 L 66.556697,37.36867 L 66.681686,37.36867 L 66.931664,37.30618 L 66.681686,37.181201 L 66.619196,37.056222 L 66.556706,36.868753 L 66.681695,36.743775 L 66.869178,36.18137 L 66.931668,35.868922 L 66.806679,35.618964 L 66.806679,35.306517 L 66.68169,34.931581 L 66.6192,34.556644 L 66.494211,34.244197 L 66.431721,33.994239 L 66.306732,33.431834 L 66.056753,32.806939 L 65.931764,32.432003 L 65.869274,32.307024 L 65.869274,32.244534 L 65.869274,32.119555 L 66.494219,31.682129 L 66.431729,31.494661 L 66.619212,31.244703 L 66.744201,31.307193 L 66.806691,31.432171 L 66.869181,31.119724 L 66.931671,30.994745 L 66.744187,30.869766 L 66.556704,30.932256 L 66.119242,30.43234 L 65.806769,30.182382 L 65.119329,29.494999 L 65.369307,29.932425 L 65.306817,29.932425 L 65.244317,29.932425 L 65.119328,29.869935 L 65.056838,29.869935 L 64.931849,29.807445 L 64.869359,29.807445 L 64.74437,29.557487 L 64.931854,29.432508 L 65.056843,29.432508 L 64.369403,28.870103 L 63.869447,28.620145 L 63.431985,28.495166 L 63.119512,28.620145 L 60.557236,27.682804 L 60.494746,27.682804 L 60.494746,27.995251 L 60.432246,27.995251 L 60.432246,28.057741 L 60.369756,28.057741 L 60.244767,27.995251 L 60.182277,27.870272 L 60.244767,27.682804 L 60.369756,27.620314 L 59.369843,27.307867 L 58.744898,27.120399 L 58.432425,27.057909 L 58.244941,27.120399 L 58.057458,27.307867 L 58.119948,27.307867 L 57.994959,27.370357 L 58.057449,27.307867 L 57.557493,27.370357 L 57.057536,27.682805 L 56.495085,27.932762 L 56.182613,28.18272 L 55.932635,28.432678 L 55.870145,28.682636 L 55.745156,28.870104 L 55.557672,29.30753 L 55.2452,29.744956 L 54.807738,30.43234 L 54.432771,30.932256 L 54.245287,31.369682 L 54.182797,31.744619 L 54.307786,32.119555 L 54.307786,32.244534 L 54.370276,32.494492 L 54.370276,33.056897 L 54.182793,33.744281 L 53.932814,34.556644 L 53.745331,34.869091 L 53.807821,35.306517 L 53.995305,35.868922 L 54.432767,36.681285 L 54.432741,36.681306 z M 58.494886,27.745315 L 58.619875,27.682825 L 58.682365,27.745315 L 58.619875,27.807805 L 58.494886,27.995274 L 58.307402,27.870295 L 58.244902,27.807805 L 58.307402,27.745315 L 58.494886,27.745315 z"
           style="fill:#000000;fill-opacity:1;fill-rule:evenodd;stroke:none"
           id="7"
           inkscape:connector-curvature="0" />
      </g>
      <flowRoot
         xml:space="preserve"
         id="flowRoot2993"
         style="font-size:40px;font-style:normal;font-variant:normal;font-weight:normal;font-stretch:normal;text-align:end;line-height:125%;letter-spacing:0px;word-spacing:0px;text-anchor:end;fill:url(#linearGradient5223);fill-opacity:1;stroke:none;font-family:CreativeBlock BB;-inkscape-font-specification:CreativeBlock BB"
         transform="translate(-109.727,-88.975676)"
         inkscape:export-filename="D:\Development\website\parmerlanepreschool\logo\g3780.png"
         inkscape:export-xdpi="90"
         inkscape:export-ydpi="90"><flowRegion
           id="flowRegion2995"
           style="fill:url(#linearGradient2424);fill-opacity:1"><rect
             id="rect2997"
             width="260.40857"
             height="90.370094"
             x="139.12238"
             y="371.91238"
             style="text-align:end;text-anchor:end;fill:url(#linearGradient2422);fill-opacity:1" /></flowRegion><flowPara
           id="flowPara2999"
           style="fill:#000000;fill-opacity:1">Parmer Lane</flowPara><flowPara
           id="flowPara3001"
           style="fill:#000000;fill-opacity:1"> Preschool</flowPara></flowRoot>    </g>
  </g>
</svg>
